<svg width="40" height="40" viewBox="0 0 40 40" fill="none" xmlns="http://www.w3.org/2000/svg">
<path d="M0 20C0 8.95431 8.95431 0 20 0V0C31.0457 0 40 8.95431 40 20V20C40 31.0457 31.0457 40 20 40V40C8.95431 40 0 31.0457 0 20V20Z" fill="#F9F5FF"/>
<path d="M11.0504 26L12.1186 22.9205H16.6641L17.7266 26H19.5902L15.4027 14.3636H13.3743L9.18679 26H11.0504ZM12.63 21.4432L14.3459 16.4773H14.4368L16.1527 21.4432H12.63ZM30.3885 18.1477C29.9908 15.6591 28.0419 14.2045 25.5817 14.2045C22.5703 14.2045 20.3487 16.4602 20.3487 20.1818C20.3487 23.9034 22.5589 26.1591 25.5817 26.1591C28.1385 26.1591 30.0078 24.5568 30.3885 22.2557L28.6158 22.25C28.3146 23.7386 27.0646 24.5568 25.593 24.5568C23.5987 24.5568 22.093 23.0284 22.093 20.1818C22.093 17.358 23.593 15.8068 25.5987 15.8068C27.0817 15.8068 28.326 16.642 28.6158 18.1477H30.3885Z" fill="#7F56D9"/>
</svg>
