<svg width="40" height="40" viewBox="0 0 40 40" fill="none" xmlns="http://www.w3.org/2000/svg">
<path d="M0 20C0 8.95431 8.95431 0 20 0V0C31.0457 0 40 8.95431 40 20V20C40 31.0457 31.0457 40 20 40V40C8.95431 40 0 31.0457 0 20V20Z" fill="#F9F5FF"/>
<path d="M10.2592 15.875H13.8842V26H15.6342V15.875H19.2649V14.3636H10.2592V15.875ZM21.255 26H25.7152C28.4197 26 29.6413 24.6534 29.6413 22.8693C29.6413 21.0682 28.38 20.0511 27.2266 19.9886V19.875C28.2947 19.6023 29.1868 18.875 29.1868 17.4205C29.1868 15.6989 27.9936 14.3636 25.5163 14.3636H21.255V26ZM23.0107 24.4943V20.767H25.6072C27.0163 20.767 27.897 21.6761 27.897 22.7841C27.897 23.7614 27.2322 24.4943 25.5447 24.4943H23.0107ZM23.0107 19.3977V15.858H25.4084C26.8004 15.858 27.4652 16.5909 27.4652 17.5568C27.4652 18.6818 26.5447 19.3977 25.3629 19.3977H23.0107Z" fill="#7F56D9"/>
</svg>
