<svg width="46" height="46" viewBox="0 0 46 46" fill="none" xmlns="http://www.w3.org/2000/svg">
<path d="M3 23C3 11.9543 11.9543 3 23 3C34.0457 3 43 11.9543 43 23C43 34.0457 34.0457 43 23 43C11.9543 43 3 34.0457 3 23Z" fill="#F4EBFF"/>
<path d="M14.6665 25.0833L22.9998 29.25L31.3332 25.0833M22.9998 16.75L14.6665 20.9167L22.9998 25.0833L31.3332 20.9167L22.9998 16.75Z" stroke="#7F56D9" stroke-width="1.66667" stroke-linecap="round" stroke-linejoin="round"/>
<path d="M23 40C13.6112 40 6 32.3888 6 23H0C0 35.7025 10.2975 46 23 46V40ZM40 23C40 32.3888 32.3888 40 23 40V46C35.7025 46 46 35.7025 46 23H40ZM23 6C32.3888 6 40 13.6112 40 23H46C46 10.2975 35.7025 0 23 0V6ZM23 0C10.2975 0 0 10.2975 0 23H6C6 13.6112 13.6112 6 23 6V0Z" fill="#F9F5FF"/>
</svg>
