<svg width="161" height="48" viewBox="0 0 161 48" fill="none" xmlns="http://www.w3.org/2000/svg">
<path d="M22.25 2C10.0997 2 0.25 11.8497 0.25 24C0.25 36.1503 10.0997 46 22.25 46C33.151 46 42.2002 38.0716 43.9458 27.6667H43.7879C42.1598 33.9925 36.4174 38.6667 29.5833 38.6667C21.4832 38.6667 14.9167 32.1002 14.9167 24C14.9167 15.8998 21.4832 9.33333 29.5833 9.33333C36.4174 9.33333 42.1598 14.0075 43.7879 20.3333H43.9458C42.2002 9.92838 33.151 2 22.25 2Z" fill="#A4BCFD"/>
<path d="M0.25 24C0.25 11.8497 10.0997 2 22.25 2C33.151 2 42.2002 9.92838 43.9458 20.3333H29.1213C27.4931 14.0075 21.7507 9.33333 14.9167 9.33333C6.81649 9.33333 0.25 15.8998 0.25 24Z" fill="#3538CD"/>
<path d="M0.25 24C0.25 36.1503 10.0997 46 22.25 46C33.151 46 42.2002 38.0716 43.9458 27.6667H29.1213C27.4931 33.9925 21.7507 38.6667 14.9167 38.6667C6.81649 38.6667 0.25 32.1002 0.25 24Z" fill="#3538CD"/>
<path d="M75.6891 20.5071C75.0627 15.9829 71.5826 13.3579 67.0684 13.3579C61.7488 13.3579 57.7417 17.2358 57.7417 23.8181C57.7417 30.3906 61.6991 34.2784 67.0684 34.2784C71.9107 34.2784 75.1224 31.1463 75.6891 27.2585L71.9704 27.2386C71.5031 29.625 69.5542 30.9673 67.1181 30.9673C63.817 30.9673 61.4505 28.4914 61.4505 23.8181C61.4505 19.2244 63.7971 16.669 67.1281 16.669C69.6039 16.669 71.5428 18.071 71.9704 20.5071H75.6891Z" fill="#101828"/>
<path d="M83.3031 34.3082C85.6994 34.3082 87.1312 33.1846 87.7875 31.9019H87.9068V34H91.367V23.7784C91.367 19.7414 88.0759 18.5284 85.1625 18.5284C81.9509 18.5284 79.4849 19.9602 78.6895 22.7443L82.0503 23.2215C82.4082 22.1775 83.4224 21.2826 85.1824 21.2826C86.8528 21.2826 87.7676 22.1377 87.7676 23.6392V23.6988C87.7676 24.7329 86.6838 24.7826 83.9892 25.071C81.0261 25.3892 78.1923 26.2741 78.1923 29.7144C78.1923 32.7173 80.3898 34.3082 83.3031 34.3082ZM84.2378 31.6633C82.7364 31.6633 81.6625 30.9772 81.6625 29.6548C81.6625 28.2727 82.8656 27.696 84.4764 27.4673C85.421 27.338 87.3102 27.0994 87.7776 26.7215V28.5213C87.7776 30.2215 86.4054 31.6633 84.2378 31.6633Z" fill="#101828"/>
<path d="M102.613 18.7272H99.6V15.0681H96.0006V18.7272H93.833V21.5113H96.0006V30.0028C95.9807 32.8764 98.0687 34.2883 100.773 34.2088C101.797 34.1789 102.503 33.9801 102.891 33.8508L102.285 31.0369C102.086 31.0866 101.678 31.1761 101.231 31.1761C100.326 31.1761 99.6 30.8579 99.6 29.4062V21.5113H102.613V18.7272Z" fill="#101828"/>
<path d="M110.018 34.3082C112.414 34.3082 113.846 33.1846 114.502 31.9019H114.622V34H118.082V23.7784C118.082 19.7414 114.791 18.5284 111.877 18.5284C108.666 18.5284 106.2 19.9602 105.404 22.7443L108.765 23.2215C109.123 22.1775 110.137 21.2826 111.897 21.2826C113.568 21.2826 114.482 22.1377 114.482 23.6392V23.6988C114.482 24.7329 113.399 24.7826 110.704 25.071C107.741 25.3892 104.907 26.2741 104.907 29.7144C104.907 32.7173 107.105 34.3082 110.018 34.3082ZM110.953 31.6633C109.451 31.6633 108.377 30.9772 108.377 29.6548C108.377 28.2727 109.58 27.696 111.191 27.4673C112.136 27.338 114.025 27.0994 114.492 26.7215V28.5213C114.492 30.2215 113.12 31.6633 110.953 31.6633Z" fill="#101828"/>
<path d="M125.301 13.6363H121.701V34H125.301V13.6363Z" fill="#101828"/>
<path d="M135.664 34.2983C140.138 34.2983 142.982 31.1463 142.982 26.4233C142.982 21.6903 140.138 18.5284 135.664 18.5284C131.189 18.5284 128.346 21.6903 128.346 26.4233C128.346 31.1463 131.189 34.2983 135.664 34.2983ZM135.684 31.4147C133.208 31.4147 131.995 29.2073 131.995 26.4133C131.995 23.6193 133.208 21.3821 135.684 21.3821C138.12 21.3821 139.333 23.6193 139.333 26.4133C139.333 29.2073 138.12 31.4147 135.684 31.4147Z" fill="#101828"/>
<path d="M152.679 40.0454C156.806 40.0454 159.848 38.1562 159.848 34.2485V18.7272H156.298V21.2528H156.1C155.553 20.1491 154.409 18.5284 151.715 18.5284C148.185 18.5284 145.411 21.2926 145.411 26.3139C145.411 31.2954 148.185 33.7812 151.705 33.7812C154.32 33.7812 155.543 32.3792 156.1 31.2556H156.279V34.1491C156.279 36.3963 154.787 37.321 152.739 37.321C150.571 37.321 149.617 36.2968 149.179 35.4019L145.938 36.1875C146.594 38.3252 148.791 40.0454 152.679 40.0454ZM152.709 30.9573C150.333 30.9573 149.08 29.1079 149.08 26.294C149.08 23.5198 150.313 21.4815 152.709 21.4815C155.026 21.4815 156.298 23.4005 156.298 26.294C156.298 29.2073 155.006 30.9573 152.709 30.9573Z" fill="#101828"/>
</svg>
