<svg width="903" height="216" viewBox="0 0 903 216" fill="none" xmlns="http://www.w3.org/2000/svg">
<line x1="1.5" y1="11" x2="901.5" y2="11" stroke="#F2F4F7" stroke-linecap="round"/>
<line x1="1.5" y1="48.7002" x2="901.5" y2="48.7002" stroke="#F2F4F7" stroke-linecap="round"/>
<line x1="1.5" y1="83.8999" x2="901.5" y2="83.8999" stroke="#F2F4F7" stroke-linecap="round"/>
<line x1="1.5" y1="119.1" x2="901.5" y2="119.1" stroke="#F2F4F7" stroke-linecap="round"/>
<line x1="1.5" y1="154.3" x2="901.5" y2="154.3" stroke="#F2F4F7" stroke-linecap="round"/>
<line x1="1.5" y1="189.5" x2="901.5" y2="189.5" stroke="#F2F4F7" stroke-linecap="round"/>
<path d="M29.7493 202.273V208.511C29.7493 209.598 29.2294 210.182 28.3175 210.182C27.4865 210.182 26.8857 209.696 26.8857 208.955H25.8459C25.8459 210.297 26.8857 211.119 28.3175 211.119C29.8345 211.119 30.8061 210.186 30.8061 208.511V202.273H29.7493ZM34.7138 211.153C35.8558 211.153 36.4524 210.54 36.657 210.114H36.7081V211H37.7138V206.688C37.7138 204.608 36.1286 204.369 35.2933 204.369C34.3047 204.369 33.1797 204.71 32.6683 205.903L33.6229 206.244C33.8445 205.767 34.3686 205.256 35.3274 205.256C36.2521 205.256 36.7081 205.746 36.7081 206.585V206.619C36.7081 207.105 36.2138 207.062 35.0206 207.216C33.8061 207.374 32.4808 207.642 32.4808 209.142C32.4808 210.42 33.4695 211.153 34.7138 211.153ZM34.8672 210.25C34.0661 210.25 33.4865 209.892 33.4865 209.193C33.4865 208.426 34.1854 208.188 34.9695 208.085C35.3956 208.034 36.5376 207.915 36.7081 207.71V208.631C36.7081 209.449 36.0604 210.25 34.8672 210.25ZM40.555 207.062C40.555 205.92 41.2624 205.273 42.2255 205.273C43.1587 205.273 43.7255 205.882 43.7255 206.909V211H44.7312V206.841C44.7312 205.17 43.8406 204.369 42.5153 204.369C41.5266 204.369 40.913 204.812 40.6062 205.477H40.521V204.455H39.5494V211H40.555V207.062Z" fill="#667085"/>
<path d="M101.148 211H102.204V207.097H105.989V206.159H102.204V203.21H106.381V202.273H101.148V211ZM110.318 211.136C111.648 211.136 112.619 210.472 112.926 209.483L111.954 209.21C111.699 209.892 111.106 210.233 110.318 210.233C109.138 210.233 108.324 209.47 108.277 208.068H113.028V207.642C113.028 205.205 111.579 204.369 110.216 204.369C108.443 204.369 107.267 205.767 107.267 207.778C107.267 209.79 108.426 211.136 110.318 211.136ZM108.277 207.199C108.345 206.18 109.065 205.273 110.216 205.273C111.307 205.273 112.006 206.091 112.006 207.199H108.277ZM114.695 211H115.666V209.994H115.785C116.007 210.352 116.433 211.136 117.695 211.136C119.331 211.136 120.473 209.824 120.473 207.744C120.473 205.682 119.331 204.369 117.677 204.369C116.399 204.369 116.007 205.153 115.785 205.494H115.7V202.273H114.695V211ZM115.683 207.727C115.683 206.261 116.331 205.273 117.558 205.273C118.837 205.273 119.467 206.347 119.467 207.727C119.467 209.125 118.82 210.233 117.558 210.233C116.348 210.233 115.683 209.21 115.683 207.727Z" fill="#667085"/>
<path d="M176.288 202.273V211H177.276V204.369H177.361L180.089 211H181.043L183.77 204.369H183.856V211H184.844V202.273H183.583L180.617 209.517H180.515L177.549 202.273H176.288ZM188.753 211.153C189.895 211.153 190.492 210.54 190.696 210.114H190.747V211H191.753V206.688C191.753 204.608 190.168 204.369 189.333 204.369C188.344 204.369 187.219 204.71 186.708 205.903L187.662 206.244C187.884 205.767 188.408 205.256 189.367 205.256C190.291 205.256 190.747 205.746 190.747 206.585V206.619C190.747 207.105 190.253 207.062 189.06 207.216C187.845 207.374 186.52 207.642 186.52 209.142C186.52 210.42 187.509 211.153 188.753 211.153ZM188.906 210.25C188.105 210.25 187.526 209.892 187.526 209.193C187.526 208.426 188.225 208.188 189.009 208.085C189.435 208.034 190.577 207.915 190.747 207.71V208.631C190.747 209.449 190.1 210.25 188.906 210.25ZM193.589 211H194.594V206.858C194.594 205.972 195.293 205.324 196.248 205.324C196.516 205.324 196.793 205.375 196.861 205.392V204.369C196.746 204.361 196.482 204.352 196.333 204.352C195.549 204.352 194.867 204.795 194.628 205.443H194.56V204.455H193.589V211Z" fill="#667085"/>
<path d="M252.744 211L253.622 208.528H257.15L258.028 211H259.136L255.932 202.273H254.841L251.636 211H252.744ZM253.954 207.591L255.352 203.653H255.42L256.818 207.591H253.954ZM260.359 213.455H261.365V209.994H261.45C261.672 210.352 262.098 211.136 263.359 211.136C264.996 211.136 266.138 209.824 266.138 207.744C266.138 205.682 264.996 204.369 263.342 204.369C262.064 204.369 261.672 205.153 261.45 205.494H261.331V204.455H260.359V213.455ZM261.348 207.727C261.348 206.261 261.996 205.273 263.223 205.273C264.501 205.273 265.132 206.347 265.132 207.727C265.132 209.125 264.484 210.233 263.223 210.233C262.013 210.233 261.348 209.21 261.348 207.727ZM267.672 211H268.677V206.858C268.677 205.972 269.376 205.324 270.331 205.324C270.599 205.324 270.876 205.375 270.944 205.392V204.369C270.829 204.361 270.565 204.352 270.416 204.352C269.632 204.352 268.95 204.795 268.711 205.443H268.643V204.455H267.672V211Z" fill="#667085"/>
<path d="M326.473 202.273V211H327.462V204.369H327.547L330.274 211H331.229L333.956 204.369H334.042V211H335.03V202.273H333.769L330.803 209.517H330.701L327.735 202.273H326.473ZM338.939 211.153C340.081 211.153 340.678 210.54 340.882 210.114H340.933V211H341.939V206.688C341.939 204.608 340.354 204.369 339.518 204.369C338.53 204.369 337.405 204.71 336.893 205.903L337.848 206.244C338.07 205.767 338.594 205.256 339.553 205.256C340.477 205.256 340.933 205.746 340.933 206.585V206.619C340.933 207.105 340.439 207.062 339.246 207.216C338.031 207.374 336.706 207.642 336.706 209.142C336.706 210.42 337.695 211.153 338.939 211.153ZM339.092 210.25C338.291 210.25 337.712 209.892 337.712 209.193C337.712 208.426 338.41 208.188 339.195 208.085C339.621 208.034 340.763 207.915 340.933 207.71V208.631C340.933 209.449 340.285 210.25 339.092 210.25ZM344.188 213.455C345.095 213.455 345.735 212.973 346.114 211.955L348.901 204.472L347.801 204.455L345.995 209.67H345.926L344.12 204.455H343.029L345.449 211.034L345.262 211.545C344.895 212.543 344.443 212.636 343.711 212.449L343.455 213.335C343.557 213.386 343.847 213.455 344.188 213.455Z" fill="#667085"/>
<path d="M408.098 202.273V208.511C408.098 209.598 407.579 210.182 406.667 210.182C405.836 210.182 405.235 209.696 405.235 208.955H404.195C404.195 210.297 405.235 211.119 406.667 211.119C408.184 211.119 409.155 210.186 409.155 208.511V202.273H408.098ZM415.262 208.324C415.262 209.551 414.324 210.114 413.574 210.114C412.739 210.114 412.142 209.5 412.142 208.545V204.455H411.137V208.614C411.137 210.284 412.023 211.085 413.25 211.085C414.239 211.085 414.887 210.557 415.194 209.892H415.262V211H416.267V204.455H415.262V208.324ZM419.115 207.062C419.115 205.92 419.822 205.273 420.786 205.273C421.719 205.273 422.286 205.882 422.286 206.909V211H423.291V206.841C423.291 205.17 422.401 204.369 421.075 204.369C420.087 204.369 419.473 204.812 419.166 205.477H419.081V204.455H418.109V211H419.115V207.062Z" fill="#667085"/>
<path d="M483.275 202.273V208.511C483.275 209.598 482.755 210.182 481.843 210.182C481.012 210.182 480.412 209.696 480.412 208.955H479.372C479.372 210.297 480.412 211.119 481.843 211.119C483.36 211.119 484.332 210.186 484.332 208.511V202.273H483.275ZM490.439 208.324C490.439 209.551 489.501 210.114 488.751 210.114C487.916 210.114 487.319 209.5 487.319 208.545V204.455H486.314V208.614C486.314 210.284 487.2 211.085 488.427 211.085C489.416 211.085 490.064 210.557 490.37 209.892H490.439V211H491.444V204.455H490.439V208.324ZM494.292 202.273H493.286V211H494.292V202.273Z" fill="#667085"/>
<path d="M551.354 211L552.232 208.528H555.76L556.638 211H557.746L554.541 202.273H553.45L550.246 211H551.354ZM552.564 207.591L553.962 203.653H554.03L555.428 207.591H552.564ZM563.094 208.324C563.094 209.551 562.156 210.114 561.406 210.114C560.571 210.114 559.974 209.5 559.974 208.545V204.455H558.969V208.614C558.969 210.284 559.855 211.085 561.082 211.085C562.071 211.085 562.719 210.557 563.026 209.892H563.094V211H564.099V204.455H563.094V208.324ZM568.583 213.591C570.152 213.591 571.413 212.875 571.413 211.188V204.455H570.441V205.494H570.339C570.118 205.153 569.708 204.369 568.43 204.369C566.777 204.369 565.635 205.682 565.635 207.693C565.635 209.739 566.828 210.898 568.413 210.898C569.691 210.898 570.101 210.148 570.322 209.79H570.407V211.119C570.407 212.21 569.64 212.705 568.583 212.705C567.395 212.705 566.977 212.078 566.708 211.716L565.907 212.278C566.316 212.964 567.122 213.591 568.583 213.591ZM568.549 209.994C567.288 209.994 566.64 209.04 566.64 207.676C566.64 206.347 567.271 205.273 568.549 205.273C569.777 205.273 570.424 206.261 570.424 207.676C570.424 209.125 569.76 209.994 568.549 209.994Z" fill="#667085"/>
<path d="M632.582 204.455H633.605C633.558 203.138 632.344 202.153 630.656 202.153C628.986 202.153 627.673 203.125 627.673 204.591C627.673 205.767 628.525 206.466 629.889 206.858L630.963 207.165C631.883 207.42 632.702 207.744 632.702 208.614C632.702 209.568 631.781 210.199 630.571 210.199C629.531 210.199 628.611 209.739 628.525 208.75H627.435C627.537 210.182 628.696 211.153 630.571 211.153C632.582 211.153 633.724 210.045 633.724 208.631C633.724 206.994 632.173 206.466 631.27 206.227L630.383 205.989C629.736 205.818 628.696 205.477 628.696 204.54C628.696 203.705 629.463 203.091 630.622 203.091C631.679 203.091 632.48 203.594 632.582 204.455ZM638.07 211.136C639.399 211.136 640.371 210.472 640.678 209.483L639.706 209.21C639.45 209.892 638.858 210.233 638.07 210.233C636.889 210.233 636.075 209.47 636.029 208.068H640.78V207.642C640.78 205.205 639.331 204.369 637.968 204.369C636.195 204.369 635.019 205.767 635.019 207.778C635.019 209.79 636.178 211.136 638.07 211.136ZM636.029 207.199C636.097 206.18 636.817 205.273 637.968 205.273C639.058 205.273 639.757 206.091 639.757 207.199H636.029ZM642.31 213.455H643.316V209.994H643.401C643.622 210.352 644.048 211.136 645.31 211.136C646.946 211.136 648.088 209.824 648.088 207.744C648.088 205.682 646.946 204.369 645.293 204.369C644.014 204.369 643.622 205.153 643.401 205.494H643.281V204.455H642.31V213.455ZM643.298 207.727C643.298 206.261 643.946 205.273 645.173 205.273C646.452 205.273 647.083 206.347 647.083 207.727C647.083 209.125 646.435 210.233 645.173 210.233C643.963 210.233 643.298 209.21 643.298 207.727Z" fill="#667085"/>
<path d="M711.637 206.636C711.637 203.875 710.018 202.153 707.785 202.153C705.552 202.153 703.932 203.875 703.932 206.636C703.932 209.398 705.552 211.119 707.785 211.119C710.018 211.119 711.637 209.398 711.637 206.636ZM710.614 206.636C710.614 208.903 709.37 210.131 707.785 210.131C706.2 210.131 704.955 208.903 704.955 206.636C704.955 204.369 706.2 203.142 707.785 203.142C709.37 203.142 710.614 204.369 710.614 206.636ZM715.937 211.136C717.386 211.136 718.34 210.25 718.511 209.091H717.505C717.317 209.807 716.721 210.233 715.937 210.233C714.744 210.233 713.976 209.244 713.976 207.727C713.976 206.244 714.761 205.273 715.937 205.273C716.823 205.273 717.351 205.818 717.505 206.415H718.511C718.34 205.188 717.3 204.369 715.92 204.369C714.147 204.369 712.971 205.767 712.971 207.761C712.971 209.722 714.096 211.136 715.937 211.136ZM722.827 204.455H721.43V202.886H720.424V204.455H719.435V205.307H720.424V209.398C720.424 210.54 721.344 211.085 722.197 211.085C722.572 211.085 722.81 211.017 722.947 210.966L722.742 210.062C722.657 210.08 722.521 210.114 722.299 210.114C721.856 210.114 721.43 209.977 721.43 209.125V205.307H722.827V204.455Z" fill="#667085"/>
<path d="M786.066 202.273H785.026V209.142H784.941L780.168 202.273H779.145V211H780.202V204.148H780.287L785.043 211H786.066V202.273ZM790.703 211.136C792.476 211.136 793.669 209.79 793.669 207.761C793.669 205.716 792.476 204.369 790.703 204.369C788.931 204.369 787.737 205.716 787.737 207.761C787.737 209.79 788.931 211.136 790.703 211.136ZM790.703 210.233C789.357 210.233 788.743 209.074 788.743 207.761C788.743 206.449 789.357 205.273 790.703 205.273C792.05 205.273 792.664 206.449 792.664 207.761C792.664 209.074 792.05 210.233 790.703 210.233ZM800.322 204.455H799.231L797.425 209.67H797.356L795.55 204.455H794.459L796.879 211H797.902L800.322 204.455Z" fill="#667085"/>
<path d="M859.094 211C861.753 211 863.253 209.347 863.253 206.619C863.253 203.909 861.753 202.273 859.213 202.273H856.401V211H859.094ZM857.457 210.062V203.21H859.145C861.19 203.21 862.23 204.506 862.23 206.619C862.23 208.75 861.19 210.062 859.026 210.062H857.457ZM867.634 211.136C868.963 211.136 869.935 210.472 870.241 209.483L869.27 209.21C869.014 209.892 868.422 210.233 867.634 210.233C866.453 210.233 865.639 209.47 865.592 208.068H870.344V207.642C870.344 205.205 868.895 204.369 867.531 204.369C865.759 204.369 864.582 205.767 864.582 207.778C864.582 209.79 865.741 211.136 867.634 211.136ZM865.592 207.199C865.661 206.18 866.381 205.273 867.531 205.273C868.622 205.273 869.321 206.091 869.321 207.199H865.592ZM874.533 211.136C875.982 211.136 876.936 210.25 877.107 209.091H876.101C875.913 209.807 875.317 210.233 874.533 210.233C873.339 210.233 872.572 209.244 872.572 207.727C872.572 206.244 873.357 205.273 874.533 205.273C875.419 205.273 875.947 205.818 876.101 206.415H877.107C876.936 205.188 875.896 204.369 874.516 204.369C872.743 204.369 871.567 205.767 871.567 207.761C871.567 209.722 872.692 211.136 874.533 211.136Z" fill="#667085"/>
<g style="mix-blend-mode:multiply" opacity="0.1">
<path d="M21.4193 81.7894L1 85V192H902V46L882.857 51.3323H862.438L852.866 56.3253H840.104C836.701 57.1574 829.639 58.8218 828.618 58.8218C827.597 58.8218 820.961 59.8204 817.771 60.3197L790.332 61.8175L774.38 63.8147L748.855 61.8175L735.455 60.3197L716.312 63.8147H696.531L679.94 60.3197C673.56 59.8204 660.542 58.8218 659.521 58.8218C658.5 58.8218 650.162 57.8232 646.121 57.3239H635.911L611.664 58.8218L590.606 60.3197L581.035 63.8147L552.32 65.3126L537.644 66.8105L521.053 69.307L505.101 75.2985H498.081L478.938 73.8006L460.433 69.307L444.481 66.8105H434.909L418.319 65.3126L394.709 66.8105H372.375L350.042 69.307L327.708 72.3028L311.118 75.2985L293.251 76.7964L269.003 75.2985L249.86 76.7964L230.717 78.2943L212.85 76.7964L188.602 80.2915L168.183 78.2943L147.763 80.2915H127.982L106.925 81.7894H85.2295L63.534 83.2873L42.4766 80.2915L21.4193 81.7894Z" fill="url(#paint0_linear_7387_427571)"/>
</g>
<path d="M1 85L21.4193 81.7894L42.4766 80.2915L63.534 83.2873L85.2295 81.7894H106.925L127.982 80.2915H147.763L168.183 78.2943L188.602 80.2915L212.85 76.7964L230.717 78.2943L249.86 76.7964L269.003 75.2985L293.251 76.7964L311.118 75.2985L327.708 72.3028L350.042 69.307L372.375 66.8105H394.709L418.319 65.3126L434.909 66.8105H444.481L460.433 69.307L478.938 73.8006L498.081 75.2985H505.101L521.053 69.307L537.644 66.8105L552.32 65.3126L581.035 63.8147L590.606 60.3197L611.664 58.8218L635.911 57.3239H646.121C650.162 57.8232 658.5 58.8218 659.521 58.8218C660.542 58.8218 673.56 59.8204 679.941 60.3197L696.531 63.8147H716.312L735.455 60.3197L748.856 61.8175L774.38 63.8147L790.332 61.8175L817.771 60.3197C820.961 59.8204 827.597 58.8218 828.618 58.8218C829.639 58.8218 836.701 57.1574 840.104 56.3253H852.866L862.438 51.3323H882.857L902 46" stroke="#7F56D9" stroke-width="2" stroke-linecap="round" stroke-linejoin="round"/>
<path d="M1 123.842L21.4193 121.797L42.4766 120.843L63.534 122.751L85.2295 121.797H106.925L127.982 120.843H147.763L168.183 119.571L188.602 120.843L212.85 118.617L230.717 119.571L249.86 118.617L269.003 117.663L293.251 118.617L311.118 117.663L327.708 115.754L350.042 113.846L372.375 112.256H394.709L418.319 111.302L434.909 112.256H444.481L460.433 113.846L478.938 116.709L498.081 117.663H505.101L521.053 113.846L537.644 112.256L552.32 111.302L581.035 110.348L590.606 108.121L611.664 107.167L635.911 106.213H646.121C650.162 106.531 658.5 107.167 659.521 107.167C660.542 107.167 673.56 107.803 679.941 108.121L696.531 110.348H716.312L735.455 108.121L748.855 109.076L774.38 110.348L790.332 109.076L817.771 108.121C820.961 107.803 827.597 107.167 828.618 107.167C829.639 107.167 836.701 106.107 840.104 105.577H852.866L862.438 102.397H882.857L902 99" stroke="#B692F6" stroke-width="2" stroke-linecap="round" stroke-linejoin="round"/>
<defs>
<linearGradient id="paint0_linear_7387_427571" x1="451.5" y1="46" x2="451.5" y2="185.5" gradientUnits="userSpaceOnUse">
<stop stop-color="#7F56D9"/>
<stop offset="1" stop-color="#7F56D9" stop-opacity="0"/>
</linearGradient>
</defs>
</svg>
