<svg width="48" height="48" viewBox="0 0 48 48" fill="none" xmlns="http://www.w3.org/2000/svg">
<path d="M0 6C0 2.68629 2.68629 0 6 0H42C45.3137 0 48 2.68629 48 6V42C48 45.3137 45.3137 48 42 48H6C2.68629 48 0 45.3137 0 42V6Z" fill="#6941C6"/>
<path d="M21 34V24H27V34M15 21L24 14L33 21V32C33 32.5304 32.7893 33.0391 32.4142 33.4142C32.0391 33.7893 31.5304 34 31 34H17C16.4696 34 15.9609 33.7893 15.5858 33.4142C15.2107 33.0391 15 32.5304 15 32V21Z" stroke="#D6BBFB" stroke-width="2" stroke-linecap="round" stroke-linejoin="round"/>
</svg>
