<svg width="40" height="40" viewBox="0 0 40 40" fill="none" xmlns="http://www.w3.org/2000/svg">
<path d="M0 20C0 8.95431 8.95431 0 20 0V0C31.0457 0 40 8.95431 40 20V20C40 31.0457 31.0457 40 20 40V40C8.95431 40 0 31.0457 0 20V20Z" fill="#E0EAFF"/>
<path d="M12.5 15.0001L15 11.6667H25L27.5 15.0001M12.5 15.0001V26.6667C12.5 27.1088 12.6756 27.5327 12.9882 27.8453C13.3007 28.1578 13.7246 28.3334 14.1667 28.3334H25.8333C26.2754 28.3334 26.6993 28.1578 27.0118 27.8453C27.3244 27.5327 27.5 27.1088 27.5 26.6667V15.0001M12.5 15.0001H27.5M23.3333 18.3334C23.3333 19.2175 22.9821 20.0653 22.357 20.6904C21.7319 21.3156 20.8841 21.6667 20 21.6667C19.1159 21.6667 18.2681 21.3156 17.643 20.6904C17.0179 20.0653 16.6667 19.2175 16.6667 18.3334" stroke="#3538CD" stroke-width="1.66667" stroke-linecap="round" stroke-linejoin="round"/>
</svg>
