<svg width="40" height="40" viewBox="0 0 40 40" fill="none" xmlns="http://www.w3.org/2000/svg">
<path d="M0 20C0 8.95431 8.95431 0 20 0C31.0457 0 40 8.95431 40 20C40 31.0457 31.0457 40 20 40C8.95431 40 0 31.0457 0 20Z" fill="#D1E9FF"/>
<path d="M16.6667 27.5H23.3334M20.0001 24.1667V27.5M13.3334 12.5H26.6667C27.5872 12.5 28.3334 13.2462 28.3334 14.1667V22.5C28.3334 23.4205 27.5872 24.1667 26.6667 24.1667H13.3334C12.4129 24.1667 11.6667 23.4205 11.6667 22.5V14.1667C11.6667 13.2462 12.4129 12.5 13.3334 12.5Z" stroke="#175CD3" stroke-width="1.66667" stroke-linecap="round" stroke-linejoin="round"/>
</svg>
