<svg width="965" height="216" viewBox="0 0 965 216" fill="none" xmlns="http://www.w3.org/2000/svg">
<line x1="32.5" y1="11" x2="932.5" y2="11" stroke="#F2F4F7" stroke-linecap="round"/>
<line x1="32.5" y1="48.7002" x2="932.5" y2="48.7002" stroke="#F2F4F7" stroke-linecap="round"/>
<line x1="32.5" y1="83.8999" x2="932.5" y2="83.8999" stroke="#F2F4F7" stroke-linecap="round"/>
<line x1="32.5" y1="119.1" x2="932.5" y2="119.1" stroke="#F2F4F7" stroke-linecap="round"/>
<line x1="32.5" y1="154.3" x2="932.5" y2="154.3" stroke="#F2F4F7" stroke-linecap="round"/>
<line x1="32.5" y1="189.5" x2="932.5" y2="189.5" stroke="#F2F4F7" stroke-linecap="round"/>
<path d="M60.7493 202.273V208.511C60.7493 209.598 60.2294 210.182 59.3175 210.182C58.4865 210.182 57.8857 209.696 57.8857 208.955H56.8459C56.8459 210.297 57.8857 211.119 59.3175 211.119C60.8345 211.119 61.8061 210.186 61.8061 208.511V202.273H60.7493ZM65.7138 211.153C66.8558 211.153 67.4524 210.54 67.657 210.114H67.7081V211H68.7138V206.688C68.7138 204.608 67.1286 204.369 66.2933 204.369C65.3047 204.369 64.1797 204.71 63.6683 205.903L64.6229 206.244C64.8445 205.767 65.3686 205.256 66.3274 205.256C67.2521 205.256 67.7081 205.746 67.7081 206.585V206.619C67.7081 207.105 67.2138 207.062 66.0206 207.216C64.8061 207.374 63.4808 207.642 63.4808 209.142C63.4808 210.42 64.4695 211.153 65.7138 211.153ZM65.8672 210.25C65.0661 210.25 64.4865 209.892 64.4865 209.193C64.4865 208.426 65.1854 208.188 65.9695 208.085C66.3956 208.034 67.5376 207.915 67.7081 207.71V208.631C67.7081 209.449 67.0604 210.25 65.8672 210.25ZM71.555 207.062C71.555 205.92 72.2624 205.273 73.2255 205.273C74.1587 205.273 74.7255 205.882 74.7255 206.909V211H75.7312V206.841C75.7312 205.17 74.8406 204.369 73.5153 204.369C72.5266 204.369 71.913 204.812 71.6062 205.477H71.521V204.455H70.5494V211H71.555V207.062Z" fill="#667085"/>
<path d="M132.148 211H133.204V207.097H136.989V206.159H133.204V203.21H137.381V202.273H132.148V211ZM141.318 211.136C142.648 211.136 143.619 210.472 143.926 209.483L142.954 209.21C142.699 209.892 142.106 210.233 141.318 210.233C140.138 210.233 139.324 209.47 139.277 208.068H144.028V207.642C144.028 205.205 142.579 204.369 141.216 204.369C139.443 204.369 138.267 205.767 138.267 207.778C138.267 209.79 139.426 211.136 141.318 211.136ZM139.277 207.199C139.345 206.18 140.065 205.273 141.216 205.273C142.307 205.273 143.006 206.091 143.006 207.199H139.277ZM145.695 211H146.666V209.994H146.785C147.007 210.352 147.433 211.136 148.695 211.136C150.331 211.136 151.473 209.824 151.473 207.744C151.473 205.682 150.331 204.369 148.677 204.369C147.399 204.369 147.007 205.153 146.785 205.494H146.7V202.273H145.695V211ZM146.683 207.727C146.683 206.261 147.331 205.273 148.558 205.273C149.837 205.273 150.467 206.347 150.467 207.727C150.467 209.125 149.82 210.233 148.558 210.233C147.348 210.233 146.683 209.21 146.683 207.727Z" fill="#667085"/>
<path d="M207.288 202.273V211H208.276V204.369H208.361L211.089 211H212.043L214.77 204.369H214.856V211H215.844V202.273H214.583L211.617 209.517H211.515L208.549 202.273H207.288ZM219.753 211.153C220.895 211.153 221.492 210.54 221.696 210.114H221.747V211H222.753V206.688C222.753 204.608 221.168 204.369 220.333 204.369C219.344 204.369 218.219 204.71 217.708 205.903L218.662 206.244C218.884 205.767 219.408 205.256 220.367 205.256C221.291 205.256 221.747 205.746 221.747 206.585V206.619C221.747 207.105 221.253 207.062 220.06 207.216C218.845 207.374 217.52 207.642 217.52 209.142C217.52 210.42 218.509 211.153 219.753 211.153ZM219.906 210.25C219.105 210.25 218.526 209.892 218.526 209.193C218.526 208.426 219.225 208.188 220.009 208.085C220.435 208.034 221.577 207.915 221.747 207.71V208.631C221.747 209.449 221.1 210.25 219.906 210.25ZM224.589 211H225.594V206.858C225.594 205.972 226.293 205.324 227.248 205.324C227.516 205.324 227.793 205.375 227.861 205.392V204.369C227.746 204.361 227.482 204.352 227.333 204.352C226.549 204.352 225.867 204.795 225.628 205.443H225.56V204.455H224.589V211Z" fill="#667085"/>
<path d="M283.744 211L284.622 208.528H288.15L289.028 211H290.136L286.932 202.273H285.841L282.636 211H283.744ZM284.954 207.591L286.352 203.653H286.42L287.818 207.591H284.954ZM291.359 213.455H292.365V209.994H292.45C292.672 210.352 293.098 211.136 294.359 211.136C295.996 211.136 297.138 209.824 297.138 207.744C297.138 205.682 295.996 204.369 294.342 204.369C293.064 204.369 292.672 205.153 292.45 205.494H292.331V204.455H291.359V213.455ZM292.348 207.727C292.348 206.261 292.996 205.273 294.223 205.273C295.501 205.273 296.132 206.347 296.132 207.727C296.132 209.125 295.484 210.233 294.223 210.233C293.013 210.233 292.348 209.21 292.348 207.727ZM298.672 211H299.677V206.858C299.677 205.972 300.376 205.324 301.331 205.324C301.599 205.324 301.876 205.375 301.944 205.392V204.369C301.829 204.361 301.565 204.352 301.416 204.352C300.632 204.352 299.95 204.795 299.711 205.443H299.643V204.455H298.672V211Z" fill="#667085"/>
<path d="M357.473 202.273V211H358.462V204.369H358.547L361.274 211H362.229L364.956 204.369H365.042V211H366.03V202.273H364.769L361.803 209.517H361.701L358.735 202.273H357.473ZM369.939 211.153C371.081 211.153 371.678 210.54 371.882 210.114H371.933V211H372.939V206.688C372.939 204.608 371.354 204.369 370.518 204.369C369.53 204.369 368.405 204.71 367.893 205.903L368.848 206.244C369.07 205.767 369.594 205.256 370.553 205.256C371.477 205.256 371.933 205.746 371.933 206.585V206.619C371.933 207.105 371.439 207.062 370.246 207.216C369.031 207.374 367.706 207.642 367.706 209.142C367.706 210.42 368.695 211.153 369.939 211.153ZM370.092 210.25C369.291 210.25 368.712 209.892 368.712 209.193C368.712 208.426 369.41 208.188 370.195 208.085C370.621 208.034 371.763 207.915 371.933 207.71V208.631C371.933 209.449 371.285 210.25 370.092 210.25ZM375.188 213.455C376.095 213.455 376.735 212.973 377.114 211.955L379.901 204.472L378.801 204.455L376.995 209.67H376.926L375.12 204.455H374.029L376.449 211.034L376.262 211.545C375.895 212.543 375.443 212.636 374.711 212.449L374.455 213.335C374.557 213.386 374.847 213.455 375.188 213.455Z" fill="#667085"/>
<path d="M439.098 202.273V208.511C439.098 209.598 438.579 210.182 437.667 210.182C436.836 210.182 436.235 209.696 436.235 208.955H435.195C435.195 210.297 436.235 211.119 437.667 211.119C439.184 211.119 440.155 210.186 440.155 208.511V202.273H439.098ZM446.262 208.324C446.262 209.551 445.324 210.114 444.574 210.114C443.739 210.114 443.142 209.5 443.142 208.545V204.455H442.137V208.614C442.137 210.284 443.023 211.085 444.25 211.085C445.239 211.085 445.887 210.557 446.194 209.892H446.262V211H447.267V204.455H446.262V208.324ZM450.115 207.062C450.115 205.92 450.822 205.273 451.786 205.273C452.719 205.273 453.286 205.882 453.286 206.909V211H454.291V206.841C454.291 205.17 453.401 204.369 452.075 204.369C451.087 204.369 450.473 204.812 450.166 205.477H450.081V204.455H449.109V211H450.115V207.062Z" fill="#667085"/>
<path d="M514.275 202.273V208.511C514.275 209.598 513.755 210.182 512.843 210.182C512.012 210.182 511.412 209.696 511.412 208.955H510.372C510.372 210.297 511.412 211.119 512.843 211.119C514.36 211.119 515.332 210.186 515.332 208.511V202.273H514.275ZM521.439 208.324C521.439 209.551 520.501 210.114 519.751 210.114C518.916 210.114 518.319 209.5 518.319 208.545V204.455H517.314V208.614C517.314 210.284 518.2 211.085 519.427 211.085C520.416 211.085 521.064 210.557 521.37 209.892H521.439V211H522.444V204.455H521.439V208.324ZM525.292 202.273H524.286V211H525.292V202.273Z" fill="#667085"/>
<path d="M582.354 211L583.232 208.528H586.76L587.638 211H588.746L585.541 202.273H584.45L581.246 211H582.354ZM583.564 207.591L584.962 203.653H585.03L586.428 207.591H583.564ZM594.094 208.324C594.094 209.551 593.156 210.114 592.406 210.114C591.571 210.114 590.974 209.5 590.974 208.545V204.455H589.969V208.614C589.969 210.284 590.855 211.085 592.082 211.085C593.071 211.085 593.719 210.557 594.026 209.892H594.094V211H595.099V204.455H594.094V208.324ZM599.583 213.591C601.152 213.591 602.413 212.875 602.413 211.188V204.455H601.441V205.494H601.339C601.118 205.153 600.708 204.369 599.43 204.369C597.777 204.369 596.635 205.682 596.635 207.693C596.635 209.739 597.828 210.898 599.413 210.898C600.691 210.898 601.101 210.148 601.322 209.79H601.407V211.119C601.407 212.21 600.64 212.705 599.583 212.705C598.395 212.705 597.977 212.078 597.708 211.716L596.907 212.278C597.316 212.964 598.122 213.591 599.583 213.591ZM599.549 209.994C598.288 209.994 597.64 209.04 597.64 207.676C597.64 206.347 598.271 205.273 599.549 205.273C600.777 205.273 601.424 206.261 601.424 207.676C601.424 209.125 600.76 209.994 599.549 209.994Z" fill="#667085"/>
<path d="M663.582 204.455H664.605C664.558 203.138 663.344 202.153 661.656 202.153C659.986 202.153 658.673 203.125 658.673 204.591C658.673 205.767 659.525 206.466 660.889 206.858L661.963 207.165C662.883 207.42 663.702 207.744 663.702 208.614C663.702 209.568 662.781 210.199 661.571 210.199C660.531 210.199 659.611 209.739 659.525 208.75H658.435C658.537 210.182 659.696 211.153 661.571 211.153C663.582 211.153 664.724 210.045 664.724 208.631C664.724 206.994 663.173 206.466 662.27 206.227L661.383 205.989C660.736 205.818 659.696 205.477 659.696 204.54C659.696 203.705 660.463 203.091 661.622 203.091C662.679 203.091 663.48 203.594 663.582 204.455ZM669.07 211.136C670.399 211.136 671.371 210.472 671.678 209.483L670.706 209.21C670.45 209.892 669.858 210.233 669.07 210.233C667.889 210.233 667.075 209.47 667.029 208.068H671.78V207.642C671.78 205.205 670.331 204.369 668.968 204.369C667.195 204.369 666.019 205.767 666.019 207.778C666.019 209.79 667.178 211.136 669.07 211.136ZM667.029 207.199C667.097 206.18 667.817 205.273 668.968 205.273C670.058 205.273 670.757 206.091 670.757 207.199H667.029ZM673.31 213.455H674.316V209.994H674.401C674.622 210.352 675.048 211.136 676.31 211.136C677.946 211.136 679.088 209.824 679.088 207.744C679.088 205.682 677.946 204.369 676.293 204.369C675.014 204.369 674.622 205.153 674.401 205.494H674.281V204.455H673.31V213.455ZM674.298 207.727C674.298 206.261 674.946 205.273 676.173 205.273C677.452 205.273 678.083 206.347 678.083 207.727C678.083 209.125 677.435 210.233 676.173 210.233C674.963 210.233 674.298 209.21 674.298 207.727Z" fill="#667085"/>
<path d="M742.637 206.636C742.637 203.875 741.018 202.153 738.785 202.153C736.552 202.153 734.932 203.875 734.932 206.636C734.932 209.398 736.552 211.119 738.785 211.119C741.018 211.119 742.637 209.398 742.637 206.636ZM741.614 206.636C741.614 208.903 740.37 210.131 738.785 210.131C737.2 210.131 735.955 208.903 735.955 206.636C735.955 204.369 737.2 203.142 738.785 203.142C740.37 203.142 741.614 204.369 741.614 206.636ZM746.937 211.136C748.386 211.136 749.34 210.25 749.511 209.091H748.505C748.317 209.807 747.721 210.233 746.937 210.233C745.744 210.233 744.976 209.244 744.976 207.727C744.976 206.244 745.761 205.273 746.937 205.273C747.823 205.273 748.351 205.818 748.505 206.415H749.511C749.34 205.188 748.3 204.369 746.92 204.369C745.147 204.369 743.971 205.767 743.971 207.761C743.971 209.722 745.096 211.136 746.937 211.136ZM753.827 204.455H752.43V202.886H751.424V204.455H750.435V205.307H751.424V209.398C751.424 210.54 752.344 211.085 753.197 211.085C753.572 211.085 753.81 211.017 753.947 210.966L753.742 210.062C753.657 210.08 753.521 210.114 753.299 210.114C752.856 210.114 752.43 209.977 752.43 209.125V205.307H753.827V204.455Z" fill="#667085"/>
<path d="M817.066 202.273H816.026V209.142H815.941L811.168 202.273H810.145V211H811.202V204.148H811.287L816.043 211H817.066V202.273ZM821.703 211.136C823.476 211.136 824.669 209.79 824.669 207.761C824.669 205.716 823.476 204.369 821.703 204.369C819.931 204.369 818.737 205.716 818.737 207.761C818.737 209.79 819.931 211.136 821.703 211.136ZM821.703 210.233C820.357 210.233 819.743 209.074 819.743 207.761C819.743 206.449 820.357 205.273 821.703 205.273C823.05 205.273 823.664 206.449 823.664 207.761C823.664 209.074 823.05 210.233 821.703 210.233ZM831.322 204.455H830.231L828.425 209.67H828.356L826.55 204.455H825.459L827.879 211H828.902L831.322 204.455Z" fill="#667085"/>
<path d="M890.094 211C892.753 211 894.253 209.347 894.253 206.619C894.253 203.909 892.753 202.273 890.213 202.273H887.401V211H890.094ZM888.457 210.062V203.21H890.145C892.19 203.21 893.23 204.506 893.23 206.619C893.23 208.75 892.19 210.062 890.026 210.062H888.457ZM898.634 211.136C899.963 211.136 900.935 210.472 901.241 209.483L900.27 209.21C900.014 209.892 899.422 210.233 898.634 210.233C897.453 210.233 896.639 209.47 896.592 208.068H901.344V207.642C901.344 205.205 899.895 204.369 898.531 204.369C896.759 204.369 895.582 205.767 895.582 207.778C895.582 209.79 896.741 211.136 898.634 211.136ZM896.592 207.199C896.661 206.18 897.381 205.273 898.531 205.273C899.622 205.273 900.321 206.091 900.321 207.199H896.592ZM905.533 211.136C906.982 211.136 907.936 210.25 908.107 209.091H907.101C906.913 209.807 906.317 210.233 905.533 210.233C904.339 210.233 903.572 209.244 903.572 207.727C903.572 206.244 904.357 205.273 905.533 205.273C906.419 205.273 906.947 205.818 907.101 206.415H908.107C907.936 205.188 906.896 204.369 905.516 204.369C903.743 204.369 902.567 205.767 902.567 207.761C902.567 209.722 903.692 211.136 905.533 211.136Z" fill="#667085"/>
<g style="mix-blend-mode:multiply" opacity="0.1">
<path d="M52.4193 81.7894L32 85V192H933V46L913.857 51.3323H893.438L883.866 56.3253H871.104C867.701 57.1574 860.639 58.8218 859.618 58.8218C858.597 58.8218 851.961 59.8204 848.771 60.3197L821.332 61.8175L805.38 63.8147L779.855 61.8175L766.455 60.3197L747.312 63.8147H727.531L710.94 60.3197C704.56 59.8204 691.542 58.8218 690.521 58.8218C689.5 58.8218 681.162 57.8232 677.121 57.3239H666.911L642.664 58.8218L621.606 60.3197L612.035 63.8147L583.32 65.3126L568.644 66.8105L552.053 69.307L536.101 75.2985H529.081L509.938 73.8006L491.433 69.307L475.481 66.8105H465.909L449.319 65.3126L425.709 66.8105H403.375L381.042 69.307L358.708 72.3028L342.118 75.2985L324.251 76.7964L300.003 75.2985L280.86 76.7964L261.717 78.2943L243.85 76.7964L219.602 80.2915L199.183 78.2943L178.763 80.2915H158.982L137.925 81.7894H116.229L94.534 83.2873L73.4766 80.2915L52.4193 81.7894Z" fill="url(#paint0_linear_7387_427569)"/>
</g>
<path d="M32 85L52.4193 81.7894L73.4766 80.2915L94.534 83.2873L116.229 81.7894H137.925L158.982 80.2915H178.763L199.183 78.2943L219.602 80.2915L243.85 76.7964L261.717 78.2943L280.86 76.7964L300.003 75.2985L324.251 76.7964L342.118 75.2985L358.708 72.3028L381.042 69.307L403.375 66.8105H425.709L449.319 65.3126L465.909 66.8105H475.481L491.433 69.307L509.938 73.8006L529.081 75.2985H536.101L552.053 69.307L568.644 66.8105L583.32 65.3126L612.035 63.8147L621.606 60.3197L642.664 58.8218L666.911 57.3239H677.121C681.162 57.8232 689.5 58.8218 690.521 58.8218C691.542 58.8218 704.56 59.8204 710.941 60.3197L727.531 63.8147H747.312L766.455 60.3197L779.856 61.8175L805.38 63.8147L821.332 61.8175L848.771 60.3197C851.961 59.8204 858.597 58.8218 859.618 58.8218C860.639 58.8218 867.701 57.1574 871.104 56.3253H883.866L893.438 51.3323H913.857L933 46" stroke="#7F56D9" stroke-width="2" stroke-linecap="round" stroke-linejoin="round"/>
<path d="M32 123.842L52.4193 121.797L73.4766 120.843L94.534 122.751L116.229 121.797H137.925L158.982 120.843H178.763L199.183 119.571L219.602 120.843L243.85 118.617L261.717 119.571L280.86 118.617L300.003 117.663L324.251 118.617L342.118 117.663L358.708 115.754L381.042 113.846L403.375 112.256H425.709L449.319 111.302L465.909 112.256H475.481L491.433 113.846L509.938 116.709L529.081 117.663H536.101L552.053 113.846L568.644 112.256L583.32 111.302L612.035 110.348L621.606 108.121L642.664 107.167L666.911 106.213H677.121C681.162 106.531 689.5 107.167 690.521 107.167C691.542 107.167 704.56 107.803 710.941 108.121L727.531 110.348H747.312L766.455 108.121L779.855 109.076L805.38 110.348L821.332 109.076L848.771 108.121C851.961 107.803 858.597 107.167 859.618 107.167C860.639 107.167 867.701 106.107 871.104 105.577H883.866L893.438 102.397H913.857L933 99" stroke="#B692F6" stroke-width="2" stroke-linecap="round" stroke-linejoin="round"/>
<defs>
<linearGradient id="paint0_linear_7387_427569" x1="482.5" y1="46" x2="482.5" y2="185.5" gradientUnits="userSpaceOnUse">
<stop stop-color="#7F56D9"/>
<stop offset="1" stop-color="#7F56D9" stop-opacity="0"/>
</linearGradient>
</defs>
</svg>
