<svg width="375" height="216" viewBox="0 0 375 216" fill="none" xmlns="http://www.w3.org/2000/svg">
<line x1="16.5" y1="11" x2="358.5" y2="11" stroke="#F2F4F7" stroke-linecap="round"/>
<line x1="16.5" y1="48.7" x2="358.5" y2="48.7" stroke="#F2F4F7" stroke-linecap="round"/>
<line x1="16.5" y1="83.8999" x2="358.5" y2="83.8999" stroke="#F2F4F7" stroke-linecap="round"/>
<line x1="16.5" y1="119.1" x2="358.5" y2="119.1" stroke="#F2F4F7" stroke-linecap="round"/>
<line x1="16.5" y1="154.3" x2="358.5" y2="154.3" stroke="#F2F4F7" stroke-linecap="round"/>
<line x1="16.5" y1="189.5" x2="358.5" y2="189.5" stroke="#F2F4F7" stroke-linecap="round"/>
<path d="M29.1009 202.273V208.511C29.1009 209.598 28.581 210.182 27.669 210.182C26.8381 210.182 26.2372 209.696 26.2372 208.955H25.1974C25.1974 210.297 26.2372 211.119 27.669 211.119C29.1861 211.119 30.1577 210.186 30.1577 208.511V202.273H29.1009ZM34.0653 211.153C35.2074 211.153 35.804 210.54 36.0085 210.114H36.0597V211H37.0653V206.688C37.0653 204.608 35.4801 204.369 34.6449 204.369C33.6562 204.369 32.5312 204.71 32.0199 205.903L32.9744 206.244C33.196 205.767 33.7202 205.256 34.679 205.256C35.6037 205.256 36.0597 205.746 36.0597 206.585V206.619C36.0597 207.105 35.5653 207.062 34.3722 207.216C33.1577 207.374 31.8324 207.642 31.8324 209.142C31.8324 210.42 32.821 211.153 34.0653 211.153ZM34.2188 210.25C33.4176 210.25 32.8381 209.892 32.8381 209.193C32.8381 208.426 33.5369 208.188 34.321 208.085C34.7472 208.034 35.8892 207.915 36.0597 207.71V208.631C36.0597 209.449 35.4119 210.25 34.2188 210.25ZM39.9066 207.062C39.9066 205.92 40.614 205.273 41.5771 205.273C42.5103 205.273 43.0771 205.882 43.0771 206.909V211H44.0827V206.841C44.0827 205.17 43.1921 204.369 41.8668 204.369C40.8782 204.369 40.2646 204.812 39.9577 205.477H39.8725V204.455H38.9009V211H39.9066V207.062Z" fill="#667085"/>
<path d="M75.3211 202.273V211H76.3097V204.369H76.395L79.1222 211H80.0768L82.8041 204.369H82.8893V211H83.8779V202.273H82.6166L79.6506 209.517H79.5484L76.5825 202.273H75.3211ZM87.7867 211.153C88.9287 211.153 89.5253 210.54 89.7298 210.114H89.781V211H90.7867V206.688C90.7867 204.608 89.2014 204.369 88.3662 204.369C87.3776 204.369 86.2526 204.71 85.7412 205.903L86.6957 206.244C86.9173 205.767 87.4415 205.256 88.4003 205.256C89.325 205.256 89.781 205.746 89.781 206.585V206.619C89.781 207.105 89.2867 207.062 88.0935 207.216C86.879 207.374 85.5537 207.642 85.5537 209.142C85.5537 210.42 86.5423 211.153 87.7867 211.153ZM87.9401 210.25C87.1389 210.25 86.5594 209.892 86.5594 209.193C86.5594 208.426 87.2582 208.188 88.0423 208.085C88.4685 208.034 89.6105 207.915 89.781 207.71V208.631C89.781 209.449 89.1332 210.25 87.9401 210.25ZM92.6222 211H93.6279V206.858C93.6279 205.972 94.3268 205.324 95.2813 205.324C95.5498 205.324 95.8268 205.375 95.895 205.392V204.369C95.7799 204.361 95.5157 204.352 95.3666 204.352C94.5825 204.352 93.9006 204.795 93.662 205.443H93.5938V204.455H92.6222V211Z" fill="#667085"/>
<path d="M126.496 202.273V211H127.484V204.369H127.57L130.297 211H131.251L133.979 204.369H134.064V211H135.052V202.273H133.791L130.825 209.517H130.723L127.757 202.273H126.496ZM138.961 211.153C140.103 211.153 140.7 210.54 140.904 210.114H140.956V211H141.961V206.688C141.961 204.608 140.376 204.369 139.541 204.369C138.552 204.369 137.427 204.71 136.916 205.903L137.87 206.244C138.092 205.767 138.616 205.256 139.575 205.256C140.5 205.256 140.956 205.746 140.956 206.585V206.619C140.956 207.105 140.461 207.062 139.268 207.216C138.054 207.374 136.728 207.642 136.728 209.142C136.728 210.42 137.717 211.153 138.961 211.153ZM139.115 210.25C138.313 210.25 137.734 209.892 137.734 209.193C137.734 208.426 138.433 208.188 139.217 208.085C139.643 208.034 140.785 207.915 140.956 207.71V208.631C140.956 209.449 140.308 210.25 139.115 210.25ZM144.21 213.455C145.118 213.455 145.757 212.973 146.136 211.955L148.923 204.472L147.824 204.455L146.017 209.67H145.949L144.142 204.455H143.051L145.472 211.034L145.284 211.545C144.918 212.543 144.466 212.636 143.733 212.449L143.477 213.335C143.579 213.386 143.869 213.455 144.21 213.455Z" fill="#667085"/>
<path d="M183.562 202.273V208.511C183.562 209.598 183.042 210.182 182.13 210.182C181.299 210.182 180.698 209.696 180.698 208.955H179.658C179.658 210.297 180.698 211.119 182.13 211.119C183.647 211.119 184.619 210.186 184.619 208.511V202.273H183.562ZM190.725 208.324C190.725 209.551 189.788 210.114 189.038 210.114C188.202 210.114 187.606 209.5 187.606 208.545V204.455H186.6V208.614C186.6 210.284 187.487 211.085 188.714 211.085C189.702 211.085 190.35 210.557 190.657 209.892H190.725V211H191.731V204.455H190.725V208.324ZM194.578 202.273H193.573V211H194.578V202.273Z" fill="#667085"/>
<path d="M230.547 204.455H231.57C231.523 203.138 230.308 202.153 228.621 202.153C226.95 202.153 225.638 203.125 225.638 204.591C225.638 205.767 226.49 206.466 227.854 206.858L228.928 207.165C229.848 207.42 230.666 207.744 230.666 208.614C230.666 209.568 229.746 210.199 228.536 210.199C227.496 210.199 226.575 209.739 226.49 208.75H225.399C225.501 210.182 226.661 211.153 228.536 211.153C230.547 211.153 231.689 210.045 231.689 208.631C231.689 206.994 230.138 206.466 229.234 206.227L228.348 205.989C227.7 205.818 226.661 205.477 226.661 204.54C226.661 203.705 227.428 203.091 228.587 203.091C229.644 203.091 230.445 203.594 230.547 204.455ZM236.035 211.136C237.364 211.136 238.336 210.472 238.642 209.483L237.671 209.21C237.415 209.892 236.823 210.233 236.035 210.233C234.854 210.233 234.04 209.47 233.993 208.068H238.745V207.642C238.745 205.205 237.296 204.369 235.932 204.369C234.16 204.369 232.983 205.767 232.983 207.778C232.983 209.79 234.142 211.136 236.035 211.136ZM233.993 207.199C234.062 206.18 234.782 205.273 235.932 205.273C237.023 205.273 237.722 206.091 237.722 207.199H233.993ZM240.275 213.455H241.28V209.994H241.365C241.587 210.352 242.013 211.136 243.275 211.136C244.911 211.136 246.053 209.824 246.053 207.744C246.053 205.682 244.911 204.369 243.258 204.369C241.979 204.369 241.587 205.153 241.365 205.494H241.246V204.455H240.275V213.455ZM241.263 207.727C241.263 206.261 241.911 205.273 243.138 205.273C244.417 205.273 245.047 206.347 245.047 207.727C245.047 209.125 244.4 210.233 243.138 210.233C241.928 210.233 241.263 209.21 241.263 207.727Z" fill="#667085"/>
<path d="M284.17 202.273H283.13V209.142H283.045L278.272 202.273H277.25V211H278.306V204.148H278.392L283.147 211H284.17V202.273ZM288.807 211.136C290.58 211.136 291.773 209.79 291.773 207.761C291.773 205.716 290.58 204.369 288.807 204.369C287.035 204.369 285.842 205.716 285.842 207.761C285.842 209.79 287.035 211.136 288.807 211.136ZM288.807 210.233C287.461 210.233 286.847 209.074 286.847 207.761C286.847 206.449 287.461 205.273 288.807 205.273C290.154 205.273 290.768 206.449 290.768 207.761C290.768 209.074 290.154 210.233 288.807 210.233ZM298.426 204.455H297.336L295.529 209.67H295.461L293.654 204.455H292.563L294.983 211H296.006L298.426 204.455Z" fill="#667085"/>
<path d="M332.438 211C335.097 211 336.597 209.347 336.597 206.619C336.597 203.909 335.097 202.273 332.557 202.273H329.744V211H332.438ZM330.801 210.062V203.21H332.489C334.534 203.21 335.574 204.506 335.574 206.619C335.574 208.75 334.534 210.062 332.369 210.062H330.801ZM340.977 211.136C342.307 211.136 343.278 210.472 343.585 209.483L342.614 209.21C342.358 209.892 341.766 210.233 340.977 210.233C339.797 210.233 338.983 209.47 338.936 208.068H343.688V207.642C343.688 205.205 342.239 204.369 340.875 204.369C339.102 204.369 337.926 205.767 337.926 207.778C337.926 209.79 339.085 211.136 340.977 211.136ZM338.936 207.199C339.004 206.18 339.724 205.273 340.875 205.273C341.966 205.273 342.665 206.091 342.665 207.199H338.936ZM347.876 211.136C349.325 211.136 350.28 210.25 350.45 209.091H349.445C349.257 209.807 348.661 210.233 347.876 210.233C346.683 210.233 345.916 209.244 345.916 207.727C345.916 206.244 346.7 205.273 347.876 205.273C348.763 205.273 349.291 205.818 349.445 206.415H350.45C350.28 205.188 349.24 204.369 347.859 204.369C346.087 204.369 344.911 205.767 344.911 207.761C344.911 209.722 346.036 211.136 347.876 211.136Z" fill="#667085"/>
<g style="mix-blend-mode:multiply" opacity="0.1">
<path d="M23.7734 80.9373L16 84.1145V190H359V45.5208L351.712 50.7975H343.939L340.295 55.7385H335.437C334.141 56.562 331.453 58.209 331.064 58.209C330.676 58.209 328.149 59.1972 326.935 59.6912L316.489 61.1735L310.416 63.1499L300.7 61.1735L295.598 59.6912L288.311 63.1499H280.78L274.465 59.6912C272.035 59.1972 267.08 58.209 266.691 58.209C266.303 58.209 263.128 57.2208 261.59 56.7267H257.703L248.472 58.209L240.456 59.6912L236.812 63.1499L225.881 64.6322L220.294 66.1145L213.978 68.585L207.905 74.5141H205.233L197.945 73.0318L190.901 68.585L184.828 66.1145H181.184L174.868 64.6322L165.88 66.1145H157.378L148.876 68.585L140.374 71.5495L134.058 74.5141L127.256 75.9964L118.025 74.5141L110.738 75.9964L103.45 77.4787L96.6487 75.9964L87.4178 79.455L79.6445 77.4787L71.8711 79.455H64.3406L56.3244 80.9373H48.0652L39.806 82.4196L31.7897 79.455L23.7734 80.9373Z" fill="url(#paint0_linear_7387_427720)"/>
</g>
<path d="M16 84.1145L23.7734 80.9373L31.7897 79.4551L39.8059 82.4196L48.0652 80.9373H56.3244L64.3407 79.4551H71.8711L79.6445 77.4787L87.4178 79.4551L96.6487 75.9964L103.45 77.4787L110.738 75.9964L118.025 74.5141L127.256 75.9964L134.058 74.5141L140.374 71.5495L148.876 68.585L157.378 66.1145H165.88L174.868 64.6322L181.184 66.1145H184.828L190.901 68.585L197.945 73.0318L205.233 74.5141H207.905L213.978 68.585L220.294 66.1145L225.881 64.6322L236.812 63.1499L240.456 59.6912L248.472 58.209L257.703 56.7267H261.59C263.128 57.2208 266.303 58.209 266.691 58.209C267.08 58.209 272.035 59.1972 274.465 59.6912L280.78 63.1499H288.311L295.598 59.6912L300.7 61.1735L310.416 63.1499L316.489 61.1735L326.935 59.6912C328.149 59.1972 330.676 58.209 331.064 58.209C331.453 58.209 334.141 56.562 335.437 55.7385H340.295L343.939 50.7975H351.712L359 45.5208" stroke="#7F56D9" stroke-width="2" stroke-linecap="round" stroke-linejoin="round"/>
<path d="M16 122.552L23.7734 120.529L31.7897 119.584L39.8059 121.473L48.0652 120.529H56.3244L64.3406 119.584H71.8711L79.6445 118.326L87.4178 119.584L96.6487 117.381L103.45 118.326L110.738 117.381L118.025 116.437L127.256 117.381L134.058 116.437L140.374 114.549L148.876 112.66L157.378 111.087H165.88L174.868 110.142L181.184 111.087H184.828L190.901 112.66L197.945 115.493L205.233 116.437H207.905L213.978 112.66L220.294 111.087L225.881 110.142L236.812 109.198L240.456 106.995L248.472 106.051L257.703 105.107H261.59C263.128 105.422 266.303 106.051 266.691 106.051C267.08 106.051 272.035 106.68 274.465 106.995L280.78 109.198H288.311L295.598 106.995L300.7 107.939L310.416 109.198L316.489 107.939L326.935 106.995C328.149 106.68 330.676 106.051 331.064 106.051C331.453 106.051 334.141 105.002 335.437 104.477H340.295L343.939 101.33H351.712L359 97.9688" stroke="#B692F6" stroke-width="2" stroke-linecap="round" stroke-linejoin="round"/>
<defs>
<linearGradient id="paint0_linear_7387_427720" x1="187.5" y1="45.5208" x2="187.5" y2="183.568" gradientUnits="userSpaceOnUse">
<stop stop-color="#7F56D9"/>
<stop offset="1" stop-color="#7F56D9" stop-opacity="0"/>
</linearGradient>
</defs>
</svg>
