<svg width="46" height="46" viewBox="0 0 46 46" fill="none" xmlns="http://www.w3.org/2000/svg">
<path d="M3 23C3 11.9543 11.9543 3 23 3C34.0457 3 43 11.9543 43 23C43 34.0457 34.0457 43 23 43C11.9543 43 3 34.0457 3 23Z" fill="#F2F4F7"/>
<g clip-path="url(#clip0_7874_314947)">
<path d="M26.3333 26.3332L23 22.9999M23 22.9999L19.6667 26.3332M23 22.9999V30.4999M29.9917 28.3249C30.8044 27.8818 31.4465 27.1806 31.8166 26.3321C32.1866 25.4835 32.2635 24.5359 32.0352 23.6388C31.8068 22.7417 31.2862 21.9462 30.5556 21.3778C29.8249 20.8094 28.9257 20.5005 28 20.4999H26.95C26.6978 19.5243 26.2276 18.6185 25.575 17.8507C24.9223 17.0829 24.104 16.4731 23.1817 16.0671C22.2595 15.661 21.2571 15.4694 20.2501 15.5065C19.2431 15.5436 18.2576 15.8085 17.3676 16.2813C16.4777 16.7541 15.7066 17.4225 15.1122 18.2362C14.5178 19.05 14.1156 19.9879 13.9358 20.9794C13.7561 21.9709 13.8034 22.9903 14.0743 23.961C14.3453 24.9316 14.8327 25.8281 15.5 26.5832" stroke="#475467" stroke-width="1.66667" stroke-linecap="round" stroke-linejoin="round"/>
</g>
<path d="M23 40C13.6112 40 6 32.3888 6 23H0C0 35.7025 10.2975 46 23 46V40ZM40 23C40 32.3888 32.3888 40 23 40V46C35.7025 46 46 35.7025 46 23H40ZM23 6C32.3888 6 40 13.6112 40 23H46C46 10.2975 35.7025 0 23 0V6ZM23 0C10.2975 0 0 10.2975 0 23H6C6 13.6112 13.6112 6 23 6V0Z" fill="#F9FAFB"/>
<defs>
<clipPath id="clip0_7874_314947">
<rect width="20" height="20" fill="white" transform="translate(13 13)"/>
</clipPath>
</defs>
</svg>
