<svg width="28" height="28" viewBox="0 0 28 28" fill="none" xmlns="http://www.w3.org/2000/svg">
<g clip-path="url(#clip0_7387_427565)">
<path d="M14 28C21.732 28 28 21.732 28 14C28 6.26801 21.732 0 14 0C6.26801 0 0 6.26801 0 14C0 21.732 6.26801 28 14 28Z" fill="#F0F0F0"/>
<path d="M13.3909 14.0003H27.9995C27.9995 12.7367 27.8311 11.5126 27.5172 10.3481H13.3909V14.0003Z" fill="#D80027"/>
<path d="M13.3909 6.69516H25.9447C25.0877 5.29669 23.9919 4.06059 22.7143 3.04297H13.3909V6.69516Z" fill="#D80027"/>
<path d="M13.9997 28C17.2946 28 20.323 26.8612 22.7145 24.9565H5.28491C7.6764 26.8612 10.7048 28 13.9997 28Z" fill="#D80027"/>
<path d="M2.05447 21.3036H25.9448C26.6328 20.1809 27.1664 18.9537 27.5174 17.6514H0.481934C0.832863 18.9537 1.36645 20.1809 2.05447 21.3036Z" fill="#D80027"/>
<path d="M6.48506 2.1863H7.76087L6.57415 3.04845L7.02745 4.44347L5.84079 3.58132L4.65412 4.44347L5.04569 3.23832C4.00083 4.10867 3.08503 5.12838 2.33034 6.26456H2.73913L1.98373 6.81335C1.86605 7.00968 1.75317 7.20912 1.645 7.41152L2.00572 8.52173L1.33273 8.03277C1.16545 8.3872 1.01243 8.74962 0.874891 9.11958L1.2723 10.3428H2.73913L1.55241 11.205L2.00572 12.6L0.819055 11.7379L0.108227 12.2543C0.0370781 12.8262 0 13.4088 0 14H14C14 6.26806 14 5.35653 14 0C11.2343 0 8.65621 0.802266 6.48506 2.1863ZM7.02745 12.6L5.84079 11.7379L4.65412 12.6L5.10743 11.205L3.92071 10.3428H5.38754L5.84079 8.9478L6.29404 10.3428H7.76087L6.57415 11.205L7.02745 12.6ZM6.57415 7.12671L7.02745 8.52173L5.84079 7.65959L4.65412 8.52173L5.10743 7.12671L3.92071 6.26456H5.38754L5.84079 4.86954L6.29404 6.26456H7.76087L6.57415 7.12671ZM12.0492 12.6L10.8625 11.7379L9.67586 12.6L10.1292 11.205L8.94245 10.3428H10.4093L10.8625 8.9478L11.3158 10.3428H12.7826L11.5959 11.205L12.0492 12.6ZM11.5959 7.12671L12.0492 8.52173L10.8625 7.65959L9.67586 8.52173L10.1292 7.12671L8.94245 6.26456H10.4093L10.8625 4.86954L11.3158 6.26456H12.7826L11.5959 7.12671ZM11.5959 3.04845L12.0492 4.44347L10.8625 3.58132L9.67586 4.44347L10.1292 3.04845L8.94245 2.1863H10.4093L10.8625 0.791273L11.3158 2.1863H12.7826L11.5959 3.04845Z" fill="#0052B4"/>
</g>
<defs>
<clipPath id="clip0_7387_427565">
<rect width="28" height="28" fill="white"/>
</clipPath>
</defs>
</svg>
