<svg width="46" height="32" viewBox="0 0 46 32" fill="none" xmlns="http://www.w3.org/2000/svg">
<path d="M0 6C0 2.68629 2.68629 0 6 0H40C43.3137 0 46 2.68629 46 6V26C46 29.3137 43.3137 32 40 32H6C2.68629 32 0 29.3137 0 26V6Z" fill="white"/>
<path fill-rule="evenodd" clip-rule="evenodd" d="M14.3336 21.1444H11.5872L9.52784 13.0565C9.43009 12.6845 9.22255 12.3556 8.91725 12.2006C8.15535 11.811 7.31579 11.501 6.3999 11.3446V11.0332H10.824C11.4346 11.0332 11.8925 11.501 11.9689 12.0442L13.0374 17.8782L15.7824 11.0332H18.4524L14.3336 21.1444ZM19.9789 21.1444H17.3852L19.5209 11.0332H22.1146L19.9789 21.1444ZM25.4702 13.8343C25.5465 13.2898 26.0044 12.9784 26.5387 12.9784C27.3783 12.9002 28.2928 13.0566 29.0561 13.4448L29.514 11.2678C28.7508 10.9564 27.9112 10.8 27.1493 10.8C24.6319 10.8 22.8002 12.2006 22.8002 14.1444C22.8002 15.6231 24.0977 16.3995 25.0136 16.8673C26.0044 17.3337 26.3861 17.6451 26.3097 18.1114C26.3097 18.811 25.5465 19.1224 24.7846 19.1224C23.8687 19.1224 22.9528 18.8892 22.1146 18.4997L21.6567 20.678C22.5725 21.0662 23.5634 21.2226 24.4793 21.2226C27.3019 21.2994 29.0561 19.9002 29.0561 17.8001C29.0561 15.1553 25.4702 15.0003 25.4702 13.8343ZM38.1332 21.1444L36.0738 11.0332H33.8618C33.4038 11.0332 32.9459 11.3446 32.7932 11.811L28.9797 21.1444H31.6497L32.1826 19.667H35.4632L35.7685 21.1444H38.1332ZM34.2434 13.7562L35.0053 17.5669H32.8696L34.2434 13.7562Z" fill="#172B85"/>
<path d="M6 1H40V-1H6V1ZM45 6V26H47V6H45ZM40 31H6V33H40V31ZM1 26V6H-1V26H1ZM6 31C3.23858 31 1 28.7614 1 26H-1C-1 29.866 2.13401 33 6 33V31ZM45 26C45 28.7614 42.7614 31 40 31V33C43.866 33 47 29.866 47 26H45ZM40 1C42.7614 1 45 3.23858 45 6H47C47 2.13401 43.866 -1 40 -1V1ZM6 -1C2.13401 -1 -1 2.13401 -1 6H1C1 3.23858 3.23858 1 6 1V-1Z" fill="#F2F4F7"/>
</svg>
