<svg width="52" height="54" viewBox="0 0 52 54" fill="none" xmlns="http://www.w3.org/2000/svg">
<path d="M16.4962 22.1574V21.7512C16.4962 20.7214 17.3209 19.8673 18.3839 19.7964L26.1266 19.2794L36.8341 35.047V21.2083L34.078 20.8409V20.6479C34.078 19.6061 34.9216 18.7464 35.9982 18.6912L43.0432 18.3303V19.3442C43.0432 19.8201 42.6893 20.2272 42.2042 20.3092L40.5089 20.596V43.0074L38.3812 43.7391C36.6036 44.3504 34.6248 43.696 33.6072 42.1605L23.2121 26.4744V41.4459L26.4117 42.0583L26.3671 42.355C26.2275 43.2847 25.4249 43.9877 24.454 44.0309L16.4962 44.3851C16.391 43.3855 17.1402 42.4911 18.1738 42.3825L19.2206 42.2726V22.3105L16.4962 22.1574Z" fill="black"/>
<path fill-rule="evenodd" clip-rule="evenodd" d="M35.3498 0.933565L3.44694 3.1117C1.53598 3.24217 0.0546875 4.77849 0.0546875 6.62998V37.6598C0.0546875 39.3994 0.653527 41.0896 1.75687 42.4641L8.63559 51.0334C9.74775 52.4189 11.498 53.1818 13.3087 53.0703L48.7173 50.8907C50.5321 50.779 51.9449 49.3239 51.9449 47.5663V12.2885C51.9449 11.2012 51.3958 10.1823 50.4739 9.55901L39.2649 1.98059C38.1226 1.20825 36.7404 0.83862 35.3498 0.933565ZM5.02894 7.11399C4.58522 6.78548 4.79639 6.10109 5.3538 6.06111L35.5644 3.89422C36.5269 3.82518 37.4834 4.09024 38.2618 4.64176L44.3234 8.93625C44.5535 9.0993 44.4455 9.45127 44.1606 9.46676L12.1677 11.2067C11.1995 11.2594 10.2439 10.9749 9.47403 10.405L5.02894 7.11399ZM10.6671 16.6614C10.6671 15.6221 11.5068 14.7635 12.5805 14.7051L46.4061 12.8629C47.4525 12.8059 48.3335 13.6107 48.3335 14.6236V45.1705C48.3335 46.208 47.4968 47.0656 46.4252 47.1266L12.8138 49.0391C11.6492 49.1053 10.6671 48.2104 10.6671 47.083V16.6614Z" fill="black"/>
</svg>
