<svg width="49" height="48" viewBox="0 0 49 48" fill="none" xmlns="http://www.w3.org/2000/svg">
<path d="M0.333496 10C0.333496 4.47715 4.81065 0 10.3335 0H38.3335C43.8563 0 48.3335 4.47715 48.3335 10V38C48.3335 43.5229 43.8563 48 38.3335 48H10.3335C4.81065 48 0.333496 43.5228 0.333496 38V10Z" fill="#2E90FA"/>
<path d="M32.3335 33V31C32.3335 29.9391 31.9121 28.9217 31.1619 28.1716C30.4118 27.4214 29.3944 27 28.3335 27H20.3335C19.2726 27 18.2552 27.4214 17.5051 28.1716C16.7549 28.9217 16.3335 29.9391 16.3335 31V33M28.3335 19C28.3335 21.2091 26.5426 23 24.3335 23C22.1244 23 20.3335 21.2091 20.3335 19C20.3335 16.7909 22.1244 15 24.3335 15C26.5426 15 28.3335 16.7909 28.3335 19Z" stroke="white" stroke-width="2" stroke-linecap="round" stroke-linejoin="round"/>
</svg>
