<svg width="4" height="16" viewBox="0 0 4 16" fill="none" xmlns="http://www.w3.org/2000/svg">
<path d="M2.33333 8.83325C2.79357 8.83325 3.16667 8.46016 3.16667 7.99992C3.16667 7.53968 2.79357 7.16658 2.33333 7.16658C1.8731 7.16658 1.5 7.53968 1.5 7.99992C1.5 8.46016 1.8731 8.83325 2.33333 8.83325Z" stroke="#98A2B3" stroke-width="1.66667" stroke-linecap="round" stroke-linejoin="round"/>
<path d="M2.33333 2.99992C2.79357 2.99992 3.16667 2.62682 3.16667 2.16659C3.16667 1.70635 2.79357 1.33325 2.33333 1.33325C1.8731 1.33325 1.5 1.70635 1.5 2.16659C1.5 2.62682 1.8731 2.99992 2.33333 2.99992Z" stroke="#98A2B3" stroke-width="1.66667" stroke-linecap="round" stroke-linejoin="round"/>
<path d="M2.33333 14.6666C2.79357 14.6666 3.16667 14.2935 3.16667 13.8333C3.16667 13.373 2.79357 12.9999 2.33333 12.9999C1.8731 12.9999 1.5 13.373 1.5 13.8333C1.5 14.2935 1.8731 14.6666 2.33333 14.6666Z" stroke="#98A2B3" stroke-width="1.66667" stroke-linecap="round" stroke-linejoin="round"/>
</svg>
