<svg width="184" height="48" viewBox="0 0 184 48" fill="none" xmlns="http://www.w3.org/2000/svg">
<path d="M16.2141 33.4286C24.8929 33.4286 31.9284 26.393 31.9284 17.7143C31.9284 16.7307 31.8381 15.7682 31.6652 14.8347C30.7316 14.6618 29.7692 14.5714 28.7856 14.5714C20.1068 14.5714 13.0713 21.6069 13.0713 30.2857C13.0713 31.2693 13.1617 32.2318 13.3345 33.1653C14.2681 33.3382 15.2306 33.4286 16.2141 33.4286Z" fill="#175CD3"/>
<path fill-rule="evenodd" clip-rule="evenodd" d="M13.3347 33.1653C6.03118 31.8127 0.5 25.4095 0.5 17.7143C0.5 9.03553 7.53553 2 16.2143 2C23.9095 2 30.3128 7.53118 31.6653 14.8347C30.7318 14.6618 29.7693 14.5714 28.7857 14.5714C20.107 14.5714 13.0714 21.607 13.0714 30.2857C13.0714 31.2693 13.1618 32.2318 13.3347 33.1653Z" fill="#1570EF"/>
<path fill-rule="evenodd" clip-rule="evenodd" d="M16.2146 33.4285C24.8933 33.4285 31.9289 26.393 31.9289 17.7142C31.9289 16.7306 31.8385 15.7681 31.6656 14.8346C38.9691 16.1872 44.5003 22.5905 44.5003 30.2856C44.5003 38.9644 37.4648 45.9999 28.786 45.9999C21.0908 45.9999 14.6875 40.4687 13.335 33.1652C14.2685 33.3381 15.231 33.4285 16.2146 33.4285Z" fill="#2E90FA"/>
<path d="M74.7284 28.904C74.1684 30.7147 73.1884 32.068 71.7884 32.964C70.3884 33.8414 68.755 34.28 66.8884 34.28C65.059 34.28 63.4724 33.8974 62.1284 33.132C60.803 32.3667 59.7764 31.2747 59.0484 29.856C58.339 28.4374 57.9844 26.7387 57.9844 24.76C57.9844 22.7814 58.3484 21.0827 59.0764 19.664C59.8044 18.2454 60.831 17.1534 62.1564 16.388C63.4817 15.6227 65.0404 15.24 66.8324 15.24C68.7177 15.24 70.3324 15.6414 71.6764 16.444C73.039 17.228 73.9724 18.4227 74.4764 20.028L70.9764 21.512C70.659 20.392 70.1737 19.5987 69.5204 19.132C68.867 18.6467 68.027 18.404 67.0004 18.404C65.4697 18.404 64.247 18.9547 63.3324 20.056C62.4364 21.1387 61.9884 22.7067 61.9884 24.76C61.9884 26.7947 62.4177 28.3627 63.2764 29.464C64.135 30.5654 65.3764 31.116 67.0004 31.116C68.0084 31.116 68.8764 30.8454 69.6044 30.304C70.351 29.7627 70.8737 28.9414 71.1724 27.84L74.7284 28.904Z" fill="#101828"/>
<path d="M79.5617 17.984C77.975 17.984 77.1817 17.3027 77.1817 15.94C77.1817 14.5587 77.975 13.868 79.5617 13.868C81.1483 13.868 81.9417 14.5587 81.9417 15.94C81.9417 17.3027 81.1483 17.984 79.5617 17.984ZM81.4657 20V34H77.6297V20H81.4657Z" fill="#101828"/>
<path d="M85.532 34V20H88.864L89.116 22.744C89.4707 21.792 90.0027 21.0547 90.712 20.532C91.44 19.9907 92.3547 19.72 93.456 19.72C94.1093 19.72 94.6133 19.8227 94.968 20.028L94.52 23.248C94.3333 23.192 94.1 23.1454 93.82 23.108C93.5587 23.052 93.2133 23.024 92.784 23.024C92.2053 23.024 91.6547 23.164 91.132 23.444C90.628 23.7054 90.208 24.116 89.872 24.676C89.536 25.2174 89.368 25.908 89.368 26.748V34H85.532Z" fill="#101828"/>
<path d="M103.427 19.72C105.294 19.72 106.74 20.1214 107.767 20.924C108.812 21.7267 109.503 22.6974 109.839 23.836L106.255 25.124C105.882 23.4254 104.958 22.576 103.483 22.576C102.419 22.576 101.588 22.9494 100.991 23.696C100.412 24.4427 100.123 25.5534 100.123 27.028C100.123 28.5214 100.422 29.632 101.019 30.36C101.635 31.0694 102.466 31.424 103.511 31.424C105.135 31.424 106.106 30.5934 106.423 28.932L109.895 30.052C109.578 31.3027 108.868 32.32 107.767 33.104C106.684 33.888 105.275 34.28 103.539 34.28C102.083 34.28 100.804 33.9907 99.703 33.412C98.6204 32.8334 97.7804 32.0027 97.1831 30.92C96.5857 29.8374 96.2871 28.5307 96.2871 27C96.2871 25.4694 96.5857 24.1627 97.1831 23.08C97.799 21.9974 98.639 21.1667 99.703 20.588C100.786 20.0094 102.027 19.72 103.427 19.72Z" fill="#101828"/>
<path d="M119.26 19.72C120.66 19.72 121.901 20.0094 122.984 20.588C124.066 21.1667 124.906 21.9974 125.504 23.08C126.12 24.1627 126.428 25.4694 126.428 27C126.428 28.5307 126.12 29.8374 125.504 30.92C124.906 32.0027 124.066 32.8334 122.984 33.412C121.901 33.9907 120.66 34.28 119.26 34.28C117.841 34.28 116.59 33.9907 115.508 33.412C114.444 32.8334 113.604 32.0027 112.988 30.92C112.39 29.8374 112.092 28.5307 112.092 27C112.092 25.4694 112.39 24.1627 112.988 23.08C113.604 21.9974 114.444 21.1667 115.508 20.588C116.59 20.0094 117.841 19.72 119.26 19.72ZM119.26 22.576C118.214 22.576 117.393 22.9494 116.796 23.696C116.217 24.424 115.928 25.5254 115.928 27C115.928 28.4747 116.217 29.5854 116.796 30.332C117.393 31.06 118.214 31.424 119.26 31.424C120.286 31.424 121.089 31.06 121.668 30.332C122.265 29.5854 122.564 28.4747 122.564 27C122.564 25.5254 122.265 24.424 121.668 23.696C121.089 22.9494 120.286 22.576 119.26 22.576Z" fill="#101828"/>
<path d="M136.021 19.72C137.421 19.72 138.663 20.0094 139.745 20.588C140.828 21.1667 141.668 21.9974 142.265 23.08C142.881 24.1627 143.189 25.4694 143.189 27C143.189 28.5307 142.881 29.8374 142.265 30.92C141.668 32.0027 140.828 32.8334 139.745 33.412C138.663 33.9907 137.421 34.28 136.021 34.28C134.603 34.28 133.352 33.9907 132.269 33.412C131.205 32.8334 130.365 32.0027 129.749 30.92C129.152 29.8374 128.853 28.5307 128.853 27C128.853 25.4694 129.152 24.1627 129.749 23.08C130.365 21.9974 131.205 21.1667 132.269 20.588C133.352 20.0094 134.603 19.72 136.021 19.72ZM136.021 22.576C134.976 22.576 134.155 22.9494 133.557 23.696C132.979 24.424 132.689 25.5254 132.689 27C132.689 28.4747 132.979 29.5854 133.557 30.332C134.155 31.06 134.976 31.424 136.021 31.424C137.048 31.424 137.851 31.06 138.429 30.332C139.027 29.5854 139.325 28.4747 139.325 27C139.325 25.5254 139.027 24.424 138.429 23.696C137.851 22.9494 137.048 22.576 136.021 22.576Z" fill="#101828"/>
<path d="M150.179 13.868V29.688C150.179 30.3414 150.291 30.7987 150.515 31.06C150.739 31.3214 151.112 31.452 151.635 31.452C151.952 31.452 152.214 31.4334 152.419 31.396C152.625 31.3587 152.886 31.284 153.203 31.172L152.867 33.692C152.55 33.8787 152.148 34.0187 151.663 34.112C151.196 34.224 150.73 34.28 150.263 34.28C148.9 34.28 147.902 33.9534 147.267 33.3C146.651 32.628 146.343 31.564 146.343 30.108V13.868H150.179Z" fill="#101828"/>
<path d="M161.837 34.28C159.634 34.28 157.87 33.6454 156.545 32.376C155.219 31.088 154.557 29.296 154.557 27C154.557 25.4694 154.855 24.1627 155.453 23.08C156.05 21.9974 156.881 21.1667 157.945 20.588C159.027 20.0094 160.259 19.72 161.641 19.72C163.059 19.72 164.263 20.0094 165.253 20.588C166.242 21.148 166.998 21.9227 167.521 22.912C168.043 23.8827 168.305 24.9934 168.305 26.244C168.305 26.6174 168.295 26.972 168.277 27.308C168.258 27.644 168.23 27.9427 168.193 28.204H158.309C158.458 29.2867 158.831 30.0987 159.429 30.64C160.045 31.1627 160.838 31.424 161.809 31.424C162.63 31.424 163.293 31.2654 163.797 30.948C164.301 30.6307 164.693 30.192 164.973 29.632L168.025 30.808C167.577 31.9094 166.793 32.768 165.673 33.384C164.553 33.9814 163.274 34.28 161.837 34.28ZM161.613 22.548C159.802 22.548 158.71 23.5467 158.337 25.544H164.637C164.525 24.5734 164.207 23.836 163.685 23.332C163.181 22.8094 162.49 22.548 161.613 22.548Z" fill="#101828"/>
<path d="M177.155 34.28C175.737 34.28 174.439 34.028 173.263 33.524C172.106 33.02 171.163 32.3107 170.435 31.396L172.647 29.156C173.095 29.828 173.693 30.3787 174.439 30.808C175.186 31.2374 176.073 31.452 177.099 31.452C177.827 31.452 178.406 31.3494 178.835 31.144C179.283 30.92 179.507 30.5747 179.507 30.108C179.507 29.8094 179.405 29.5574 179.199 29.352C178.994 29.128 178.583 28.9507 177.967 28.82L175.503 28.316C173.879 27.98 172.722 27.476 172.031 26.804C171.359 26.1134 171.023 25.2267 171.023 24.144C171.023 23.3787 171.247 22.66 171.695 21.988C172.162 21.316 172.853 20.7747 173.767 20.364C174.682 19.9347 175.821 19.72 177.183 19.72C180.021 19.72 182.055 20.588 183.287 22.324L180.991 24.564C180.581 23.9107 180.039 23.416 179.367 23.08C178.714 22.7254 178.023 22.548 177.295 22.548C175.653 22.548 174.831 23.0054 174.831 23.92C174.831 24.2187 174.962 24.48 175.223 24.704C175.485 24.9094 175.961 25.0867 176.651 25.236L179.507 25.824C180.889 26.104 181.878 26.58 182.475 27.252C183.073 27.9054 183.371 28.6987 183.371 29.632C183.371 30.976 182.83 32.0867 181.747 32.964C180.683 33.8414 179.153 34.28 177.155 34.28Z" fill="#101828"/>
</svg>
