<svg width="21" height="20" viewBox="0 0 21 20" fill="none" xmlns="http://www.w3.org/2000/svg">
<path d="M10.6663 10.8333C11.1266 10.8333 11.4997 10.4602 11.4997 9.99992C11.4997 9.53968 11.1266 9.16658 10.6663 9.16658C10.2061 9.16658 9.83301 9.53968 9.83301 9.99992C9.83301 10.4602 10.2061 10.8333 10.6663 10.8333Z" stroke="#98A2B3" stroke-width="1.66667" stroke-linecap="round" stroke-linejoin="round"/>
<path d="M10.6663 4.99992C11.1266 4.99992 11.4997 4.62682 11.4997 4.16659C11.4997 3.70635 11.1266 3.33325 10.6663 3.33325C10.2061 3.33325 9.83301 3.70635 9.83301 4.16659C9.83301 4.62682 10.2061 4.99992 10.6663 4.99992Z" stroke="#98A2B3" stroke-width="1.66667" stroke-linecap="round" stroke-linejoin="round"/>
<path d="M10.6663 16.6666C11.1266 16.6666 11.4997 16.2935 11.4997 15.8333C11.4997 15.373 11.1266 14.9999 10.6663 14.9999C10.2061 14.9999 9.83301 15.373 9.83301 15.8333C9.83301 16.2935 10.2061 16.6666 10.6663 16.6666Z" stroke="#98A2B3" stroke-width="1.66667" stroke-linecap="round" stroke-linejoin="round"/>
</svg>
