<svg width="20" height="18" viewBox="0 0 20 18" fill="none" xmlns="http://www.w3.org/2000/svg">
<path d="M6.66698 13.1666L10.0003 16.4999M10.0003 16.4999L13.3336 13.1666M10.0003 16.4999V8.99994M17.4003 14.0749C18.1248 13.5655 18.6681 12.8384 18.9514 11.9992C19.2347 11.1601 19.2431 10.2525 18.9756 9.40813C18.7081 8.5638 18.1785 7.82669 17.4637 7.30375C16.7489 6.7808 15.886 6.49925 15.0003 6.49994H13.9503C13.6997 5.52317 13.2307 4.61598 12.5787 3.84668C11.9268 3.07737 11.1088 2.46599 10.1863 2.05857C9.26387 1.65115 8.26101 1.4583 7.25325 1.49454C6.24548 1.53078 5.25907 1.79517 4.36827 2.2678C3.47747 2.74043 2.7055 3.40898 2.11047 4.22314C1.51544 5.03729 1.11285 5.97582 0.933028 6.96807C0.753202 7.96032 0.800819 8.98044 1.07229 9.95163C1.34377 10.9228 1.83203 11.8198 2.50031 12.5749" stroke="#344054" stroke-width="1.67" stroke-linecap="round" stroke-linejoin="round"/>
</svg>
