<svg width="49" height="48" viewBox="0 0 49 48" fill="none" xmlns="http://www.w3.org/2000/svg">
<path d="M0.666504 10C0.666504 4.47715 5.14366 0 10.6665 0H38.6665C44.1894 0 48.6665 4.47715 48.6665 10V38C48.6665 43.5229 44.1894 48 38.6665 48H10.6665C5.14366 48 0.666504 43.5228 0.666504 38V10Z" fill="#12B76A"/>
<path d="M20.6665 33H28.6665M24.6665 29V33M16.6665 15H32.6665C33.7711 15 34.6665 15.8954 34.6665 17V27C34.6665 28.1046 33.7711 29 32.6665 29H16.6665C15.5619 29 14.6665 28.1046 14.6665 27V17C14.6665 15.8954 15.5619 15 16.6665 15Z" stroke="white" stroke-width="2" stroke-linecap="round" stroke-linejoin="round"/>
</svg>
