<svg width="232" height="40" viewBox="0 0 232 40" fill="none" xmlns="http://www.w3.org/2000/svg">
<rect y="16" width="191" height="8" rx="4" fill="#F9F5FF"/>
<rect y="16" width="134.672" height="8" rx="4" fill="#7F56D9"/>
<path d="M204.322 25H205.928L210.358 16.1804V14.8182H203.626V16.1357H208.767V16.2102L204.322 25ZM215.413 25.169C217.764 25.169 219.142 23.25 219.142 19.9141C219.142 16.603 217.744 14.679 215.413 14.679C213.076 14.679 211.684 16.598 211.679 19.9141C211.679 23.245 213.056 25.1641 215.413 25.169ZM215.413 23.8416C214.036 23.8416 213.205 22.4595 213.205 19.9141C213.21 17.3786 214.041 15.9815 215.413 15.9815C216.78 15.9815 217.615 17.3786 217.615 19.9141C217.615 22.4595 216.785 23.8416 215.413 23.8416ZM226.22 23.0909C226.225 24.2393 226.946 25.2088 228.293 25.2088C229.625 25.2088 230.356 24.2393 230.356 23.0909V22.554C230.356 21.4006 229.645 20.4361 228.293 20.4361C226.966 20.4361 226.225 21.4055 226.22 22.554V23.0909ZM221.099 17.2642C221.099 18.4126 221.825 19.3821 223.172 19.3821C224.5 19.3821 225.235 18.4176 225.23 17.2642V16.7273C225.235 15.5739 224.52 14.6094 223.172 14.6094C221.85 14.6094 221.099 15.5739 221.099 16.7273V17.2642ZM221.517 25H222.705L229.705 14.8182H228.517L221.517 25ZM227.378 22.554C227.383 21.9822 227.632 21.4304 228.293 21.4304C228.979 21.4304 229.193 21.9822 229.193 22.554V23.0909C229.193 23.6626 228.959 24.2145 228.293 24.2145C227.617 24.2145 227.383 23.6577 227.378 23.0909V22.554ZM222.262 16.7273C222.262 16.1605 222.511 15.6037 223.172 15.6037C223.858 15.6037 224.072 16.1555 224.072 16.7273V17.2642C224.072 17.8359 223.838 18.3878 223.172 18.3878C222.496 18.3878 222.262 17.8359 222.262 17.2642V16.7273Z" fill="#344054"/>
</svg>
