<svg width="187" height="48" viewBox="0 0 187 48" fill="none" xmlns="http://www.w3.org/2000/svg">
<path fill-rule="evenodd" clip-rule="evenodd" d="M22 36.4667C28.8851 36.4667 34.4667 30.8851 34.4667 24C34.4667 17.1148 28.8851 11.5333 22 11.5333C15.1148 11.5333 9.53333 17.1148 9.53333 24C9.53333 30.8851 15.1148 36.4667 22 36.4667ZM22 46C34.1503 46 44 36.1503 44 24C44 11.8497 34.1503 2 22 2C9.84973 2 0 11.8497 0 24C0 36.1503 9.84973 46 22 46Z" fill="#6938EF"/>
<path d="M22.252 24.4817C24.5431 22.1907 28.2577 22.1907 30.5488 24.4817L41.9567 35.8897C44.2478 38.1808 44.2478 41.8954 41.9567 44.1864V44.1864C39.6657 46.4775 35.9511 46.4775 33.66 44.1864L22.252 32.7785C19.961 30.4874 19.961 26.7728 22.252 24.4817V24.4817Z" fill="#F670C7"/>
<path d="M25.4551 35.9817L32.7004 43.227C36.1756 41.2889 39.0709 38.4358 41.0605 34.9937L33.8746 27.8077C32.6124 31.7471 29.4441 34.8335 25.4551 35.9817Z" fill="#6519BA"/>
<path d="M79.5198 36.1C78.8851 36.884 78.1105 37.4813 77.1958 37.892C76.2998 38.3027 75.3105 38.508 74.2278 38.508C72.7718 38.508 71.4558 38.1907 70.2798 37.556C69.1038 36.94 67.7598 35.8387 66.2478 34.252C64.4745 34.028 62.8878 33.4587 61.4878 32.544C60.1065 31.6293 59.0238 30.4533 58.2398 29.016C57.4745 27.56 57.0918 25.9547 57.0918 24.2C57.0918 22.2773 57.5491 20.5507 58.4638 19.02C59.3971 17.4707 60.6758 16.2573 62.2998 15.38C63.9425 14.5027 65.7811 14.064 67.8158 14.064C69.8505 14.064 71.6798 14.5027 73.3038 15.38C74.9278 16.2573 76.2065 17.4707 77.1398 19.02C78.0731 20.5507 78.5398 22.2773 78.5398 24.2C78.5398 26.4773 77.8958 28.4747 76.6078 30.192C75.3385 31.9093 73.6491 33.104 71.5398 33.776C72.0065 34.2613 72.4545 34.6067 72.8838 34.812C73.3318 35.036 73.8078 35.148 74.3118 35.148C75.5251 35.148 76.5891 34.6627 77.5038 33.692L79.5198 36.1ZM61.6838 24.2C61.6838 25.4133 61.9451 26.496 62.4678 27.448C63.0091 28.4 63.7465 29.1467 64.6798 29.688C65.6131 30.2107 66.6585 30.472 67.8158 30.472C68.9731 30.472 70.0185 30.2107 70.9518 29.688C71.8851 29.1467 72.6131 28.4 73.1358 27.448C73.6771 26.496 73.9478 25.4133 73.9478 24.2C73.9478 22.9867 73.6771 21.904 73.1358 20.952C72.6131 20 71.8851 19.2627 70.9518 18.74C70.0185 18.1987 68.9731 17.928 67.8158 17.928C66.6585 17.928 65.6131 18.1987 64.6798 18.74C63.7465 19.2627 63.0091 20 62.4678 20.952C61.9451 21.904 61.6838 22.9867 61.6838 24.2Z" fill="#101828"/>
<path d="M96.8168 18.936V34H92.6728V32.208C92.0941 32.8613 91.4035 33.3653 90.6008 33.72C89.7981 34.056 88.9301 34.224 87.9968 34.224C86.0181 34.224 84.4501 33.6547 83.2928 32.516C82.1355 31.3773 81.5568 29.688 81.5568 27.448V18.936H85.9248V26.804C85.9248 29.2307 86.9421 30.444 88.9768 30.444C90.0221 30.444 90.8621 30.108 91.4968 29.436C92.1315 28.7453 92.4488 27.728 92.4488 26.384V18.936H96.8168Z" fill="#101828"/>
<path d="M108.031 34.224C106.445 34.224 105.017 33.8973 103.747 33.244C102.497 32.572 101.517 31.648 100.807 30.472C100.098 29.296 99.7435 27.9613 99.7435 26.468C99.7435 24.9747 100.098 23.64 100.807 22.464C101.517 21.288 102.497 20.3733 103.747 19.72C105.017 19.048 106.445 18.712 108.031 18.712C109.618 18.712 111.037 19.048 112.287 19.72C113.538 20.3733 114.518 21.288 115.227 22.464C115.937 23.64 116.291 24.9747 116.291 26.468C116.291 27.9613 115.937 29.296 115.227 30.472C114.518 31.648 113.538 32.572 112.287 33.244C111.037 33.8973 109.618 34.224 108.031 34.224ZM108.031 30.64C109.151 30.64 110.066 30.2667 110.775 29.52C111.503 28.7547 111.867 27.7373 111.867 26.468C111.867 25.1987 111.503 24.1907 110.775 23.444C110.066 22.6787 109.151 22.296 108.031 22.296C106.911 22.296 105.987 22.6787 105.259 23.444C104.531 24.1907 104.167 25.1987 104.167 26.468C104.167 27.7373 104.531 28.7547 105.259 29.52C105.987 30.2667 106.911 30.64 108.031 30.64Z" fill="#101828"/>
<path d="M128.927 33.272C128.498 33.5893 127.966 33.832 127.331 34C126.715 34.1493 126.062 34.224 125.371 34.224C123.579 34.224 122.188 33.7667 121.199 32.852C120.228 31.9373 119.743 30.5933 119.743 28.82V22.632H117.419V19.272H119.743V15.604H124.111V19.272H127.863V22.632H124.111V28.764C124.111 29.3987 124.27 29.8933 124.587 30.248C124.923 30.584 125.39 30.752 125.987 30.752C126.678 30.752 127.266 30.5653 127.751 30.192L128.927 33.272Z" fill="#101828"/>
<path d="M131.379 18.936H135.747V34H131.379V18.936ZM133.563 16.836C132.76 16.836 132.107 16.6027 131.603 16.136C131.099 15.6693 130.847 15.0907 130.847 14.4C130.847 13.7093 131.099 13.1307 131.603 12.664C132.107 12.1973 132.76 11.964 133.563 11.964C134.366 11.964 135.019 12.188 135.523 12.636C136.027 13.084 136.279 13.644 136.279 14.316C136.279 15.044 136.027 15.6507 135.523 16.136C135.019 16.6027 134.366 16.836 133.563 16.836Z" fill="#101828"/>
<path d="M154.557 26.524C154.557 26.58 154.529 26.972 154.473 27.7H143.077C143.282 28.6333 143.768 29.3707 144.533 29.912C145.298 30.4533 146.25 30.724 147.389 30.724C148.173 30.724 148.864 30.612 149.461 30.388C150.077 30.1453 150.646 29.772 151.169 29.268L153.493 31.788C152.074 33.412 150.002 34.224 147.277 34.224C145.578 34.224 144.076 33.8973 142.769 33.244C141.462 32.572 140.454 31.648 139.745 30.472C139.036 29.296 138.681 27.9613 138.681 26.468C138.681 24.9933 139.026 23.668 139.717 22.492C140.426 21.2973 141.388 20.3733 142.601 19.72C143.833 19.048 145.205 18.712 146.717 18.712C148.192 18.712 149.526 19.0293 150.721 19.664C151.916 20.2987 152.849 21.2133 153.521 22.408C154.212 23.584 154.557 24.956 154.557 26.524ZM146.745 22.016C145.756 22.016 144.925 22.296 144.253 22.856C143.581 23.416 143.17 24.1813 143.021 25.152H150.441C150.292 24.2 149.881 23.444 149.209 22.884C148.537 22.3053 147.716 22.016 146.745 22.016Z" fill="#101828"/>
<path d="M166.621 18.712C168.488 18.712 169.99 19.272 171.129 20.392C172.286 21.512 172.865 23.1733 172.865 25.376V34H168.497V26.048C168.497 24.8533 168.236 23.9667 167.713 23.388C167.19 22.7907 166.434 22.492 165.445 22.492C164.344 22.492 163.466 22.8373 162.813 23.528C162.16 24.2 161.833 25.208 161.833 26.552V34H157.465V18.936H161.637V20.7C162.216 20.0653 162.934 19.58 163.793 19.244C164.652 18.8893 165.594 18.712 166.621 18.712Z" fill="#101828"/>
<path d="M186.54 33.272C186.111 33.5893 185.579 33.832 184.944 34C184.328 34.1493 183.675 34.224 182.984 34.224C181.192 34.224 179.802 33.7667 178.812 32.852C177.842 31.9373 177.356 30.5933 177.356 28.82V22.632H175.032V19.272H177.356V15.604H181.724V19.272H185.476V22.632H181.724V28.764C181.724 29.3987 181.883 29.8933 182.2 30.248C182.536 30.584 183.003 30.752 183.6 30.752C184.291 30.752 184.879 30.5653 185.364 30.192L186.54 33.272Z" fill="#101828"/>
</svg>
