<svg width="738" height="200" viewBox="0 0 738 200" fill="none" xmlns="http://www.w3.org/2000/svg">
<line x1="1.5" y1="11" x2="736.5" y2="11" stroke="#F2F4F7" stroke-linecap="round"/>
<line x1="1.5" y1="45.5" x2="736.5" y2="45.5" stroke="#F2F4F7" stroke-linecap="round"/>
<line x1="1.5" y1="77.5" x2="736.5" y2="77.5" stroke="#F2F4F7" stroke-linecap="round"/>
<line x1="1.5" y1="109.5" x2="736.5" y2="109.5" stroke="#F2F4F7" stroke-linecap="round"/>
<line x1="1.5" y1="141.5" x2="736.5" y2="141.5" stroke="#F2F4F7" stroke-linecap="round"/>
<line x1="1.5" y1="173.5" x2="736.5" y2="173.5" stroke="#F2F4F7" stroke-linecap="round"/>
<path d="M29.7493 186.273V192.511C29.7493 193.598 29.2294 194.182 28.3175 194.182C27.4865 194.182 26.8857 193.696 26.8857 192.955H25.8459C25.8459 194.297 26.8857 195.119 28.3175 195.119C29.8345 195.119 30.8061 194.186 30.8061 192.511V186.273H29.7493ZM34.7138 195.153C35.8558 195.153 36.4524 194.54 36.657 194.114H36.7081V195H37.7138V190.688C37.7138 188.608 36.1286 188.369 35.2933 188.369C34.3047 188.369 33.1797 188.71 32.6683 189.903L33.6229 190.244C33.8445 189.767 34.3686 189.256 35.3274 189.256C36.2521 189.256 36.7081 189.746 36.7081 190.585V190.619C36.7081 191.105 36.2138 191.062 35.0206 191.216C33.8061 191.374 32.4808 191.642 32.4808 193.142C32.4808 194.42 33.4695 195.153 34.7138 195.153ZM34.8672 194.25C34.0661 194.25 33.4865 193.892 33.4865 193.193C33.4865 192.426 34.1854 192.188 34.9695 192.085C35.3956 192.034 36.5376 191.915 36.7081 191.71V192.631C36.7081 193.449 36.0604 194.25 34.8672 194.25ZM40.555 191.062C40.555 189.92 41.2624 189.273 42.2255 189.273C43.1587 189.273 43.7255 189.882 43.7255 190.909V195H44.7312V190.841C44.7312 189.17 43.8406 188.369 42.5153 188.369C41.5266 188.369 40.913 188.812 40.6062 189.477H40.521V188.455H39.5494V195H40.555V191.062Z" fill="#667085"/>
<path d="M86.1476 195H87.2045V191.097H90.9885V190.159H87.2045V187.21H91.3806V186.273H86.1476V195ZM95.3181 195.136C96.6476 195.136 97.6192 194.472 97.926 193.483L96.9545 193.21C96.6988 193.892 96.1064 194.233 95.3181 194.233C94.1377 194.233 93.3238 193.47 93.2769 192.068H98.0283V191.642C98.0283 189.205 96.5795 188.369 95.2158 188.369C93.4431 188.369 92.267 189.767 92.267 191.778C92.267 193.79 93.426 195.136 95.3181 195.136ZM93.2769 191.199C93.3451 190.18 94.0653 189.273 95.2158 189.273C96.3067 189.273 97.0056 190.091 97.0056 191.199H93.2769ZM99.6945 195H100.666V193.994H100.785C101.007 194.352 101.433 195.136 102.695 195.136C104.331 195.136 105.473 193.824 105.473 191.744C105.473 189.682 104.331 188.369 102.677 188.369C101.399 188.369 101.007 189.153 100.785 189.494H100.7V186.273H99.6945V195ZM100.683 191.727C100.683 190.261 101.331 189.273 102.558 189.273C103.837 189.273 104.467 190.347 104.467 191.727C104.467 193.125 103.82 194.233 102.558 194.233C101.348 194.233 100.683 193.21 100.683 191.727Z" fill="#667085"/>
<path d="M146.287 186.273V195H147.276V188.369H147.361L150.088 195H151.043L153.77 188.369H153.855V195H154.844V186.273H153.583L150.617 193.517H150.515L147.549 186.273H146.287ZM158.753 195.153C159.895 195.153 160.491 194.54 160.696 194.114H160.747V195H161.753V190.688C161.753 188.608 160.168 188.369 159.332 188.369C158.344 188.369 157.219 188.71 156.707 189.903L157.662 190.244C157.884 189.767 158.408 189.256 159.366 189.256C160.291 189.256 160.747 189.746 160.747 190.585V190.619C160.747 191.105 160.253 191.062 159.06 191.216C157.845 191.374 156.52 191.642 156.52 193.142C156.52 194.42 157.509 195.153 158.753 195.153ZM158.906 194.25C158.105 194.25 157.526 193.892 157.526 193.193C157.526 192.426 158.224 192.188 159.009 192.085C159.435 192.034 160.577 191.915 160.747 191.71V192.631C160.747 193.449 160.099 194.25 158.906 194.25ZM163.588 195H164.594V190.858C164.594 189.972 165.293 189.324 166.248 189.324C166.516 189.324 166.793 189.375 166.861 189.392V188.369C166.746 188.361 166.482 188.352 166.333 188.352C165.549 188.352 164.867 188.795 164.628 189.443H164.56V188.455H163.588V195Z" fill="#667085"/>
<path d="M207.744 195L208.622 192.528H212.15L213.028 195H214.136L210.931 186.273H209.84L206.636 195H207.744ZM208.954 191.591L210.352 187.653H210.42L211.818 191.591H208.954ZM215.359 197.455H216.365V193.994H216.45C216.671 194.352 217.098 195.136 218.359 195.136C219.995 195.136 221.137 193.824 221.137 191.744C221.137 189.682 219.995 188.369 218.342 188.369C217.063 188.369 216.671 189.153 216.45 189.494H216.331V188.455H215.359V197.455ZM216.348 191.727C216.348 190.261 216.995 189.273 218.223 189.273C219.501 189.273 220.132 190.347 220.132 191.727C220.132 193.125 219.484 194.233 218.223 194.233C217.012 194.233 216.348 193.21 216.348 191.727ZM222.671 195H223.677V190.858C223.677 189.972 224.376 189.324 225.331 189.324C225.599 189.324 225.876 189.375 225.944 189.392V188.369C225.829 188.361 225.565 188.352 225.416 188.352C224.632 188.352 223.95 188.795 223.711 189.443H223.643V188.455H222.671V195Z" fill="#667085"/>
<path d="M266.473 186.273V195H267.461V188.369H267.547L270.274 195H271.229L273.956 188.369H274.041V195H275.03V186.273H273.768L270.802 193.517H270.7L267.734 186.273H266.473ZM278.938 195.153C280.08 195.153 280.677 194.54 280.882 194.114H280.933V195H281.938V190.688C281.938 188.608 280.353 188.369 279.518 188.369C278.529 188.369 277.404 188.71 276.893 189.903L277.847 190.244C278.069 189.767 278.593 189.256 279.552 189.256C280.477 189.256 280.933 189.746 280.933 190.585V190.619C280.933 191.105 280.438 191.062 279.245 191.216C278.031 191.374 276.705 191.642 276.705 193.142C276.705 194.42 277.694 195.153 278.938 195.153ZM279.092 194.25C278.291 194.25 277.711 193.892 277.711 193.193C277.711 192.426 278.41 192.188 279.194 192.085C279.62 192.034 280.762 191.915 280.933 191.71V192.631C280.933 193.449 280.285 194.25 279.092 194.25ZM284.187 197.455C285.095 197.455 285.734 196.973 286.113 195.955L288.9 188.472L287.801 188.455L285.994 193.67H285.926L284.119 188.455H283.028L285.449 195.034L285.261 195.545C284.895 196.543 284.443 196.636 283.71 196.449L283.454 197.335C283.557 197.386 283.846 197.455 284.187 197.455Z" fill="#667085"/>
<path d="M333.098 186.273V192.511C333.098 193.598 332.578 194.182 331.666 194.182C330.835 194.182 330.234 193.696 330.234 192.955H329.195C329.195 194.297 330.234 195.119 331.666 195.119C333.183 195.119 334.155 194.186 334.155 192.511V186.273H333.098ZM340.261 192.324C340.261 193.551 339.324 194.114 338.574 194.114C337.739 194.114 337.142 193.5 337.142 192.545V188.455H336.136V192.614C336.136 194.284 337.023 195.085 338.25 195.085C339.239 195.085 339.886 194.557 340.193 193.892H340.261V195H341.267V188.455H340.261V192.324ZM344.115 191.062C344.115 189.92 344.822 189.273 345.785 189.273C346.718 189.273 347.285 189.882 347.285 190.909V195H348.291V190.841C348.291 189.17 347.4 188.369 346.075 188.369C345.086 188.369 344.473 188.812 344.166 189.477H344.081V188.455H343.109V195H344.115V191.062Z" fill="#667085"/>
<path d="M393.276 186.273V192.511C393.276 193.598 392.756 194.182 391.844 194.182C391.013 194.182 390.412 193.696 390.412 192.955H389.372C389.372 194.297 390.412 195.119 391.844 195.119C393.361 195.119 394.332 194.186 394.332 192.511V186.273H393.276ZM400.439 192.324C400.439 193.551 399.502 194.114 398.752 194.114C397.916 194.114 397.32 193.5 397.32 192.545V188.455H396.314V192.614C396.314 194.284 397.2 195.085 398.428 195.085C399.416 195.085 400.064 194.557 400.371 193.892H400.439V195H401.445V188.455H400.439V192.324ZM404.292 186.273H403.287V195H404.292V186.273Z" fill="#667085"/>
<path d="M446.354 195L447.232 192.528H450.76L451.638 195H452.746L449.542 186.273H448.451L445.246 195H446.354ZM447.564 191.591L448.962 187.653H449.03L450.428 191.591H447.564ZM458.094 192.324C458.094 193.551 457.157 194.114 456.407 194.114C455.572 194.114 454.975 193.5 454.975 192.545V188.455H453.969V192.614C453.969 194.284 454.856 195.085 456.083 195.085C457.072 195.085 457.719 194.557 458.026 193.892H458.094V195H459.1V188.455H458.094V192.324ZM463.584 197.591C465.152 197.591 466.414 196.875 466.414 195.188V188.455H465.442V189.494H465.34C465.118 189.153 464.709 188.369 463.431 188.369C461.777 188.369 460.635 189.682 460.635 191.693C460.635 193.739 461.828 194.898 463.414 194.898C464.692 194.898 465.101 194.148 465.323 193.79H465.408V195.119C465.408 196.21 464.641 196.705 463.584 196.705C462.395 196.705 461.977 196.078 461.709 195.716L460.908 196.278C461.317 196.964 462.122 197.591 463.584 197.591ZM463.55 193.994C462.289 193.994 461.641 193.04 461.641 191.676C461.641 190.347 462.271 189.273 463.55 189.273C464.777 189.273 465.425 190.261 465.425 191.676C465.425 193.125 464.76 193.994 463.55 193.994Z" fill="#667085"/>
<path d="M512.582 188.455H513.605C513.558 187.138 512.344 186.153 510.656 186.153C508.986 186.153 507.673 187.125 507.673 188.591C507.673 189.767 508.526 190.466 509.889 190.858L510.963 191.165C511.884 191.42 512.702 191.744 512.702 192.614C512.702 193.568 511.781 194.199 510.571 194.199C509.531 194.199 508.611 193.739 508.526 192.75H507.435C507.537 194.182 508.696 195.153 510.571 195.153C512.582 195.153 513.725 194.045 513.725 192.631C513.725 190.994 512.173 190.466 511.27 190.227L510.384 189.989C509.736 189.818 508.696 189.477 508.696 188.54C508.696 187.705 509.463 187.091 510.622 187.091C511.679 187.091 512.48 187.594 512.582 188.455ZM518.07 195.136C519.4 195.136 520.371 194.472 520.678 193.483L519.706 193.21C519.451 193.892 518.858 194.233 518.07 194.233C516.89 194.233 516.076 193.47 516.029 192.068H520.78V191.642C520.78 189.205 519.331 188.369 517.968 188.369C516.195 188.369 515.019 189.767 515.019 191.778C515.019 193.79 516.178 195.136 518.07 195.136ZM516.029 191.199C516.097 190.18 516.817 189.273 517.968 189.273C519.059 189.273 519.758 190.091 519.758 191.199H516.029ZM522.31 197.455H523.316V193.994H523.401C523.623 194.352 524.049 195.136 525.31 195.136C526.946 195.136 528.089 193.824 528.089 191.744C528.089 189.682 526.946 188.369 525.293 188.369C524.015 188.369 523.623 189.153 523.401 189.494H523.282V188.455H522.31V197.455ZM523.299 191.727C523.299 190.261 523.946 189.273 525.174 189.273C526.452 189.273 527.083 190.347 527.083 191.727C527.083 193.125 526.435 194.233 525.174 194.233C523.964 194.233 523.299 193.21 523.299 191.727Z" fill="#667085"/>
<path d="M576.637 190.636C576.637 187.875 575.018 186.153 572.785 186.153C570.552 186.153 568.933 187.875 568.933 190.636C568.933 193.398 570.552 195.119 572.785 195.119C575.018 195.119 576.637 193.398 576.637 190.636ZM575.615 190.636C575.615 192.903 574.37 194.131 572.785 194.131C571.2 194.131 569.955 192.903 569.955 190.636C569.955 188.369 571.2 187.142 572.785 187.142C574.37 187.142 575.615 188.369 575.615 190.636ZM580.937 195.136C582.386 195.136 583.34 194.25 583.511 193.091H582.505C582.318 193.807 581.721 194.233 580.937 194.233C579.744 194.233 578.977 193.244 578.977 191.727C578.977 190.244 579.761 189.273 580.937 189.273C581.823 189.273 582.352 189.818 582.505 190.415H583.511C583.34 189.188 582.301 188.369 580.92 188.369C579.147 188.369 577.971 189.767 577.971 191.761C577.971 193.722 579.096 195.136 580.937 195.136ZM587.828 188.455H586.43V186.886H585.424V188.455H584.436V189.307H585.424V193.398C585.424 194.54 586.345 195.085 587.197 195.085C587.572 195.085 587.811 195.017 587.947 194.966L587.742 194.062C587.657 194.08 587.521 194.114 587.299 194.114C586.856 194.114 586.43 193.977 586.43 193.125V189.307H587.828V188.455Z" fill="#667085"/>
<path d="M636.066 186.273H635.026V193.142H634.941L630.168 186.273H629.146V195H630.203V188.148H630.288L635.043 195H636.066V186.273ZM640.704 195.136C642.476 195.136 643.669 193.79 643.669 191.761C643.669 189.716 642.476 188.369 640.704 188.369C638.931 188.369 637.738 189.716 637.738 191.761C637.738 193.79 638.931 195.136 640.704 195.136ZM640.704 194.233C639.357 194.233 638.743 193.074 638.743 191.761C638.743 190.449 639.357 189.273 640.704 189.273C642.05 189.273 642.664 190.449 642.664 191.761C642.664 193.074 642.05 194.233 640.704 194.233ZM650.323 188.455H649.232L647.425 193.67H647.357L645.55 188.455H644.459L646.879 195H647.902L650.323 188.455Z" fill="#667085"/>
<path d="M694.094 195C696.753 195 698.253 193.347 698.253 190.619C698.253 187.909 696.753 186.273 694.213 186.273H691.401V195H694.094ZM692.457 194.062V187.21H694.145C696.19 187.21 697.23 188.506 697.23 190.619C697.23 192.75 696.19 194.062 694.026 194.062H692.457ZM702.634 195.136C703.963 195.136 704.935 194.472 705.241 193.483L704.27 193.21C704.014 193.892 703.422 194.233 702.634 194.233C701.453 194.233 700.639 193.47 700.592 192.068H705.344V191.642C705.344 189.205 703.895 188.369 702.531 188.369C700.759 188.369 699.582 189.767 699.582 191.778C699.582 193.79 700.741 195.136 702.634 195.136ZM700.592 191.199C700.661 190.18 701.381 189.273 702.531 189.273C703.622 189.273 704.321 190.091 704.321 191.199H700.592ZM709.533 195.136C710.982 195.136 711.936 194.25 712.107 193.091H711.101C710.913 193.807 710.317 194.233 709.533 194.233C708.339 194.233 707.572 193.244 707.572 191.727C707.572 190.244 708.357 189.273 709.533 189.273C710.419 189.273 710.947 189.818 711.101 190.415H712.107C711.936 189.188 710.896 188.369 709.516 188.369C707.743 188.369 706.567 189.767 706.567 191.761C706.567 193.722 707.692 195.136 709.533 195.136Z" fill="#667085"/>
<g style="mix-blend-mode:multiply" opacity="0.1">
<path d="M715.971 35.2551C726.486 35.2551 726.486 22.9166 737 22.9166V176H1V101.795C12.3904 101.795 11.5143 106.333 22.0286 106.333C32.5428 106.333 32.5428 93.444 43.0571 93.444C53.5714 93.444 51.819 97.41 64.0857 97.41C76.3524 97.41 72.8476 104.835 85.1143 104.835C97.3809 104.835 94.7523 102.015 106.143 102.015C117.533 102.015 115.343 88.5748 127.171 88.5748C139 88.5748 135.933 92.9593 148.2 92.9593C160.467 92.9593 158.276 98.9963 169.229 98.9963C180.181 98.9963 178.429 78.9464 190.257 78.9464C202.086 78.9464 200.771 85.8867 211.286 85.8867C221.8 85.8867 220.048 76.1702 232.314 76.1702C244.581 76.1702 241.952 82.3835 253.343 82.3835C264.733 82.3835 262.981 56.9795 274.371 56.9795C285.762 56.9795 283.571 64.0521 295.4 64.0521C307.229 64.0521 304.162 68.7231 316.429 68.7231C328.695 68.7231 325.629 56.605 337.457 56.605C349.286 56.605 346.219 62.5539 358.486 62.5539C370.752 62.5539 368.562 52.7492 379.514 52.7492C390.467 52.7492 389.152 36.3567 400.543 36.3567C411.933 36.3567 410.181 63.7877 421.571 63.7877C432.962 63.7877 431.648 44.575 442.6 44.575C453.552 44.575 451.362 52.9916 463.629 52.9916C475.895 52.9916 473.267 60.5489 484.657 60.5489C496.048 60.5489 494.733 48.0342 505.686 48.0342C516.638 48.0342 515.762 59.9319 526.714 59.9319C537.667 59.9319 536.352 54.644 547.743 54.644C559.133 54.644 557.381 43.7377 568.771 43.7377C580.162 43.7377 578.41 48.1003 589.8 48.1003C601.19 48.1003 600.314 32.1705 610.829 32.1705C621.343 32.1705 619.59 54.0051 631.857 54.0051C644.124 54.0051 641.057 39.1769 652.886 39.1769C664.714 39.1769 662.962 45.2801 673.914 45.2801C684.867 45.2801 683.99 30.0773 694.943 30.0773C705.895 30.0773 705.457 35.2551 715.971 35.2551Z" fill="url(#paint0_linear_7387_411638)"/>
</g>
<path d="M737 22.9166C726.486 22.9166 726.486 35.2551 715.971 35.2551C705.457 35.2551 705.895 30.0773 694.943 30.0773C683.99 30.0773 684.867 45.2801 673.914 45.2801C662.962 45.2801 664.714 39.1769 652.886 39.1769C641.057 39.1769 644.124 54.0051 631.857 54.0051C619.59 54.0051 621.343 32.1705 610.829 32.1705C600.314 32.1705 601.19 48.1003 589.8 48.1003C578.41 48.1003 580.162 43.7377 568.771 43.7377C557.381 43.7377 559.133 54.644 547.743 54.644C536.352 54.644 537.667 59.932 526.714 59.932C515.762 59.932 516.638 48.0342 505.686 48.0342C494.733 48.0342 496.048 60.5489 484.657 60.5489C473.267 60.5489 475.895 52.9916 463.629 52.9916C451.362 52.9916 453.552 44.575 442.6 44.575C431.648 44.575 432.962 63.7877 421.571 63.7877C410.181 63.7877 411.933 36.3567 400.543 36.3567C389.152 36.3567 390.467 52.7492 379.514 52.7492C368.562 52.7492 370.752 62.5539 358.486 62.5539C346.219 62.5539 349.286 56.605 337.457 56.605C325.629 56.605 328.695 68.7231 316.429 68.7231C304.162 68.7231 307.229 64.0521 295.4 64.0521C283.571 64.0521 285.762 56.9795 274.371 56.9795C262.981 56.9795 264.733 82.3835 253.343 82.3835C241.952 82.3835 244.581 76.1702 232.314 76.1702C220.048 76.1702 221.8 85.8867 211.286 85.8867C200.771 85.8867 202.086 78.9464 190.257 78.9464C178.429 78.9464 180.181 98.9963 169.229 98.9963C158.276 98.9963 160.467 92.9593 148.2 92.9593C135.933 92.9593 139 88.5748 127.171 88.5748C115.343 88.5748 117.533 102.015 106.143 102.015C94.7523 102.015 97.3809 104.835 85.1143 104.835C72.8476 104.835 76.3524 97.41 64.0857 97.41C51.819 97.41 53.5714 93.444 43.0571 93.444C32.5429 93.444 32.5429 106.333 22.0286 106.333C11.5143 106.333 12.3905 101.795 0.999981 101.795" stroke="#7F56D9" stroke-width="2" stroke-linecap="round" stroke-linejoin="round"/>
<path d="M737 86.1666C726.486 86.1666 726.486 91.6532 715.971 91.6532C705.457 91.6532 705.895 92.3789 694.943 92.3789C683.99 92.3789 684.867 96.1111 673.914 96.1111C662.962 96.1111 664.714 93.3972 652.886 93.3972C641.057 93.3972 644.124 99.9909 631.857 99.9909C619.59 99.9909 621.343 94.8236 610.829 94.8236C600.314 94.8236 601.19 97.3652 589.8 97.3652C578.41 97.3652 580.162 95.4253 568.771 95.4253C557.381 95.4253 559.133 100.275 547.743 100.275C536.352 100.275 537.667 102.626 526.714 102.626C515.762 102.626 516.638 97.3358 505.686 97.3358C494.733 97.3358 496.048 90.7887 484.657 90.7887C473.267 90.7887 475.895 99.5403 463.629 99.5403C451.362 99.5403 453.552 95.7976 442.6 95.7976C431.648 95.7976 429.818 97.8168 421.571 98.285C413.37 98.7506 411.933 98.1992 400.543 98.1992C389.152 98.1992 390.467 99.4325 379.514 99.4325C368.562 99.4325 370.752 103.792 358.486 103.792C346.219 103.792 349.286 101.147 337.457 101.147C325.629 101.147 328.695 106.536 316.429 106.536C304.162 106.536 307.229 104.459 295.4 104.459C283.571 104.459 285.762 101.314 274.371 101.314C262.981 101.314 264.733 106.554 253.343 106.554C241.952 106.554 244.581 109.847 232.314 109.847C220.048 109.847 219.105 110.864 211.286 114.168C202.177 118.017 202.086 129.25 190.257 129.25C178.429 129.25 177.793 122.343 169.229 119.997C161.196 117.798 160.467 117.313 148.2 117.313C135.933 117.313 139 115.363 127.171 115.363C115.343 115.363 117.533 121.34 106.143 121.34C94.7523 121.34 97.3809 122.594 85.1143 122.594C72.8476 122.594 76.3524 119.292 64.0857 119.292C51.819 119.292 53.5714 117.529 43.0571 117.529C32.5429 117.529 32.5429 123.26 22.0286 123.26C11.5143 123.26 12.3905 121.242 0.999981 121.242" stroke="#B692F6" stroke-width="2" stroke-linecap="round" stroke-linejoin="round"/>
<defs>
<linearGradient id="paint0_linear_7387_411638" x1="369" y1="22.9166" x2="369" y2="169.185" gradientUnits="userSpaceOnUse">
<stop stop-color="#7F56D9"/>
<stop offset="1" stop-color="#7F56D9" stop-opacity="0"/>
</linearGradient>
</defs>
</svg>
