<svg width="736" height="200" viewBox="0 0 736 200" fill="none" xmlns="http://www.w3.org/2000/svg">
<line x1="0.5" y1="11" x2="735.5" y2="11" stroke="#F2F4F7" stroke-linecap="round"/>
<line x1="0.5" y1="45.5" x2="735.5" y2="45.5" stroke="#F2F4F7" stroke-linecap="round"/>
<line x1="0.5" y1="77.5" x2="735.5" y2="77.5" stroke="#F2F4F7" stroke-linecap="round"/>
<line x1="0.5" y1="109.5" x2="735.5" y2="109.5" stroke="#F2F4F7" stroke-linecap="round"/>
<line x1="0.5" y1="141.5" x2="735.5" y2="141.5" stroke="#F2F4F7" stroke-linecap="round"/>
<line x1="0.5" y1="173.5" x2="735.5" y2="173.5" stroke="#F2F4F7" stroke-linecap="round"/>
<path d="M28.7493 186.273V192.511C28.7493 193.598 28.2294 194.182 27.3175 194.182C26.4865 194.182 25.8857 193.696 25.8857 192.955H24.8459C24.8459 194.297 25.8857 195.119 27.3175 195.119C28.8345 195.119 29.8061 194.186 29.8061 192.511V186.273H28.7493ZM33.7138 195.153C34.8558 195.153 35.4524 194.54 35.657 194.114H35.7081V195H36.7138V190.688C36.7138 188.608 35.1286 188.369 34.2933 188.369C33.3047 188.369 32.1797 188.71 31.6683 189.903L32.6229 190.244C32.8445 189.767 33.3686 189.256 34.3274 189.256C35.2521 189.256 35.7081 189.746 35.7081 190.585V190.619C35.7081 191.105 35.2138 191.062 34.0206 191.216C32.8061 191.374 31.4808 191.642 31.4808 193.142C31.4808 194.42 32.4695 195.153 33.7138 195.153ZM33.8672 194.25C33.0661 194.25 32.4865 193.892 32.4865 193.193C32.4865 192.426 33.1854 192.188 33.9695 192.085C34.3956 192.034 35.5376 191.915 35.7081 191.71V192.631C35.7081 193.449 35.0604 194.25 33.8672 194.25ZM39.555 191.062C39.555 189.92 40.2624 189.273 41.2255 189.273C42.1587 189.273 42.7255 189.882 42.7255 190.909V195H43.7312V190.841C43.7312 189.17 42.8406 188.369 41.5153 188.369C40.5266 188.369 39.913 188.812 39.6062 189.477H39.521V188.455H38.5494V195H39.555V191.062Z" fill="#667085"/>
<path d="M85.1476 195H86.2045V191.097H89.9885V190.159H86.2045V187.21H90.3806V186.273H85.1476V195ZM94.3181 195.136C95.6476 195.136 96.6192 194.472 96.926 193.483L95.9545 193.21C95.6988 193.892 95.1064 194.233 94.3181 194.233C93.1377 194.233 92.3238 193.47 92.2769 192.068H97.0283V191.642C97.0283 189.205 95.5795 188.369 94.2158 188.369C92.4431 188.369 91.267 189.767 91.267 191.778C91.267 193.79 92.426 195.136 94.3181 195.136ZM92.2769 191.199C92.3451 190.18 93.0653 189.273 94.2158 189.273C95.3067 189.273 96.0056 190.091 96.0056 191.199H92.2769ZM98.6945 195H99.6661V193.994H99.7854C100.007 194.352 100.433 195.136 101.695 195.136C103.331 195.136 104.473 193.824 104.473 191.744C104.473 189.682 103.331 188.369 101.677 188.369C100.399 188.369 100.007 189.153 99.7854 189.494H99.7002V186.273H98.6945V195ZM99.6831 191.727C99.6831 190.261 100.331 189.273 101.558 189.273C102.837 189.273 103.467 190.347 103.467 191.727C103.467 193.125 102.82 194.233 101.558 194.233C100.348 194.233 99.6831 193.21 99.6831 191.727Z" fill="#667085"/>
<path d="M145.287 186.273V195H146.276V188.369H146.361L149.088 195H150.043L152.77 188.369H152.855V195H153.844V186.273H152.583L149.617 193.517H149.515L146.549 186.273H145.287ZM157.753 195.153C158.895 195.153 159.491 194.54 159.696 194.114H159.747V195H160.753V190.688C160.753 188.608 159.168 188.369 158.332 188.369C157.344 188.369 156.219 188.71 155.707 189.903L156.662 190.244C156.884 189.767 157.408 189.256 158.366 189.256C159.291 189.256 159.747 189.746 159.747 190.585V190.619C159.747 191.105 159.253 191.062 158.06 191.216C156.845 191.374 155.52 191.642 155.52 193.142C155.52 194.42 156.509 195.153 157.753 195.153ZM157.906 194.25C157.105 194.25 156.526 193.892 156.526 193.193C156.526 192.426 157.224 192.188 158.009 192.085C158.435 192.034 159.577 191.915 159.747 191.71V192.631C159.747 193.449 159.099 194.25 157.906 194.25ZM162.588 195H163.594V190.858C163.594 189.972 164.293 189.324 165.248 189.324C165.516 189.324 165.793 189.375 165.861 189.392V188.369C165.746 188.361 165.482 188.352 165.333 188.352C164.549 188.352 163.867 188.795 163.628 189.443H163.56V188.455H162.588V195Z" fill="#667085"/>
<path d="M206.744 195L207.622 192.528H211.15L212.028 195H213.136L209.931 186.273H208.84L205.636 195H206.744ZM207.954 191.591L209.352 187.653H209.42L210.818 191.591H207.954ZM214.359 197.455H215.365V193.994H215.45C215.671 194.352 216.098 195.136 217.359 195.136C218.995 195.136 220.137 193.824 220.137 191.744C220.137 189.682 218.995 188.369 217.342 188.369C216.063 188.369 215.671 189.153 215.45 189.494H215.331V188.455H214.359V197.455ZM215.348 191.727C215.348 190.261 215.995 189.273 217.223 189.273C218.501 189.273 219.132 190.347 219.132 191.727C219.132 193.125 218.484 194.233 217.223 194.233C216.012 194.233 215.348 193.21 215.348 191.727ZM221.671 195H222.677V190.858C222.677 189.972 223.376 189.324 224.331 189.324C224.599 189.324 224.876 189.375 224.944 189.392V188.369C224.829 188.361 224.565 188.352 224.416 188.352C223.632 188.352 222.95 188.795 222.711 189.443H222.643V188.455H221.671V195Z" fill="#667085"/>
<path d="M265.473 186.273V195H266.461V188.369H266.547L269.274 195H270.229L272.956 188.369H273.041V195H274.03V186.273H272.768L269.802 193.517H269.7L266.734 186.273H265.473ZM277.938 195.153C279.08 195.153 279.677 194.54 279.882 194.114H279.933V195H280.938V190.688C280.938 188.608 279.353 188.369 278.518 188.369C277.529 188.369 276.404 188.71 275.893 189.903L276.847 190.244C277.069 189.767 277.593 189.256 278.552 189.256C279.477 189.256 279.933 189.746 279.933 190.585V190.619C279.933 191.105 279.438 191.062 278.245 191.216C277.031 191.374 275.705 191.642 275.705 193.142C275.705 194.42 276.694 195.153 277.938 195.153ZM278.092 194.25C277.291 194.25 276.711 193.892 276.711 193.193C276.711 192.426 277.41 192.188 278.194 192.085C278.62 192.034 279.762 191.915 279.933 191.71V192.631C279.933 193.449 279.285 194.25 278.092 194.25ZM283.187 197.455C284.095 197.455 284.734 196.973 285.113 195.955L287.9 188.472L286.801 188.455L284.994 193.67H284.926L283.119 188.455H282.028L284.449 195.034L284.261 195.545C283.895 196.543 283.443 196.636 282.71 196.449L282.454 197.335C282.557 197.386 282.846 197.455 283.187 197.455Z" fill="#667085"/>
<path d="M332.098 186.273V192.511C332.098 193.598 331.578 194.182 330.666 194.182C329.835 194.182 329.234 193.696 329.234 192.955H328.195C328.195 194.297 329.234 195.119 330.666 195.119C332.183 195.119 333.155 194.186 333.155 192.511V186.273H332.098ZM339.261 192.324C339.261 193.551 338.324 194.114 337.574 194.114C336.739 194.114 336.142 193.5 336.142 192.545V188.455H335.136V192.614C335.136 194.284 336.023 195.085 337.25 195.085C338.239 195.085 338.886 194.557 339.193 193.892H339.261V195H340.267V188.455H339.261V192.324ZM343.115 191.062C343.115 189.92 343.822 189.273 344.785 189.273C345.718 189.273 346.285 189.882 346.285 190.909V195H347.291V190.841C347.291 189.17 346.4 188.369 345.075 188.369C344.086 188.369 343.473 188.812 343.166 189.477H343.081V188.455H342.109V195H343.115V191.062Z" fill="#667085"/>
<path d="M392.276 186.273V192.511C392.276 193.598 391.756 194.182 390.844 194.182C390.013 194.182 389.412 193.696 389.412 192.955H388.372C388.372 194.297 389.412 195.119 390.844 195.119C392.361 195.119 393.332 194.186 393.332 192.511V186.273H392.276ZM399.439 192.324C399.439 193.551 398.502 194.114 397.752 194.114C396.916 194.114 396.32 193.5 396.32 192.545V188.455H395.314V192.614C395.314 194.284 396.2 195.085 397.428 195.085C398.416 195.085 399.064 194.557 399.371 193.892H399.439V195H400.445V188.455H399.439V192.324ZM403.292 186.273H402.287V195H403.292V186.273Z" fill="#667085"/>
<path d="M445.354 195L446.232 192.528H449.76L450.638 195H451.746L448.542 186.273H447.451L444.246 195H445.354ZM446.564 191.591L447.962 187.653H448.03L449.428 191.591H446.564ZM457.094 192.324C457.094 193.551 456.157 194.114 455.407 194.114C454.572 194.114 453.975 193.5 453.975 192.545V188.455H452.969V192.614C452.969 194.284 453.856 195.085 455.083 195.085C456.072 195.085 456.719 194.557 457.026 193.892H457.094V195H458.1V188.455H457.094V192.324ZM462.584 197.591C464.152 197.591 465.414 196.875 465.414 195.188V188.455H464.442V189.494H464.34C464.118 189.153 463.709 188.369 462.431 188.369C460.777 188.369 459.635 189.682 459.635 191.693C459.635 193.739 460.828 194.898 462.414 194.898C463.692 194.898 464.101 194.148 464.323 193.79H464.408V195.119C464.408 196.21 463.641 196.705 462.584 196.705C461.395 196.705 460.977 196.078 460.709 195.716L459.908 196.278C460.317 196.964 461.122 197.591 462.584 197.591ZM462.55 193.994C461.289 193.994 460.641 193.04 460.641 191.676C460.641 190.347 461.271 189.273 462.55 189.273C463.777 189.273 464.425 190.261 464.425 191.676C464.425 193.125 463.76 193.994 462.55 193.994Z" fill="#667085"/>
<path d="M511.582 188.455H512.605C512.558 187.138 511.344 186.153 509.656 186.153C507.986 186.153 506.673 187.125 506.673 188.591C506.673 189.767 507.526 190.466 508.889 190.858L509.963 191.165C510.884 191.42 511.702 191.744 511.702 192.614C511.702 193.568 510.781 194.199 509.571 194.199C508.531 194.199 507.611 193.739 507.526 192.75H506.435C506.537 194.182 507.696 195.153 509.571 195.153C511.582 195.153 512.725 194.045 512.725 192.631C512.725 190.994 511.173 190.466 510.27 190.227L509.384 189.989C508.736 189.818 507.696 189.477 507.696 188.54C507.696 187.705 508.463 187.091 509.622 187.091C510.679 187.091 511.48 187.594 511.582 188.455ZM517.07 195.136C518.4 195.136 519.371 194.472 519.678 193.483L518.706 193.21C518.451 193.892 517.858 194.233 517.07 194.233C515.89 194.233 515.076 193.47 515.029 192.068H519.78V191.642C519.78 189.205 518.331 188.369 516.968 188.369C515.195 188.369 514.019 189.767 514.019 191.778C514.019 193.79 515.178 195.136 517.07 195.136ZM515.029 191.199C515.097 190.18 515.817 189.273 516.968 189.273C518.059 189.273 518.758 190.091 518.758 191.199H515.029ZM521.31 197.455H522.316V193.994H522.401C522.623 194.352 523.049 195.136 524.31 195.136C525.946 195.136 527.089 193.824 527.089 191.744C527.089 189.682 525.946 188.369 524.293 188.369C523.015 188.369 522.623 189.153 522.401 189.494H522.282V188.455H521.31V197.455ZM522.299 191.727C522.299 190.261 522.946 189.273 524.174 189.273C525.452 189.273 526.083 190.347 526.083 191.727C526.083 193.125 525.435 194.233 524.174 194.233C522.964 194.233 522.299 193.21 522.299 191.727Z" fill="#667085"/>
<path d="M575.637 190.636C575.637 187.875 574.018 186.153 571.785 186.153C569.552 186.153 567.933 187.875 567.933 190.636C567.933 193.398 569.552 195.119 571.785 195.119C574.018 195.119 575.637 193.398 575.637 190.636ZM574.615 190.636C574.615 192.903 573.37 194.131 571.785 194.131C570.2 194.131 568.955 192.903 568.955 190.636C568.955 188.369 570.2 187.142 571.785 187.142C573.37 187.142 574.615 188.369 574.615 190.636ZM579.937 195.136C581.386 195.136 582.34 194.25 582.511 193.091H581.505C581.318 193.807 580.721 194.233 579.937 194.233C578.744 194.233 577.977 193.244 577.977 191.727C577.977 190.244 578.761 189.273 579.937 189.273C580.823 189.273 581.352 189.818 581.505 190.415H582.511C582.34 189.188 581.301 188.369 579.92 188.369C578.147 188.369 576.971 189.767 576.971 191.761C576.971 193.722 578.096 195.136 579.937 195.136ZM586.828 188.455H585.43V186.886H584.424V188.455H583.436V189.307H584.424V193.398C584.424 194.54 585.345 195.085 586.197 195.085C586.572 195.085 586.811 195.017 586.947 194.966L586.742 194.062C586.657 194.08 586.521 194.114 586.299 194.114C585.856 194.114 585.43 193.977 585.43 193.125V189.307H586.828V188.455Z" fill="#667085"/>
<path d="M635.066 186.273H634.026V193.142H633.941L629.168 186.273H628.146V195H629.203V188.148H629.288L634.043 195H635.066V186.273ZM639.704 195.136C641.476 195.136 642.669 193.79 642.669 191.761C642.669 189.716 641.476 188.369 639.704 188.369C637.931 188.369 636.738 189.716 636.738 191.761C636.738 193.79 637.931 195.136 639.704 195.136ZM639.704 194.233C638.357 194.233 637.743 193.074 637.743 191.761C637.743 190.449 638.357 189.273 639.704 189.273C641.05 189.273 641.664 190.449 641.664 191.761C641.664 193.074 641.05 194.233 639.704 194.233ZM649.323 188.455H648.232L646.425 193.67H646.357L644.55 188.455H643.459L645.879 195H646.902L649.323 188.455Z" fill="#667085"/>
<path d="M693.094 195C695.753 195 697.253 193.347 697.253 190.619C697.253 187.909 695.753 186.273 693.213 186.273H690.401V195H693.094ZM691.457 194.062V187.21H693.145C695.19 187.21 696.23 188.506 696.23 190.619C696.23 192.75 695.19 194.062 693.026 194.062H691.457ZM701.634 195.136C702.963 195.136 703.935 194.472 704.241 193.483L703.27 193.21C703.014 193.892 702.422 194.233 701.634 194.233C700.453 194.233 699.639 193.47 699.592 192.068H704.344V191.642C704.344 189.205 702.895 188.369 701.531 188.369C699.759 188.369 698.582 189.767 698.582 191.778C698.582 193.79 699.741 195.136 701.634 195.136ZM699.592 191.199C699.661 190.18 700.381 189.273 701.531 189.273C702.622 189.273 703.321 190.091 703.321 191.199H699.592ZM708.533 195.136C709.982 195.136 710.936 194.25 711.107 193.091H710.101C709.913 193.807 709.317 194.233 708.533 194.233C707.339 194.233 706.572 193.244 706.572 191.727C706.572 190.244 707.357 189.273 708.533 189.273C709.419 189.273 709.947 189.818 710.101 190.415H711.107C710.936 189.188 709.896 188.369 708.516 188.369C706.743 188.369 705.567 189.767 705.567 191.761C705.567 193.722 706.692 195.136 708.533 195.136Z" fill="#667085"/>
<path d="M20 70C20 66.6863 22.6863 64 26 64H46C49.3137 64 52 66.6863 52 70V174H20V70Z" fill="#D6BBFB"/>
<path d="M80.3633 38C80.3633 34.6863 83.0496 32 86.3633 32H106.363C109.677 32 112.363 34.6863 112.363 38V174H80.3633V38Z" fill="#D6BBFB"/>
<path d="M140.728 102C140.728 98.6863 143.414 96 146.728 96H166.728C170.041 96 172.728 98.6863 172.728 102V174H140.728V102Z" fill="#D6BBFB"/>
<path d="M201.091 62C201.091 58.6863 203.777 56 207.091 56H227.091C230.405 56 233.091 58.6863 233.091 62V174H201.091V62Z" fill="#D6BBFB"/>
<path d="M261.454 102C261.454 98.6863 264.14 96 267.454 96H287.454C290.768 96 293.454 98.6863 293.454 102V174H261.454V102Z" fill="#D6BBFB"/>
<path d="M321.818 46C321.818 42.6863 324.505 40 327.818 40H347.818C351.132 40 353.818 42.6863 353.818 46V174H321.818V46Z" fill="#D6BBFB"/>
<path d="M382.182 70C382.182 66.6863 384.868 64 388.182 64H408.182C411.495 64 414.182 66.6863 414.182 70V174H382.182V70Z" fill="#D6BBFB"/>
<path d="M442.546 62C442.546 58.6863 445.232 56 448.546 56H468.546C471.86 56 474.546 58.6863 474.546 62V174H442.546V62Z" fill="#D6BBFB"/>
<path d="M502.909 70C502.909 66.6863 505.595 64 508.909 64H528.909C532.223 64 534.909 66.6863 534.909 70V174H502.909V70Z" fill="#D6BBFB"/>
<path d="M563.272 54C563.272 50.6863 565.959 48 569.272 48H589.272C592.586 48 595.272 50.6863 595.272 54V174H563.272V54Z" fill="#D6BBFB"/>
<path d="M623.637 38C623.637 34.6863 626.323 32 629.637 32H649.637C652.95 32 655.637 34.6863 655.637 38V174H623.637V38Z" fill="#D6BBFB"/>
<path d="M684 78C684 74.6863 686.686 72 690 72H710C713.314 72 716 74.6863 716 78V174H684V78Z" fill="#D6BBFB"/>
</svg>
