<svg width="20" height="18" viewBox="0 0 20 18" fill="none" xmlns="http://www.w3.org/2000/svg">
<path d="M6.66661 13.1666L9.99994 16.4999M9.99994 16.4999L13.3333 13.1666M9.99994 16.4999V8.99994M17.3999 14.0749C18.1244 13.5655 18.6677 12.8384 18.951 11.9992C19.2343 11.1601 19.2428 10.2525 18.9753 9.40813C18.7078 8.5638 18.1782 7.82669 17.4633 7.30375C16.7485 6.7808 15.8856 6.49925 14.9999 6.49994H13.9499C13.6993 5.52317 13.2304 4.61598 12.5784 3.84668C11.9264 3.07737 11.1084 2.46599 10.186 2.05857C9.2635 1.65115 8.26065 1.4583 7.25288 1.49454C6.24512 1.53078 5.2587 1.79517 4.3679 2.2678C3.47711 2.74043 2.70513 3.40898 2.1101 4.22314C1.51507 5.03729 1.11249 5.97582 0.932662 6.96807C0.752836 7.96032 0.800453 8.98044 1.07193 9.95163C1.3434 10.9228 1.83166 11.8198 2.49994 12.5749" stroke="#667085" stroke-width="1.66667" stroke-linecap="round" stroke-linejoin="round"/>
</svg>
