<svg width="55" height="22" viewBox="0 0 55 22" fill="none" xmlns="http://www.w3.org/2000/svg">
<g style="mix-blend-mode:multiply">
<path d="M0 11C0 4.92487 4.92487 0 11 0H44C50.0751 0 55 4.92487 55 11V11C55 17.0751 50.0751 22 44 22H11C4.92487 22 0 17.0751 0 11V11Z" fill="#ECFDF3"/>
<path d="M16 8L10.5 13.5L8 11" stroke="#12B76A" stroke-width="1.5" stroke-linecap="round" stroke-linejoin="round"/>
<path d="M22.9842 15H24.301V11.9318H26.0907C28.1149 11.9318 29.1163 10.7088 29.1163 9.09801C29.1163 7.49148 28.1234 6.27273 26.095 6.27273H22.9842V15ZM24.301 10.8153V7.40199H25.9544C27.2583 7.40199 27.791 8.10938 27.791 9.09801C27.791 10.0866 27.2583 10.8153 25.9714 10.8153H24.301ZM32.4039 15.1449C33.4863 15.1449 34.0957 14.5952 34.3386 14.1051H34.3897V15H35.6341V10.6534C35.6341 8.74858 34.1341 8.36932 33.0943 8.36932C31.9096 8.36932 30.8187 8.84659 30.3926 10.0398L31.59 10.3125C31.7775 9.84801 32.2548 9.40057 33.1113 9.40057C33.9338 9.40057 34.3556 9.83097 34.3556 10.5724V10.6023C34.3556 11.0668 33.8784 11.0582 32.7022 11.1946C31.4622 11.3395 30.1923 11.6634 30.1923 13.1506C30.1923 14.4375 31.1596 15.1449 32.4039 15.1449ZM32.6809 14.1222C31.9608 14.1222 31.4409 13.7983 31.4409 13.1676C31.4409 12.4858 32.046 12.2429 32.7832 12.1449C33.1966 12.0895 34.1767 11.9787 34.3599 11.7955V12.6392C34.3599 13.4148 33.742 14.1222 32.6809 14.1222ZM37.3311 15H38.6053V8.45455H37.3311V15ZM37.9746 7.4446C38.4135 7.4446 38.78 7.10369 38.78 6.68608C38.78 6.26847 38.4135 5.9233 37.9746 5.9233C37.5314 5.9233 37.1692 6.26847 37.1692 6.68608C37.1692 7.10369 37.5314 7.4446 37.9746 7.4446ZM42.7697 15.1278C43.9629 15.1278 44.4316 14.3991 44.6618 13.9815H44.7683V15H46.0126V6.27273H44.7385V9.51562H44.6618C44.4316 9.1108 43.997 8.36932 42.7782 8.36932C41.1973 8.36932 40.0339 9.6179 40.0339 11.7401C40.0339 13.858 41.1802 15.1278 42.7697 15.1278ZM43.051 14.0412C41.9132 14.0412 41.3208 13.0398 41.3208 11.7273C41.3208 10.4276 41.9004 9.4517 43.051 9.4517C44.1632 9.4517 44.7598 10.3594 44.7598 11.7273C44.7598 13.1037 44.1504 14.0412 43.051 14.0412Z" fill="#027A48"/>
</g>
</svg>
