<svg width="46" height="32" viewBox="0 0 46 32" fill="none" xmlns="http://www.w3.org/2000/svg">
<path d="M0 6C0 2.68629 2.68629 0 6 0H40C43.3137 0 46 2.68629 46 6V26C46 29.3137 43.3137 32 40 32H6C2.68629 32 0 29.3137 0 26V6Z" fill="white"/>
<path fill-rule="evenodd" clip-rule="evenodd" d="M14.3337 21.1441H11.5873L9.52793 13.0563C9.43019 12.6843 9.22264 12.3554 8.91734 12.2003C8.15544 11.8108 7.31588 11.5007 6.39999 11.3444V11.033H10.8241C11.4347 11.033 11.8926 11.5007 11.969 12.044L13.0375 17.878L15.7825 11.033H18.4525L14.3337 21.1441ZM19.979 21.1441H17.3853L19.521 11.033H22.1147L19.979 21.1441ZM25.4703 13.8341C25.5466 13.2895 26.0045 12.9781 26.5388 12.9781C27.3784 12.8999 28.2929 13.0563 29.0561 13.4445L29.5141 11.2676C28.7509 10.9562 27.9113 10.7998 27.1494 10.7998C24.632 10.7998 22.8003 12.2003 22.8003 14.1441C22.8003 15.6228 24.0978 16.3993 25.0137 16.867C26.0045 17.3334 26.3861 17.6448 26.3098 18.1112C26.3098 18.8108 25.5466 19.1222 24.7847 19.1222C23.8688 19.1222 22.9529 18.889 22.1147 18.4994L21.6567 20.6777C22.5726 21.066 23.5635 21.2223 24.4794 21.2223C27.302 21.2992 29.0561 19.9 29.0561 17.7998C29.0561 15.1551 25.4703 15.0001 25.4703 13.8341ZM38.1333 21.1441L36.0739 11.033H33.8619C33.4039 11.033 32.946 11.3444 32.7933 11.8108L28.9798 21.1441H31.6498L32.1827 19.6668H35.4633L35.7686 21.1441H38.1333ZM34.2435 13.7559L35.0054 17.5666H32.8697L34.2435 13.7559Z" fill="#172B85"/>
<path d="M6 1H40V-1H6V1ZM45 6V26H47V6H45ZM40 31H6V33H40V31ZM1 26V6H-1V26H1ZM6 31C3.23858 31 1 28.7614 1 26H-1C-1 29.866 2.13401 33 6 33V31ZM45 26C45 28.7614 42.7614 31 40 31V33C43.866 33 47 29.866 47 26H45ZM40 1C42.7614 1 45 3.23858 45 6H47C47 2.13401 43.866 -1 40 -1V1ZM6 -1C2.13401 -1 -1 2.13401 -1 6H1C1 3.23858 3.23858 1 6 1V-1Z" fill="#F2F4F7"/>
</svg>
