<svg width="28" height="28" viewBox="0 0 28 28" fill="none" xmlns="http://www.w3.org/2000/svg">
<path d="M13.9997 9.33331V14M13.9997 18.6666H14.0113M12.0047 3.33664L2.12299 19.8333C1.91925 20.1861 1.81145 20.5862 1.81031 20.9936C1.80917 21.401 1.91473 21.8016 2.11649 22.1556C2.31825 22.5095 2.60917 22.8045 2.96032 23.0111C3.31146 23.2178 3.71059 23.3288 4.11799 23.3333H23.8813C24.2887 23.3288 24.6879 23.2178 25.039 23.0111C25.3901 22.8045 25.6811 22.5095 25.8828 22.1556C26.0846 21.8016 26.1901 21.401 26.189 20.9936C26.1879 20.5862 26.0801 20.1861 25.8763 19.8333L15.9947 3.33664C15.7867 2.99377 15.4938 2.71028 15.1444 2.51354C14.7949 2.3168 14.4007 2.21344 13.9997 2.21344C13.5986 2.21344 13.2044 2.3168 12.8549 2.51354C12.5055 2.71028 12.2126 2.99377 12.0047 3.33664Z" stroke="#DC6803" stroke-width="2.33333" stroke-linecap="round" stroke-linejoin="round"/>
</svg>
