<svg width="12" height="12" viewBox="0 0 12 12" fill="none" xmlns="http://www.w3.org/2000/svg">
<path d="M5.99989 3.99998V5.99998M5.99989 7.99998H6.00489M5.14489 1.42998L0.909888 8.49998C0.822572 8.65119 0.776372 8.82263 0.775883 8.99724C0.775394 9.17185 0.820634 9.34355 0.907102 9.49524C0.993569 9.64694 1.11825 9.77335 1.26874 9.86191C1.41923 9.95046 1.59029 9.99806 1.76489 9.99998H10.2349C10.4095 9.99806 10.5805 9.95046 10.731 9.86191C10.8815 9.77335 11.0062 9.64694 11.0927 9.49524C11.1791 9.34355 11.2244 9.17185 11.2239 8.99724C11.2234 8.82263 11.1772 8.65119 11.0899 8.49998L6.85489 1.42998C6.76575 1.28303 6.64025 1.16154 6.49049 1.07722C6.34072 0.992904 6.17176 0.948608 5.99989 0.948608C5.82802 0.948608 5.65905 0.992904 5.50929 1.07722C5.35953 1.16154 5.23402 1.28303 5.14489 1.42998Z" stroke="#DC6803" stroke-linecap="round" stroke-linejoin="round"/>
</svg>
