<svg width="20" height="20" viewBox="0 0 20 20" fill="none" xmlns="http://www.w3.org/2000/svg">
<path d="M9.9999 6.66667V10M9.9999 13.3333H10.0082M8.5749 2.38334L1.51656 14.1667C1.37104 14.4187 1.29403 14.7044 1.29322 14.9954C1.2924 15.2865 1.3678 15.5726 1.51192 15.8254C1.65603 16.0783 1.86383 16.289 2.11465 16.4366C2.36547 16.5841 2.65056 16.6635 2.94156 16.6667H17.0582C17.3492 16.6635 17.6343 16.5841 17.8851 16.4366C18.136 16.289 18.3438 16.0783 18.4879 15.8254C18.632 15.5726 18.7074 15.2865 18.7066 14.9954C18.7058 14.7044 18.6288 14.4187 18.4832 14.1667L11.4249 2.38334C11.2763 2.13843 11.0672 1.93594 10.8176 1.79541C10.568 1.65488 10.2863 1.58105 9.9999 1.58105C9.71345 1.58105 9.43184 1.65488 9.18223 1.79541C8.93263 1.93594 8.72345 2.13843 8.5749 2.38334Z" stroke="#DC6803" stroke-width="1.66667" stroke-linecap="round" stroke-linejoin="round"/>
</svg>
