<svg width="132" height="44" viewBox="0 0 132 44" fill="none" xmlns="http://www.w3.org/2000/svg">
<path d="M89.6784 21.1209V23.641H88.0987V25.2937H89.6784V30.9092C89.6784 32.8267 90.5458 33.5936 92.7281 33.5936C93.1116 33.5936 93.4768 33.548 93.7964 33.4932V31.8588C93.5224 31.8862 93.349 31.9044 93.0476 31.9044C92.0706 31.9044 91.6415 31.4479 91.6415 30.407V25.2937H93.7964V23.641H91.6415V21.1209H89.6784Z" fill="white"/>
<path d="M99.3556 33.7306C102.259 33.7306 104.04 31.7857 104.04 28.5625C104.04 25.3576 102.25 23.4036 99.3556 23.4036C96.452 23.4036 94.6623 25.3576 94.6623 28.5625C94.6623 31.7857 96.4429 33.7306 99.3556 33.7306ZM99.3556 31.9866C97.6481 31.9866 96.6894 30.7357 96.6894 28.5625C96.6894 26.4077 97.6481 25.1476 99.3556 25.1476C101.054 25.1476 102.022 26.4077 102.022 28.5625C102.022 30.7266 101.054 31.9866 99.3556 31.9866Z" fill="white"/>
<path d="M105.563 33.5389H107.526V27.6677C107.526 26.2707 108.576 25.3302 110.065 25.3302C110.412 25.3302 110.996 25.3941 111.16 25.4489V23.5132C110.95 23.4584 110.576 23.431 110.284 23.431C108.987 23.431 107.882 24.1432 107.599 25.1202H107.453V23.5954H105.563V33.5389Z" fill="white"/>
<path d="M116.035 25.0746C117.487 25.0746 118.436 26.0881 118.482 27.6495H113.46C113.569 26.0972 114.583 25.0746 116.035 25.0746ZM118.473 30.8544C118.107 31.6305 117.295 32.0597 116.108 32.0597C114.537 32.0597 113.524 30.9548 113.46 29.2108V29.1013H120.481V28.4165C120.481 25.2937 118.811 23.4036 116.044 23.4036C113.241 23.4036 111.46 25.4215 111.46 28.5991C111.46 31.7766 113.204 33.7306 116.053 33.7306C118.327 33.7306 119.915 32.6349 120.363 30.8544H118.473Z" fill="white"/>
<path d="M76.8044 29.8669C76.9558 32.3086 78.9906 33.8701 82.019 33.8701C85.2556 33.8701 87.2809 32.2329 87.2809 29.6208C87.2809 27.5672 86.1263 26.4315 83.325 25.7785L81.8203 25.4094C80.041 24.993 79.3218 24.4346 79.3218 23.4598C79.3218 22.2295 80.4385 21.4251 82.1136 21.4251C83.7036 21.4251 84.8014 22.2106 85.0001 23.4693H87.0632C86.9402 21.1696 84.9149 19.5513 82.142 19.5513C79.1609 19.5513 77.1735 21.1696 77.1735 23.6018C77.1735 25.6081 78.2997 26.8006 80.7698 27.3779L82.53 27.8038C84.3376 28.2296 85.1326 28.8542 85.1326 29.8953C85.1326 31.1067 83.8834 31.9868 82.1799 31.9868C80.3534 31.9868 79.0852 31.1634 78.9054 29.8669H76.8044Z" fill="white"/>
<path d="M56.4683 23.431C55.117 23.431 53.9482 24.1067 53.3456 25.2389H53.1995V23.5954H51.3094V36.8442H53.2725V32.0323H53.4278C53.9482 33.0823 55.0713 33.7032 56.4866 33.7032C58.9976 33.7032 60.5955 31.7218 60.5955 28.5625C60.5955 25.4033 58.9976 23.431 56.4683 23.431ZM55.9114 31.941C54.2678 31.941 53.236 30.6444 53.236 28.5717C53.236 26.4898 54.2678 25.1933 55.9205 25.1933C57.5823 25.1933 58.5776 26.4624 58.5776 28.5625C58.5776 30.6718 57.5823 31.941 55.9114 31.941Z" fill="white"/>
<path d="M67.4648 23.431C66.1134 23.431 64.9447 24.1067 64.3421 25.2389H64.196V23.5954H62.3059V36.8442H64.269V32.0323H64.4242C64.9447 33.0823 66.0678 33.7032 67.4831 33.7032C69.9941 33.7032 71.592 31.7218 71.592 28.5625C71.592 25.4033 69.9941 23.431 67.4648 23.431ZM66.9078 31.941C65.2643 31.941 64.2325 30.6444 64.2325 28.5717C64.2325 26.4898 65.2643 25.1933 66.917 25.1933C68.5788 25.1933 69.574 26.4624 69.574 28.5625C69.574 30.6718 68.5788 31.941 66.9078 31.941Z" fill="white"/>
<path d="M47.7872 33.5389H50.0396L45.1089 19.8825H42.8281L37.8975 33.5389H40.0742L41.3328 29.9142H46.538L47.7872 33.5389ZM43.8597 22.362H44.0206L45.9985 28.135H41.8723L43.8597 22.362Z" fill="white"/>
<path d="M39.2163 9.58196V16.1699H41.5949C43.558 16.1699 44.6948 14.96 44.6948 12.8554C44.6948 10.7827 43.5489 9.58196 41.5949 9.58196H39.2163ZM40.239 10.5133H41.4808C42.8458 10.5133 43.6539 11.3807 43.6539 12.8691C43.6539 14.3802 42.8595 15.2385 41.4808 15.2385H40.239V10.5133Z" fill="white"/>
<path d="M48.1764 16.2657C49.6282 16.2657 50.5185 15.2933 50.5185 13.6817C50.5185 12.0792 49.6237 11.1022 48.1764 11.1022C46.7246 11.1022 45.8298 12.0792 45.8298 13.6817C45.8298 15.2933 46.72 16.2657 48.1764 16.2657ZM48.1764 15.3937C47.3227 15.3937 46.8433 14.7683 46.8433 13.6817C46.8433 12.6043 47.3227 11.9742 48.1764 11.9742C49.0256 11.9742 49.5095 12.6043 49.5095 13.6817C49.5095 14.7637 49.0256 15.3937 48.1764 15.3937Z" fill="white"/>
<path d="M58.0998 11.1981H57.1183L56.2326 14.992H56.155L55.1323 11.1981H54.1918L53.1692 14.992H53.0961L52.2059 11.1981H51.2106L52.5802 16.1699H53.5892L54.6119 12.5084H54.6895L55.7167 16.1699H56.7348L58.0998 11.1981Z" fill="white"/>
<path d="M59.2302 16.1699H60.2118V13.2617C60.2118 12.4856 60.6729 12.0016 61.3988 12.0016C62.1247 12.0016 62.4717 12.3988 62.4717 13.1978V16.1699H63.4533V12.9512C63.4533 11.7688 62.8415 11.1022 61.7321 11.1022C60.9834 11.1022 60.4903 11.4355 60.2483 11.9879H60.1753V11.1981H59.2302V16.1699Z" fill="white"/>
<path d="M64.9991 16.1699H65.9807V9.25781H64.9991V16.1699Z" fill="white"/>
<path d="M69.6723 16.2657C71.1241 16.2657 72.0144 15.2933 72.0144 13.6817C72.0144 12.0792 71.1195 11.1022 69.6723 11.1022C68.2205 11.1022 67.3257 12.0792 67.3257 13.6817C67.3257 15.2933 68.2159 16.2657 69.6723 16.2657ZM69.6723 15.3937C68.8186 15.3937 68.3392 14.7683 68.3392 13.6817C68.3392 12.6043 68.8186 11.9742 69.6723 11.9742C70.5215 11.9742 71.0054 12.6043 71.0054 13.6817C71.0054 14.7637 70.5215 15.3937 69.6723 15.3937Z" fill="white"/>
<path d="M74.939 15.4257C74.4048 15.4257 74.0168 15.1655 74.0168 14.7181C74.0168 14.2798 74.3272 14.0469 75.012 14.0013L76.2264 13.9237V14.3391C76.2264 14.9555 75.6786 15.4257 74.939 15.4257ZM74.6879 16.2521C75.3407 16.2521 75.884 15.969 76.1808 15.4714H76.2584V16.1699H77.2034V12.7732C77.2034 11.7231 76.5003 11.1022 75.254 11.1022C74.1263 11.1022 73.3228 11.6501 73.2224 12.5038H74.172C74.2816 12.1523 74.6605 11.9514 75.2083 11.9514C75.8794 11.9514 76.2264 12.2482 76.2264 12.7732V13.2023L74.8796 13.28C73.6972 13.353 73.0306 13.8689 73.0306 14.7637C73.0306 15.6722 73.7291 16.2521 74.6879 16.2521Z" fill="white"/>
<path d="M80.5344 16.2521C81.2192 16.2521 81.799 15.9279 82.0957 15.3846H82.1734V16.1699H83.1138V9.25781H82.1323V11.9879H82.0592C81.7899 11.4401 81.2146 11.1159 80.5344 11.1159C79.2789 11.1159 78.4708 12.1112 78.4708 13.6817C78.4708 15.2568 79.2697 16.2521 80.5344 16.2521ZM80.8129 11.9971C81.6346 11.9971 82.1505 12.6499 82.1505 13.6863C82.1505 14.7272 81.6392 15.3709 80.8129 15.3709C79.9819 15.3709 79.4843 14.7363 79.4843 13.6817C79.4843 12.6362 79.9865 11.9971 80.8129 11.9971Z" fill="white"/>
<path d="M89.479 16.2657C90.9308 16.2657 91.821 15.2933 91.821 13.6817C91.821 12.0792 90.9262 11.1022 89.479 11.1022C88.0271 11.1022 87.1323 12.0792 87.1323 13.6817C87.1323 15.2933 88.0226 16.2657 89.479 16.2657ZM89.479 15.3937C88.6252 15.3937 88.1459 14.7683 88.1459 13.6817C88.1459 12.6043 88.6252 11.9742 89.479 11.9742C90.3281 11.9742 90.8121 12.6043 90.8121 13.6817C90.8121 14.7637 90.3281 15.3937 89.479 15.3937Z" fill="white"/>
<path d="M93.1203 16.1699H94.1019V13.2617C94.1019 12.4856 94.563 12.0016 95.2889 12.0016C96.0148 12.0016 96.3618 12.3988 96.3618 13.1978V16.1699H97.3434V12.9512C97.3434 11.7688 96.7316 11.1022 95.6222 11.1022C94.8735 11.1022 94.3804 11.4355 94.1384 11.9879H94.0654V11.1981H93.1203V16.1699Z" fill="white"/>
<path d="M101.864 9.96089V11.2209H101.074V12.0473H101.864V14.855C101.864 15.8138 102.298 16.1973 103.389 16.1973C103.581 16.1973 103.763 16.1744 103.923 16.147V15.3298C103.786 15.3435 103.699 15.3527 103.549 15.3527C103.06 15.3527 102.846 15.1244 102.846 14.6039V12.0473H103.923V11.2209H102.846V9.96089H101.864Z" fill="white"/>
<path d="M105.241 16.1699H106.222V13.2663C106.222 12.513 106.67 12.0062 107.473 12.0062C108.167 12.0062 108.537 12.408 108.537 13.2023V16.1699H109.518V12.9604C109.518 11.7779 108.866 11.1068 107.806 11.1068C107.058 11.1068 106.533 11.4401 106.291 11.9971H106.213V9.25781H105.241V16.1699Z" fill="white"/>
<path d="M113.059 11.9377C113.785 11.9377 114.26 12.4445 114.283 13.2252H111.772C111.827 12.449 112.333 11.9377 113.059 11.9377ZM114.278 14.8276C114.096 15.2157 113.689 15.4303 113.096 15.4303C112.311 15.4303 111.804 14.8779 111.772 14.0059V13.9511H115.283V13.6087C115.283 12.0473 114.447 11.1022 113.064 11.1022C111.662 11.1022 110.772 12.1112 110.772 13.7C110.772 15.2887 111.644 16.2657 113.069 16.2657C114.205 16.2657 115 15.7179 115.223 14.8276H114.278Z" fill="white"/>
<path d="M27.2458 22.3307C27.2696 20.4816 28.2627 18.7319 29.838 17.7634C28.8442 16.3441 27.1796 15.4442 25.4477 15.39C23.6006 15.1961 21.8098 16.4953 20.8685 16.4953C19.909 16.4953 18.4598 15.4092 16.8992 15.4413C14.865 15.507 12.9687 16.6636 11.979 18.442C9.85158 22.1252 11.4384 27.5384 13.4763 30.5157C14.4959 31.9736 15.6875 33.6021 17.2467 33.5443C18.7725 33.481 19.3423 32.5714 21.184 32.5714C23.0087 32.5714 23.5433 33.5443 25.1341 33.5076C26.7714 33.481 27.8029 32.0432 28.7867 30.5715C29.5193 29.5327 30.083 28.3846 30.457 27.1698C28.5329 26.356 27.248 24.4197 27.2458 22.3307Z" fill="white"/>
<path d="M24.241 13.432C25.1336 12.3603 25.5734 10.9829 25.4669 9.59229C24.1031 9.73553 22.8433 10.3873 21.9386 11.4179C21.0539 12.4247 20.5935 13.7779 20.6805 15.1154C22.0448 15.1294 23.386 14.4953 24.241 13.432Z" fill="white"/>
<path d="M4.32122 43.4672L4.7039 42.5433L4.32122 43.4672ZM0.532843 39.6788L1.45672 39.2961L0.532843 39.6788ZM131.467 39.6788L130.543 39.2961L131.467 39.6788ZM127.679 43.4672L127.296 42.5433L127.679 43.4672ZM127.679 0.532843L128.061 -0.391036L127.679 0.532843ZM131.467 4.32122L132.391 3.93853L131.467 4.32122ZM10.5 1H121.5V-1H10.5V1ZM131 10.5V33.5H133V10.5H131ZM121.5 43H10.5V45H121.5V43ZM1 33.5V10.5H-1V33.5H1ZM10.5 43C8.85552 43 7.67224 42.9995 6.73798 42.9357C5.8127 42.8726 5.20494 42.7508 4.7039 42.5433L3.93853 44.391C4.72389 44.7163 5.57473 44.861 6.60184 44.9311C7.61997 45.0005 8.88288 45 10.5 45V43ZM-1 33.5C-1 35.1171 -1.00054 36.38 -0.931075 37.3982C-0.860996 38.4253 -0.716341 39.2761 -0.391036 40.0615L1.45672 39.2961C1.24918 38.7951 1.12742 38.1873 1.06429 37.262C1.00054 36.3278 1 35.1445 1 33.5H-1ZM4.7039 42.5433C3.23373 41.9343 2.06569 40.7663 1.45672 39.2961L-0.391036 40.0615C0.420915 42.0217 1.97831 43.5791 3.93853 44.391L4.7039 42.5433ZM131 33.5C131 35.1445 130.999 36.3278 130.936 37.262C130.873 38.1873 130.751 38.7951 130.543 39.2961L132.391 40.0615C132.716 39.2761 132.861 38.4253 132.931 37.3982C133.001 36.38 133 35.1171 133 33.5H131ZM121.5 45C123.117 45 124.38 45.0005 125.398 44.9311C126.425 44.861 127.276 44.7163 128.061 44.391L127.296 42.5433C126.795 42.7508 126.187 42.8726 125.262 42.9357C124.328 42.9995 123.144 43 121.5 43V45ZM130.543 39.2961C129.934 40.7663 128.766 41.9343 127.296 42.5433L128.061 44.391C130.022 43.5791 131.579 42.0217 132.391 40.0615L130.543 39.2961ZM121.5 1C123.144 1 124.328 1.00054 125.262 1.06429C126.187 1.12742 126.795 1.24918 127.296 1.45672L128.061 -0.391036C127.276 -0.716341 126.425 -0.860996 125.398 -0.931075C124.38 -1.00054 123.117 -1 121.5 -1V1ZM133 10.5C133 8.88289 133.001 7.61997 132.931 6.60184C132.861 5.57473 132.716 4.72389 132.391 3.93853L130.543 4.7039C130.751 5.20494 130.873 5.8127 130.936 6.73798C130.999 7.67225 131 8.85552 131 10.5H133ZM127.296 1.45672C128.766 2.06569 129.934 3.23373 130.543 4.7039L132.391 3.93853C131.579 1.97831 130.022 0.420915 128.061 -0.391036L127.296 1.45672ZM10.5 -1C8.88289 -1 7.61997 -1.00054 6.60184 -0.931075C5.57473 -0.860996 4.72389 -0.716341 3.93853 -0.391036L4.7039 1.45672C5.20494 1.24918 5.8127 1.12742 6.73798 1.06429C7.67225 1.00054 8.85552 1 10.5 1V-1ZM1 10.5C1 8.85552 1.00054 7.67225 1.06429 6.73798C1.12742 5.8127 1.24918 5.20494 1.45672 4.7039L-0.391036 3.93853C-0.716341 4.72389 -0.860996 5.57473 -0.931075 6.60184C-1.00054 7.61997 -1 8.88289 -1 10.5H1ZM3.93853 -0.391036C1.97831 0.420915 0.420915 1.97831 -0.391036 3.93853L1.45672 4.7039C2.06569 3.23373 3.23373 2.06569 4.7039 1.45672L3.93853 -0.391036Z" fill="white"/>
</svg>
