<svg width="16" height="16" viewBox="0 0 16 16" fill="none" xmlns="http://www.w3.org/2000/svg">
<g clip-path="url(#clip0_7442_418894)">
<path d="M16 8C16 12.4183 12.4183 16 8 16C3.58175 16 0 12.4183 0 8C0 8.00187 8 0.00090625 8 0C12.4183 0 16 3.58175 16 8Z" fill="#0052B4"/>
<path d="M7.97852 8.00045H7.99996C7.99996 7.99318 7.99996 7.98624 7.99996 7.979C7.99283 7.98617 7.98569 7.99331 7.97852 8.00045Z" fill="#F0F0F0"/>
<path d="M7.99975 4.17488C7.99975 2.76723 7.99975 1.84482 7.99975 0.000976562H7.99841C3.58075 0.00169531 -0.000244141 3.5831 -0.000244141 8.00094H4.17366V5.65057L6.52403 8.00094H7.97838C7.98553 7.99382 7.99266 7.98669 7.99978 7.97954C7.99978 7.44057 7.99978 6.95966 7.99978 6.52529L5.64938 4.17488H7.99975Z" fill="#F0F0F0"/>
<path d="M4.04745 1.04395C2.79624 1.75641 1.75605 2.7966 1.04358 4.04782V8.00048H3.13055V3.13095V3.13091H8.00011C8.00011 2.4727 8.00011 1.84563 8.00011 1.04395H4.04745Z" fill="#D80027"/>
<path d="M8.00025 7.01658L5.15797 4.17433H4.17419C4.17419 4.1743 4.17419 4.17433 4.17419 4.17433L8.00022 8.00036H8.00025C8.00025 8.00036 8.00025 7.32208 8.00025 7.01658Z" fill="#D80027"/>
<path d="M4.82498 9.39111L5.26404 10.3092L6.25551 10.08L5.81151 10.9957L6.60883 11.628L5.61611 11.8517L5.61889 12.8694L4.82498 12.2327L4.03111 12.8694L4.03389 11.8517L3.04114 11.628L3.83848 10.9957L3.39442 10.08L4.38595 10.3092L4.82498 9.39111Z" fill="#F0F0F0"/>
<path d="M11.9781 11.1304L12.1976 11.5894L12.6934 11.4748L12.4713 11.9327L12.87 12.2488L12.3736 12.3607L12.375 12.8695L11.9781 12.5512L11.5811 12.8695L11.5825 12.3607L11.0862 12.2488L11.4848 11.9327L11.2628 11.4748L11.7586 11.5894L11.9781 11.1304Z" fill="#F0F0F0"/>
<path d="M9.93564 6.26123L10.1551 6.72029L10.6509 6.60567L10.4289 7.06351L10.8275 7.37967L10.3312 7.49154L10.3325 8.00036L9.93564 7.68201L9.5387 8.00036L9.54004 7.49154L9.0437 7.37967L9.44236 7.06351L9.22036 6.60567L9.71611 6.72029L9.93564 6.26123Z" fill="#F0F0F0"/>
<path d="M11.9781 3.47852L12.1976 3.93758L12.6934 3.82298L12.4714 4.28083L12.87 4.59695L12.3736 4.70886L12.375 5.21767L11.9781 4.89933L11.5811 5.21767L11.5825 4.70886L11.0862 4.59695L11.4848 4.28083L11.2628 3.82298L11.7586 3.93758L11.9781 3.47852Z" fill="#F0F0F0"/>
<path d="M13.7614 5.56543L13.9809 6.02449L14.4767 5.90987L14.2547 6.36771L14.6533 6.68387L14.157 6.79577L14.1583 7.30455L13.7614 6.98624L13.3645 7.30455L13.3659 6.79577L12.8695 6.68387L13.2682 6.36771L13.0462 5.90987L13.5419 6.02449L13.7614 5.56543Z" fill="#F0F0F0"/>
<path d="M12.4861 8.00049L12.6588 8.53193H13.2176L12.7655 8.86039L12.9382 9.3918L12.4861 9.06336L12.034 9.3918L12.2067 8.86039L11.7546 8.53193H12.3134L12.4861 8.00049Z" fill="#F0F0F0"/>
</g>
<defs>
<clipPath id="clip0_7442_418894">
<rect width="16" height="16" fill="white"/>
</clipPath>
</defs>
</svg>
