<svg width="53" height="49" viewBox="0 0 53 49" fill="none" xmlns="http://www.w3.org/2000/svg">
<path d="M33.5158 5.90098C20.6315 13.6818 13.4779 27.9119 9.17852 41.8289C8.95748 42.5441 8.68725 43.2619 8.44036 43.9605C7.74998 42.5676 3.03917 30.9998 1.13728 31.707C0.0257532 32.1204 0.66157 33.6059 0.906182 34.2052C2.67675 38.5372 4.40644 42.4209 6.52199 46.6102C8.11427 49.7639 11.0772 48.9418 14.0123 47.9819C18.4934 46.5165 18.8571 46.0964 23.4466 44.4097C24.203 44.1315 24.9979 43.9067 25.699 43.5593C26.5233 43.1502 27.4071 42.2845 26.9695 41.341C26.4735 40.2716 25.3945 40.3471 24.4728 40.7397C24.2803 40.8222 24.0849 40.8977 23.8877 40.9686C21.7215 41.7463 11.8895 45.8951 11.562 45.1937C11.4515 44.9575 11.4888 44.6827 11.5306 44.4255C12.7342 37.0033 15.9214 29.9331 19.6866 23.4731C22.2199 19.126 25.4713 15.1994 29.2601 11.8874C32.3047 9.22577 35.7371 6.96599 39.4762 5.40628C43.4857 3.73348 47.3659 3.38882 51.6492 3.13439C54.1151 2.98817 52.162 0.638911 50.7901 0.374295C49.2823 0.083026 47.668 0.606093 46.2031 0.91103C41.5692 1.87811 37.3375 3.59325 33.5158 5.90098Z" fill="#6941C6"/>
</svg>
