<svg width="44" height="40" viewBox="0 0 44 40" fill="none" xmlns="http://www.w3.org/2000/svg">
<path d="M22.0038 12.9019L15.082 0.686431C15.3119 0.452438 15.5763 0.298959 15.8407 0.195801C13.7995 0.867587 12.8629 3.15971 12.8629 3.15971L0.217906 25.4695C0.0399813 26.169 -0.00944653 26.8005 0.0127941 27.3566H13.8143L22.0038 12.9019Z" fill="#34A853"/>
<path d="M22.0039 12.9019L30.1934 27.3566H43.9949C44.0172 26.8005 43.9677 26.169 43.7898 25.4695L31.1448 3.15971C31.1448 3.15971 30.2057 0.867587 28.167 0.195801C28.429 0.298959 28.6959 0.452438 28.9257 0.686431L22.0039 12.9019Z" fill="#FBBC05"/>
<path d="M22.0038 12.9024L28.9256 0.686923C28.6958 0.45293 28.4289 0.299451 28.1669 0.196292C27.8654 0.0981663 27.5417 0.0327491 27.1908 0.0151367H26.8251H17.1825H16.8168C16.4684 0.030233 16.1422 0.0956502 15.8407 0.196292C15.5787 0.299451 15.3119 0.45293 15.082 0.686923L22.0038 12.9024Z" fill="#188038"/>
<path d="M13.8164 27.3564L6.97375 39.4335C6.97375 39.4335 6.7464 39.3228 6.4375 39.0938C7.40867 39.8411 8.35266 39.9996 8.35266 39.9996H35.2267C36.7094 39.9996 37.0183 39.4335 37.0183 39.4335C37.0233 39.431 37.0257 39.4285 37.0307 39.426L30.1929 27.3564H13.8164Z" fill="#4285F4"/>
<path d="M13.8172 27.3564H0.015625C0.084818 28.9969 0.796518 29.9555 0.796518 29.9555L1.31547 30.8563C1.35253 30.9091 1.37477 30.9393 1.37477 30.9393L2.5041 32.922L5.03953 37.3351C5.11366 37.5138 5.20016 37.6773 5.29159 37.8333C5.32619 37.8861 5.35831 37.944 5.39538 37.9943C5.40526 38.0094 5.41515 38.0245 5.42503 38.0396C5.73887 38.4824 6.08978 38.8246 6.44069 39.0938C6.74959 39.3253 6.97694 39.4335 6.97694 39.4335L13.8172 27.3564Z" fill="#1967D2"/>
<path d="M30.1943 27.3564H43.9959C43.9267 28.9969 43.215 29.9555 43.215 29.9555L42.696 30.8563C42.659 30.9091 42.6367 30.9393 42.6367 30.9393L41.5074 32.922L38.972 37.3351C38.8978 37.5138 38.8113 37.6773 38.7199 37.8333C38.6853 37.8861 38.6532 37.944 38.6161 37.9943C38.6062 38.0094 38.5963 38.0245 38.5864 38.0396C38.2726 38.4824 37.9217 38.8246 37.5708 39.0938C37.2619 39.3253 37.0346 39.4335 37.0346 39.4335L30.1943 27.3564Z" fill="#EA4335"/>
</svg>
