<svg width="149" height="44" viewBox="0 0 149 44" fill="none" xmlns="http://www.w3.org/2000/svg">
<path d="M74.9496 23.9264C72.3624 23.9264 70.2537 25.8943 70.2537 28.6047C70.2537 31.2986 72.3624 33.283 74.9496 33.283C77.5379 33.283 79.6466 31.2986 79.6466 28.6047C79.6455 25.8943 77.5368 23.9264 74.9496 23.9264ZM74.9496 31.4416C73.5317 31.4416 72.3096 30.2723 72.3096 28.6058C72.3096 26.9217 73.5328 25.77 74.9496 25.77C76.3675 25.77 77.5896 26.9217 77.5896 28.6058C77.5896 30.2712 76.3675 31.4416 74.9496 31.4416ZM64.7042 23.9264C62.117 23.9264 60.0083 25.8943 60.0083 28.6047C60.0083 31.2986 62.117 33.283 64.7042 33.283C67.2925 33.283 69.4012 31.2986 69.4012 28.6047C69.4012 25.8943 67.2925 23.9264 64.7042 23.9264ZM64.7042 31.4416C63.2863 31.4416 62.0642 30.2723 62.0642 28.6058C62.0642 26.9217 63.2874 25.77 64.7042 25.77C66.1221 25.77 67.3442 26.9217 67.3442 28.6058C67.3453 30.2712 66.1221 31.4416 64.7042 31.4416ZM52.5184 25.363V27.3474H57.2682C57.1263 28.4639 56.7545 29.279 56.1869 29.8455C55.4961 30.5363 54.4148 31.2986 52.5184 31.2986C49.5946 31.2986 47.3088 28.9413 47.3088 26.0175C47.3088 23.0937 49.5946 20.7364 52.5184 20.7364C54.0958 20.7364 55.2475 21.3568 56.0978 22.1543L57.4981 20.754C56.3101 19.6199 54.7338 18.752 52.5184 18.752C48.5133 18.752 45.1462 22.0124 45.1462 26.0175C45.1462 30.0226 48.5133 33.283 52.5184 33.283C54.6799 33.283 56.3112 32.5735 57.5861 31.2447C58.8973 29.9335 59.3054 28.0899 59.3054 26.6016C59.3054 26.1418 59.2702 25.7161 59.1987 25.3619H52.5184V25.363ZM102.357 26.9041C101.968 25.8591 100.78 23.9264 98.3521 23.9264C95.942 23.9264 93.9389 25.8228 93.9389 28.6047C93.9389 31.2271 95.9244 33.283 98.582 33.283C100.726 33.283 101.967 31.9718 102.482 31.2095L100.887 30.1458C100.355 30.9257 99.6281 31.4394 98.582 31.4394C97.537 31.4394 96.7923 30.9609 96.3138 30.0215L102.57 27.4343L102.357 26.9041ZM95.9772 28.4639C95.9244 26.6555 97.3775 25.7348 98.4236 25.7348C99.2387 25.7348 99.9295 26.1429 100.161 26.727L95.9772 28.4639ZM90.8919 33.0003H92.9467V19.2492H90.8919V33.0003ZM87.5237 24.9725H87.4533C86.9924 24.4225 86.1058 23.9264 84.9904 23.9264C82.6507 23.9264 80.5068 25.9823 80.5068 28.6234C80.5068 31.2458 82.6507 33.2841 84.9904 33.2841C86.1069 33.2841 86.9924 32.788 87.4533 32.2215H87.5237V32.8947C87.5237 34.6844 86.5667 35.6414 85.0256 35.6414C83.7672 35.6414 82.9873 34.7383 82.6683 33.976L80.8786 34.7207C81.3923 35.9604 82.7563 37.485 85.0256 37.485C87.4357 37.485 89.474 36.0671 89.474 32.6109V24.2113H87.5248V24.9725H87.5237ZM85.1675 31.4416C83.7496 31.4416 82.5627 30.2536 82.5627 28.6234C82.5627 26.9745 83.7496 25.77 85.1675 25.77C86.5667 25.77 87.6656 26.9745 87.6656 28.6234C87.6656 30.2536 86.5667 31.4416 85.1675 31.4416ZM111.987 19.2492H107.069V33.0003H109.12V27.7907H111.986C114.26 27.7907 116.498 26.144 116.498 23.5205C116.498 20.897 114.261 19.2492 111.987 19.2492ZM112.039 25.8767H109.12V21.1632H112.039C113.574 21.1632 114.445 22.4337 114.445 23.5205C114.445 24.5853 113.574 25.8767 112.039 25.8767ZM124.725 23.9022C123.239 23.9022 121.7 24.5567 121.063 26.0076L122.884 26.7677C123.274 26.0076 124 25.759 124.76 25.759C125.821 25.759 126.9 26.3959 126.918 27.5278V27.6697C126.546 27.4574 125.75 27.1395 124.777 27.1395C122.814 27.1395 120.814 28.2186 120.814 30.2349C120.814 32.0752 122.425 33.2599 124.229 33.2599C125.608 33.2599 126.369 32.6406 126.847 31.9146H126.917V32.9761H128.899V27.7038C128.9 25.264 127.076 23.9022 124.725 23.9022ZM124.476 31.4383C123.805 31.4383 122.867 31.1017 122.867 30.2701C122.867 29.2086 124.035 28.8016 125.044 28.8016C125.945 28.8016 126.37 28.9963 126.918 29.2614C126.759 30.5363 125.662 31.4383 124.476 31.4383ZM136.117 24.2025L133.764 30.1645H133.694L131.252 24.2025H129.041L132.703 32.535L130.615 37.1704H132.756L138.4 24.2025H136.117ZM117.631 33.0003H119.682V19.2492H117.631V33.0003Z" fill="white"/>
<path d="M52.1599 11.267C52.1599 12.1888 51.8871 12.9225 51.3404 13.4703C50.72 14.1215 49.9104 14.4471 48.916 14.4471C47.9634 14.4471 47.1527 14.1171 46.4872 13.4571C45.8206 12.796 45.4873 11.9776 45.4873 11.0008C45.4873 10.0229 45.8206 9.20452 46.4872 8.54452C47.1527 7.88342 47.9634 7.55342 48.916 7.55342C49.389 7.55342 49.8411 7.64582 50.2701 7.82952C50.7002 8.01432 51.0445 8.25962 51.3019 8.56652L50.7222 9.14732C50.2855 8.62482 49.6838 8.36412 48.9149 8.36412C48.2197 8.36412 47.6191 8.60832 47.112 9.09672C46.6049 9.58512 46.3519 10.2198 46.3519 10.9997C46.3519 11.7796 46.6049 12.4143 47.112 12.9027C47.6191 13.3911 48.2197 13.6353 48.9149 13.6353C49.6519 13.6353 50.2668 13.39 50.7585 12.8983C51.0775 12.5782 51.2623 12.1327 51.3118 11.5618H48.9149V10.7687H52.1126C52.1456 10.9414 52.1599 11.1075 52.1599 11.267Z" fill="white"/>
<path d="M57.231 8.51048H54.2258V10.6027H56.9362V11.3958H54.2258V13.488H57.231V14.2998H53.3777V7.69978H57.231V8.51048Z" fill="white"/>
<path d="M60.807 14.2998H59.9589V8.51048H58.1153V7.69978H62.6506V8.51048H60.807V14.2998Z" fill="white"/>
<path d="M65.9318 14.2998V7.69978H66.7799V14.2998H65.9318Z" fill="white"/>
<path d="M70.541 14.2998H69.6929V8.51048H67.8493V7.69978H72.3846V8.51048H70.541V14.2998Z" fill="white"/>
<path d="M80.9699 13.4473C80.3209 14.1139 79.5146 14.4472 78.5499 14.4472C77.5852 14.4472 76.7789 14.1139 76.131 13.4473C75.482 12.7807 75.1586 11.9645 75.1586 10.9998C75.1586 10.0351 75.482 9.21887 76.131 8.55227C76.7789 7.88567 77.5852 7.55127 78.5499 7.55127C79.5091 7.55127 80.3143 7.88677 80.9655 8.55667C81.6167 9.22657 81.9423 10.0406 81.9423 10.9998C81.9423 11.9645 81.6178 12.7807 80.9699 13.4473ZM76.7569 12.894C77.2453 13.389 77.8426 13.6354 78.5499 13.6354C79.2572 13.6354 79.8556 13.3879 80.3429 12.894C80.8313 12.399 81.0766 11.7676 81.0766 10.9998C81.0766 10.232 80.8313 9.60057 80.3429 9.10557C79.8556 8.61057 79.2572 8.36417 78.5499 8.36417C77.8426 8.36417 77.2453 8.61167 76.7569 9.10557C76.2696 9.60057 76.0243 10.232 76.0243 10.9998C76.0243 11.7676 76.2696 12.399 76.7569 12.894Z" fill="white"/>
<path d="M83.1325 14.2998V7.69978H84.1643L87.3719 12.8335H87.4082L87.3719 11.5619V7.69978H88.22V14.2998H87.3345L83.9784 8.91638H83.9421L83.9784 10.188V14.2998H83.1325Z" fill="white"/>
<path d="M52.1599 11.267C52.1599 12.1888 51.8871 12.9225 51.3404 13.4703C50.72 14.1215 49.9104 14.4471 48.916 14.4471C47.9634 14.4471 47.1527 14.1171 46.4872 13.4571C45.8206 12.796 45.4873 11.9776 45.4873 11.0008C45.4873 10.0229 45.8206 9.20452 46.4872 8.54452C47.1527 7.88342 47.9634 7.55342 48.916 7.55342C49.389 7.55342 49.8411 7.64582 50.2701 7.82952C50.7002 8.01432 51.0445 8.25962 51.3019 8.56652L50.7222 9.14732C50.2855 8.62482 49.6838 8.36412 48.9149 8.36412C48.2197 8.36412 47.6191 8.60832 47.112 9.09672C46.6049 9.58512 46.3519 10.2198 46.3519 10.9997C46.3519 11.7796 46.6049 12.4143 47.112 12.9027C47.6191 13.3911 48.2197 13.6353 48.9149 13.6353C49.6519 13.6353 50.2668 13.39 50.7585 12.8983C51.0775 12.5782 51.2623 12.1327 51.3118 11.5618H48.9149V10.7687H52.1126C52.1456 10.9414 52.1599 11.1075 52.1599 11.267Z" stroke="white" stroke-width="0.2" stroke-miterlimit="10"/>
<path d="M57.231 8.51048H54.2258V10.6027H56.9362V11.3958H54.2258V13.488H57.231V14.2998H53.3777V7.69978H57.231V8.51048Z" stroke="white" stroke-width="0.2" stroke-miterlimit="10"/>
<path d="M60.807 14.2998H59.9589V8.51048H58.1153V7.69978H62.6506V8.51048H60.807V14.2998Z" stroke="white" stroke-width="0.2" stroke-miterlimit="10"/>
<path d="M65.9318 14.2998V7.69978H66.7799V14.2998H65.9318Z" stroke="white" stroke-width="0.2" stroke-miterlimit="10"/>
<path d="M70.541 14.2998H69.6929V8.51048H67.8493V7.69978H72.3846V8.51048H70.541V14.2998Z" stroke="white" stroke-width="0.2" stroke-miterlimit="10"/>
<path d="M80.9699 13.4473C80.3209 14.1139 79.5146 14.4472 78.5499 14.4472C77.5852 14.4472 76.7789 14.1139 76.131 13.4473C75.482 12.7807 75.1586 11.9645 75.1586 10.9998C75.1586 10.0351 75.482 9.21887 76.131 8.55227C76.7789 7.88567 77.5852 7.55127 78.5499 7.55127C79.5091 7.55127 80.3143 7.88677 80.9655 8.55667C81.6167 9.22657 81.9423 10.0406 81.9423 10.9998C81.9423 11.9645 81.6178 12.7807 80.9699 13.4473ZM76.7569 12.894C77.2453 13.389 77.8426 13.6354 78.5499 13.6354C79.2572 13.6354 79.8556 13.3879 80.3429 12.894C80.8313 12.399 81.0766 11.7676 81.0766 10.9998C81.0766 10.232 80.8313 9.60057 80.3429 9.10557C79.8556 8.61057 79.2572 8.36417 78.5499 8.36417C77.8426 8.36417 77.2453 8.61167 76.7569 9.10557C76.2696 9.60057 76.0243 10.232 76.0243 10.9998C76.0243 11.7676 76.2696 12.399 76.7569 12.894Z" stroke="white" stroke-width="0.2" stroke-miterlimit="10"/>
<path d="M83.1325 14.2998V7.69978H84.1643L87.3719 12.8335H87.4082L87.3719 11.5619V7.69978H88.22V14.2998H87.3345L83.9784 8.91638H83.9421L83.9784 10.188V14.2998H83.1325Z" stroke="white" stroke-width="0.2" stroke-miterlimit="10"/>
<path fill-rule="evenodd" clip-rule="evenodd" d="M11.1941 8.7146C11.0502 9.01741 10.9702 9.39455 10.9702 9.83725V34.1649C10.9702 34.6085 11.0503 34.9857 11.1944 35.2883L24.4802 22.0006L11.1941 8.7146ZM11.8879 36.009C12.3846 36.245 13.044 36.1876 13.7653 35.7786L29.3832 26.9037L25.1873 22.7078L11.8879 36.009ZM30.2857 26.392L35.2164 23.5906C36.7531 22.7161 36.7531 21.2872 35.2164 20.4138L30.2835 17.6108L25.8943 22.0006L30.2857 26.392ZM29.3818 17.0984L13.7653 8.22466C13.044 7.81477 12.3845 7.75779 11.8879 7.99411L25.1872 21.2935L29.3818 17.0984Z" fill="white"/>
<path d="M5 1H143.5V-1H5V1ZM147.5 5V39H149.5V5H147.5ZM143.5 43H5V45H143.5V43ZM1 39V5H-1V39H1ZM5 43C2.79086 43 1 41.2091 1 39H-1C-1 42.3137 1.68629 45 5 45V43ZM147.5 39C147.5 41.2091 145.709 43 143.5 43V45C146.814 45 149.5 42.3137 149.5 39H147.5ZM143.5 1C145.709 1 147.5 2.79086 147.5 5H149.5C149.5 1.68629 146.814 -1 143.5 -1V1ZM5 -1C1.68629 -1 -1 1.68629 -1 5H1C1 2.79086 2.79086 1 5 1V-1Z" fill="white"/>
</svg>
