<svg width="48" height="48" viewBox="0 0 48 48" fill="none" xmlns="http://www.w3.org/2000/svg">
<path d="M0 24C0 10.7452 10.7452 0 24 0V0C37.2548 0 48 10.7452 48 24V24C48 37.2548 37.2548 48 24 48V48C10.7452 48 0 37.2548 0 24V24Z" fill="#F4EBFF"/>
<path d="M32.84 16.6099C32.3292 16.0989 31.7228 15.6935 31.0554 15.417C30.3879 15.1404 29.6725 14.998 28.95 14.998C28.2275 14.998 27.5121 15.1404 26.8446 15.417C26.1772 15.6935 25.5708 16.0989 25.06 16.6099L24 17.6699L22.94 16.6099C21.9083 15.5782 20.509 14.9986 19.05 14.9986C17.591 14.9986 16.1917 15.5782 15.16 16.6099C14.1283 17.6416 13.5487 19.0408 13.5487 20.4999C13.5487 21.9589 14.1283 23.3582 15.16 24.3899L16.22 25.4499L24 33.2299L31.78 25.4499L32.84 24.3899C33.351 23.8791 33.7563 23.2727 34.0329 22.6052C34.3095 21.9378 34.4518 21.2224 34.4518 20.4999C34.4518 19.7774 34.3095 19.062 34.0329 18.3945C33.7563 17.7271 33.351 17.1206 32.84 16.6099V16.6099Z" stroke="#7F56D9" stroke-width="2" stroke-linecap="round" stroke-linejoin="round"/>
</svg>
