<svg width="156" height="34" viewBox="0 0 156 34" fill="none" xmlns="http://www.w3.org/2000/svg">
<path d="M33.9445 16.9998C31.4495 19.8129 27.8238 21.5832 23.7883 21.5832C19.7528 21.5832 16.127 19.8129 13.6321 16.9998C16.127 14.1868 19.7528 12.4165 23.7883 12.4165C27.8238 12.4165 31.4495 14.1868 33.9445 16.9998Z" fill="white"/>
<path fill-rule="evenodd" clip-rule="evenodd" d="M10.1626 26.1665C10.1626 18.5726 16.2631 12.4165 23.7883 12.4165C19.7529 12.4165 16.1271 14.1868 13.6322 16.9998C16.1271 19.8129 19.7529 21.5832 23.7884 21.5832C27.8239 21.5832 31.4496 19.8129 33.9446 16.9999C36.1021 19.4325 37.4141 22.6449 37.4141 26.1665V31.3609C37.4141 32.036 36.8718 32.5832 36.2029 32.5832H11.3738C10.7049 32.5832 10.1626 32.036 10.1626 31.3609V26.1665ZM33.9446 16.9999C33.9446 16.9998 33.9446 16.9999 33.9446 16.9999V16.9999Z" fill="#7CD4FD"/>
<path fill-rule="evenodd" clip-rule="evenodd" d="M18.6775 20.5832C16.7319 19.7882 15.0097 18.553 13.6322 16.9998C16.1271 14.1868 19.7529 12.4165 23.7884 12.4165C27.8239 12.4165 31.4496 14.1868 33.9446 16.9998C33.9446 16.9998 33.9446 16.9998 33.9446 16.9998C36.1021 14.5672 37.4141 11.3548 37.4141 7.83317V2.63873C37.4141 1.96371 36.8718 1.41651 36.2029 1.41651L11.3738 1.4165C10.7049 1.4165 10.1626 1.96371 10.1626 2.63873L10.1626 7.83317C10.1626 13.6032 13.6846 18.5431 18.6775 20.5832Z" fill="#0BA5EC"/>
<path d="M58.6971 10.2397V24.0834H55.9455V18.1929H50.069V24.0834H47.3174V10.2397H50.069V15.9319H55.9455V10.2397H58.6971Z" fill="#101828"/>
<path d="M66.2403 24.2619C65.1921 24.2619 64.2487 24.0305 63.4101 23.5677C62.5715 23.0917 61.9098 22.424 61.425 21.5646C60.9533 20.7051 60.7175 19.7135 60.7175 18.5896C60.7175 17.4657 60.9599 16.474 61.4447 15.6146C61.9426 14.7551 62.6174 14.094 63.4691 13.6312C64.3207 13.1552 65.2707 12.9172 66.3189 12.9172C67.3671 12.9172 68.3171 13.1552 69.1688 13.6312C70.0204 14.094 70.6887 14.7551 71.1735 15.6146C71.6714 16.474 71.9203 17.4657 71.9203 18.5896C71.9203 19.7135 71.6648 20.7051 71.1538 21.5646C70.6559 22.424 69.9746 23.0917 69.1098 23.5677C68.2581 24.0305 67.3016 24.2619 66.2403 24.2619ZM66.2403 21.8422C66.7382 21.8422 67.2033 21.7232 67.6357 21.4852C68.0812 21.234 68.435 20.8638 68.6971 20.3746C68.9591 19.8853 69.0901 19.2903 69.0901 18.5896C69.0901 17.545 68.815 16.7451 68.2647 16.1897C67.7275 15.6212 67.0658 15.3369 66.2796 15.3369C65.4934 15.3369 64.8318 15.6212 64.2945 16.1897C63.7704 16.7451 63.5084 17.545 63.5084 18.5896C63.5084 19.6341 63.7639 20.4407 64.2749 21.0092C64.799 21.5646 65.4541 21.8422 66.2403 21.8422Z" fill="#101828"/>
<path d="M84.2178 13.0957V24.0834H81.4466V22.6951C81.0928 23.1711 80.6277 23.5479 80.0511 23.8256C79.4877 24.09 78.8719 24.2222 78.2037 24.2222C77.352 24.2222 76.5986 24.0437 75.9434 23.6867C75.2883 23.3165 74.7707 22.781 74.3908 22.0802C74.0239 21.3662 73.8404 20.52 73.8404 19.5416V13.0957H76.592V19.1449C76.592 20.0176 76.8082 20.6919 77.2406 21.1679C77.673 21.6307 78.2626 21.8621 79.0095 21.8621C79.7694 21.8621 80.3656 21.6307 80.798 21.1679C81.2304 20.6919 81.4466 20.0176 81.4466 19.1449V13.0957H84.2178Z" fill="#101828"/>
<path d="M89.6843 14.8014C90.038 14.2196 90.4966 13.7635 91.0601 13.4329C91.6366 13.1023 92.2917 12.9371 93.0255 12.9371V15.8526H92.2983C91.4335 15.8526 90.7783 16.0575 90.3329 16.4674C89.9005 16.8773 89.6843 17.5913 89.6843 18.6094V24.0834H86.9327V13.0957H89.6843V14.8014Z" fill="#101828"/>
<path d="M99.1437 12.9172C99.9561 12.9172 100.67 13.0825 101.286 13.4131C101.902 13.7304 102.387 14.1469 102.74 14.6626V13.0957H105.512V24.1627C105.512 25.1808 105.309 26.0866 104.902 26.8799C104.496 27.6865 103.887 28.3211 103.075 28.7839C102.262 29.2599 101.279 29.4979 100.126 29.4979C98.5803 29.4979 97.3093 29.1343 96.3135 28.4071C95.3308 27.6798 94.774 26.6882 94.6429 25.4321H97.3749C97.519 25.9345 97.8269 26.3312 98.2986 26.6221C98.7834 26.9262 99.3665 27.0782 100.048 27.0782C100.847 27.0782 101.496 26.8336 101.994 26.3444C102.491 25.8684 102.74 25.1412 102.74 24.1627V22.4571C102.387 22.9727 101.895 23.4025 101.266 23.7462C100.651 24.09 99.943 24.2619 99.1437 24.2619C98.2265 24.2619 97.388 24.0239 96.628 23.5479C95.868 23.0719 95.2653 22.4042 94.8198 21.5447C94.3874 20.6721 94.1712 19.6738 94.1712 18.5499C94.1712 17.4392 94.3874 16.4542 94.8198 15.5947C95.2653 14.7353 95.8615 14.0742 96.6083 13.6114C97.3683 13.1486 98.2134 12.9172 99.1437 12.9172ZM102.74 18.5896C102.74 17.9152 102.609 17.3401 102.347 16.8641C102.085 16.3748 101.732 16.0046 101.286 15.7534C100.841 15.489 100.362 15.3567 99.8513 15.3567C99.3403 15.3567 98.8686 15.4823 98.4362 15.7336C98.0038 15.9848 97.65 16.355 97.3749 16.8442C97.1128 17.3202 96.9818 17.8888 96.9818 18.5499C96.9818 19.211 97.1128 19.7928 97.3749 20.2952C97.65 20.7845 98.0038 21.1613 98.4362 21.4257C98.8817 21.6902 99.3534 21.8224 99.8513 21.8224C100.362 21.8224 100.841 21.6968 101.286 21.4456C101.732 21.1811 102.085 20.8109 102.347 20.3349C102.609 19.8457 102.74 19.2639 102.74 18.5896Z" fill="#101828"/>
<path d="M110.951 9.40674V24.0834H108.199V9.40674H110.951Z" fill="#101828"/>
<path d="M112.962 18.5499C112.962 17.4392 113.178 16.4542 113.61 15.5947C114.056 14.7353 114.652 14.0742 115.399 13.6114C116.159 13.1486 117.004 12.9172 117.934 12.9172C118.746 12.9172 119.454 13.0825 120.057 13.4131C120.673 13.7436 121.164 14.1601 121.531 14.6626V13.0957H124.302V24.0834H121.531V22.4769C121.177 22.9926 120.686 23.4223 120.057 23.7661C119.441 24.0966 118.727 24.2619 117.914 24.2619C116.997 24.2619 116.159 24.0239 115.399 23.5479C114.652 23.0719 114.056 22.4042 113.61 21.5447C113.178 20.6721 112.962 19.6738 112.962 18.5499ZM121.531 18.5896C121.531 17.9152 121.4 17.3401 121.138 16.8641C120.876 16.3748 120.522 16.0046 120.076 15.7534C119.631 15.489 119.153 15.3567 118.642 15.3567C118.131 15.3567 117.659 15.4823 117.227 15.7336C116.794 15.9848 116.44 16.355 116.165 16.8442C115.903 17.3202 115.772 17.8888 115.772 18.5499C115.772 19.211 115.903 19.7928 116.165 20.2952C116.44 20.7845 116.794 21.1613 117.227 21.4257C117.672 21.6902 118.144 21.8224 118.642 21.8224C119.153 21.8224 119.631 21.6968 120.076 21.4456C120.522 21.1811 120.876 20.8109 121.138 20.3349C121.4 19.8457 121.531 19.2639 121.531 18.5896Z" fill="#101828"/>
<path d="M131.156 24.2619C130.265 24.2619 129.466 24.1032 128.758 23.7859C128.051 23.4553 127.487 23.0124 127.068 22.4571C126.662 21.9017 126.439 21.2869 126.4 20.6126H129.171C129.223 21.0357 129.427 21.3861 129.78 21.6637C130.147 21.9414 130.599 22.0802 131.136 22.0802C131.661 22.0802 132.067 21.9745 132.355 21.7629C132.656 21.5513 132.807 21.2803 132.807 20.9497C132.807 20.5927 132.624 20.3283 132.257 20.1564C131.903 19.9713 131.333 19.773 130.547 19.5614C129.734 19.3631 129.066 19.1581 128.542 18.9466C128.031 18.735 127.586 18.4111 127.206 17.9747C126.839 17.5384 126.655 16.95 126.655 16.2096C126.655 15.6013 126.826 15.046 127.166 14.5436C127.52 14.0411 128.018 13.6445 128.66 13.3536C129.315 13.0627 130.082 12.9172 130.96 12.9172C132.257 12.9172 133.292 13.2478 134.065 13.9089C134.838 14.5568 135.264 15.4361 135.342 16.5467H132.709C132.669 16.1104 132.486 15.7666 132.158 15.5154C131.844 15.251 131.418 15.1187 130.881 15.1187C130.383 15.1187 129.997 15.2113 129.721 15.3964C129.459 15.5815 129.328 15.8393 129.328 16.1699C129.328 16.5401 129.512 16.8244 129.879 17.0227C130.245 17.2078 130.815 17.3996 131.589 17.5979C132.375 17.7962 133.023 18.0012 133.534 18.2127C134.045 18.4243 134.484 18.7548 134.851 19.2044C135.231 19.6407 135.428 20.2225 135.441 20.9497C135.441 21.5844 135.264 22.153 134.91 22.6554C134.569 23.1578 134.071 23.5545 133.416 23.8454C132.774 24.1231 132.021 24.2619 131.156 24.2619Z" fill="#101828"/>
<path d="M141.866 24.2619C140.975 24.2619 140.176 24.1032 139.468 23.7859C138.761 23.4553 138.197 23.0124 137.778 22.4571C137.372 21.9017 137.149 21.2869 137.11 20.6126H139.881C139.933 21.0357 140.137 21.3861 140.49 21.6637C140.857 21.9414 141.309 22.0802 141.846 22.0802C142.371 22.0802 142.777 21.9745 143.065 21.7629C143.366 21.5513 143.517 21.2803 143.517 20.9497C143.517 20.5927 143.334 20.3283 142.967 20.1564C142.613 19.9713 142.043 19.773 141.257 19.5614C140.444 19.3631 139.776 19.1581 139.252 18.9466C138.741 18.735 138.296 18.4111 137.916 17.9747C137.549 17.5384 137.365 16.95 137.365 16.2096C137.365 15.6013 137.536 15.046 137.876 14.5436C138.23 14.0411 138.728 13.6445 139.37 13.3536C140.025 13.0627 140.792 12.9172 141.67 12.9172C142.967 12.9172 144.002 13.2478 144.775 13.9089C145.548 14.5568 145.974 15.4361 146.052 16.5467H143.419C143.379 16.1104 143.196 15.7666 142.868 15.5154C142.554 15.251 142.128 15.1187 141.591 15.1187C141.093 15.1187 140.706 15.2113 140.431 15.3964C140.169 15.5815 140.038 15.8393 140.038 16.1699C140.038 16.5401 140.222 16.8244 140.589 17.0227C140.955 17.2078 141.525 17.3996 142.298 17.5979C143.085 17.7962 143.733 18.0012 144.244 18.2127C144.755 18.4243 145.194 18.7548 145.561 19.2044C145.941 19.6407 146.138 20.2225 146.151 20.9497C146.151 21.5844 145.974 22.153 145.62 22.6554C145.279 23.1578 144.781 23.5545 144.126 23.8454C143.484 24.1231 142.731 24.2619 141.866 24.2619Z" fill="#101828"/>
</svg>
