<svg width="64" height="64" viewBox="0 0 64 64" fill="none" xmlns="http://www.w3.org/2000/svg">
<circle cx="32" cy="32" r="28" fill="#3290E8"/>
<path fill-rule="evenodd" clip-rule="evenodd" d="M44 16H20C17.8194 15.9966 16.0038 17.8234 16 20V44C16 46.2089 17.7914 48 20 48H44C46.1806 48.0034 47.9962 46.1766 48 44V20C48 17.7911 46.2095 16 44 16ZM36.2658 21.8667C36.2658 21.2782 36.7442 20.8 37.3333 20.8C37.9225 20.8 38.4 21.2782 38.4 21.8667V36.1182C38.4 36.7067 37.9216 37.1849 37.3333 37.1849C36.7686 37.1854 36.2681 36.6848 36.2667 36.1182L36.2658 21.8667ZM30.9324 21.3271C30.9324 20.7378 31.4109 20.2604 32 20.2604C32.5891 20.2604 33.0676 20.7378 33.0676 21.3271V36.7938C33.0676 37.3831 32.5891 37.8604 32 37.8604C31.4353 37.8609 30.9347 37.3604 30.9333 36.7938L30.9324 21.3271ZM25.6 21.8667C25.6 21.2782 26.0784 20.8 26.6667 20.8C27.2558 20.8 27.7333 21.2782 27.7333 21.8667V36.1182C27.7333 36.7067 27.2558 37.1849 26.6667 37.1849C26.102 37.1854 25.6014 36.6848 25.6 36.1182V21.8667ZM20.2667 24C20.2667 23.4107 20.7442 22.9333 21.3333 22.9333C21.9225 22.9333 22.4 23.4107 22.4 24V33.5938C22.4 34.1831 21.9216 34.6604 21.3333 34.6604C20.7518 34.6614 20.2676 34.1742 20.2667 33.5938V24ZM43.3612 40.2702C43.1973 40.4124 39.2452 43.7271 32 43.7271C24.7548 43.7271 20.8053 40.4116 20.6388 40.2693C20.1981 39.8917 20.1459 39.2066 20.5236 38.7662C20.8918 38.3376 21.5944 38.2827 22.0244 38.6489C22.0864 38.7013 25.6151 41.5938 31.9991 41.5938C38.4629 41.5938 41.9375 38.68 41.9712 38.6516C42.4006 38.2826 43.1058 38.3364 43.4746 38.7662C43.8549 39.2058 43.8034 39.8928 43.3612 40.2702ZM43.7333 33.5947C43.7333 34.1831 43.2549 34.6613 42.6667 34.6613C42.0851 34.6623 41.601 34.1751 41.6 33.5947V24C41.6 23.4107 42.0775 22.9333 42.6658 22.9333C43.2549 22.9333 43.7333 23.4107 43.7333 24V33.5947Z" fill="white"/>
</svg>
