<svg width="52" height="52" viewBox="0 0 52 52" fill="none" xmlns="http://www.w3.org/2000/svg">
<path d="M47.0004 23.9996C49.7616 23.9996 52 21.7612 52 19.0001C52 16.2389 49.7614 14.0005 47.0002 14.0005C44.2388 14.0005 42 16.2391 42 19.0005V23.9996H47.0004ZM33 23.9996C35.7614 23.9996 38 21.7611 38 18.9996V5.00049C38 2.23906 35.7614 0.000488281 33 0.000488281C30.2386 0.000488281 28 2.23906 28 5.00049V18.9996C28 21.7611 30.2386 23.9996 33 23.9996Z" fill="#2EB67D"/>
<path d="M4.99957 28.0004C2.23838 28.0004 0 30.2388 0 32.9999C0 35.7611 2.2386 37.9995 4.99978 37.9995C7.76121 37.9995 10 35.7609 10 32.9995V28.0004H4.99957ZM19 28.0004C16.2386 28.0004 14 30.239 14 33.0004V46.9995C14 49.7609 16.2386 51.9995 19 51.9995C21.7614 51.9995 24 49.7609 24 46.9995V33.0004C24 30.2389 21.7614 28.0004 19 28.0004Z" fill="#E01E5A"/>
<path d="M28.0009 47.0004C28.0009 49.7616 30.2392 52 33.0004 52C35.7616 52 38 49.7614 38 47.0002C38 44.2388 35.7614 42 33 42L28.0009 42L28.0009 47.0004ZM28.0009 33C28.0009 35.7614 30.2394 38 33.0009 38L47 38C49.7614 38 52 35.7614 52 33C52 30.2386 49.7614 28 47 28L33.0009 28C30.2394 28 28.0009 30.2386 28.0009 33Z" fill="#ECB22E"/>
<path d="M23.9991 4.99957C23.9991 2.23839 21.7608 2.85854e-06 18.9996 2.73785e-06C16.2384 2.61715e-06 14 2.2386 14 4.99979C14 7.76121 16.2386 10 19 10L23.9991 10L23.9991 4.99957ZM23.9991 19C23.9991 16.2386 21.7606 14 18.9991 14L5 14C2.23858 14 3.39263e-07 16.2386 2.18557e-07 19C9.78513e-08 21.7614 2.23858 24 5 24L18.9991 24C21.7606 24 23.9991 21.7614 23.9991 19Z" fill="#36C5F0"/>
</svg>
