<svg width="56" height="56" viewBox="0 0 56 56" fill="none" xmlns="http://www.w3.org/2000/svg">
<path d="M4 28C4 14.7452 14.7452 4 28 4C41.2548 4 52 14.7452 52 28C52 41.2548 41.2548 52 28 52C14.7452 52 4 41.2548 4 28Z" fill="#F4EBFF"/>
<path d="M33 37V35C33 33.9391 32.5786 32.9217 31.8284 32.1716C31.0783 31.4214 30.0609 31 29 31H21C19.9391 31 18.9217 31.4214 18.1716 32.1716C17.4214 32.9217 17 33.9391 17 35V37M39 37V35C38.9993 34.1137 38.7044 33.2528 38.1614 32.5523C37.6184 31.8519 36.8581 31.3516 36 31.13M32 19.13C32.8604 19.3503 33.623 19.8507 34.1676 20.5523C34.7122 21.2539 35.0078 22.1168 35.0078 23.005C35.0078 23.8932 34.7122 24.7561 34.1676 25.4577C33.623 26.1593 32.8604 26.6597 32 26.88M29 23C29 25.2091 27.2091 27 25 27C22.7909 27 21 25.2091 21 23C21 20.7909 22.7909 19 25 19C27.2091 19 29 20.7909 29 23Z" stroke="#7F56D9" stroke-width="2" stroke-linecap="round" stroke-linejoin="round"/>
<path d="M28 48C16.9543 48 8 39.0457 8 28H0C0 43.464 12.536 56 28 56V48ZM48 28C48 39.0457 39.0457 48 28 48V56C43.464 56 56 43.464 56 28H48ZM28 8C39.0457 8 48 16.9543 48 28H56C56 12.536 43.464 0 28 0V8ZM28 0C12.536 0 0 12.536 0 28H8C8 16.9543 16.9543 8 28 8V0Z" fill="#F9F5FF"/>
</svg>
